<?xml version="1.0" encoding="UTF-8"?>
<svg xmlns="http://www.w3.org/2000/svg" version="1.1" width="600" height="600" style="background-color:transparent;">
  <path d="M0 0 C198 0 396 0 600 0 C600 198 600 396 600 600 C402 600 204 600 0 600 C0 402 0 204 0 0 Z " fill="#339AF0" transform="translate(0,0)"/>
  <path d="M0 0 C198 0 396 0 600 0 C600 198 600 396 600 600 C402 600 204 600 0 600 C0 402 0 204 0 0 Z M44.5859375 50.72265625 C32.50100811 66.06122048 29.69620998 80.58336831 29.72584534 99.48217773 C29.72138946 101.27211988 29.71607427 103.06206007 29.70997661 104.85199738 C29.69582791 109.75854268 29.69413273 114.66502454 29.69457352 119.57158732 C29.69292253 124.86834056 29.67985069 130.16506787 29.66838074 135.46180725 C29.64555275 147.03849247 29.63761239 158.61515934 29.63255429 170.19186401 C29.62929451 177.42494987 29.62277031 184.65803043 29.6155529 191.89111328 C29.59598933 211.93048938 29.57958387 231.96986056 29.57667637 252.00924683 C29.5764888 253.29106508 29.57630123 254.57288333 29.57610798 255.89354455 C29.57574173 258.49193605 29.57537803 261.09032754 29.57501686 263.68871903 C29.57483405 264.97850718 29.57465124 266.26829533 29.57446289 267.59716797 C29.57428234 268.8885366 29.57410179 270.17990524 29.57391577 271.51040626 C29.5703754 292.4273086 29.54336041 313.34410791 29.505965 334.26097453 C29.46784978 355.7530529 29.44851865 377.24508019 29.44821686 398.73719311 C29.44763299 410.79733026 29.43918658 422.85734451 29.41021919 434.91744995 C29.38566227 445.18833357 29.37845152 455.45904947 29.39346672 465.72995454 C29.40061807 470.96553481 29.39985479 476.20078417 29.37705612 481.43632698 C29.35634153 486.23951779 29.3591821 491.04212592 29.37993097 495.84531128 C29.38340213 497.57279399 29.37861789 499.30031983 29.36422653 501.02774608 C29.21024768 520.80198292 34.05631388 538.26814148 48.125 552.8125 C60.35963506 564.87182331 75.49547192 570.11504054 92.5404911 570.13142776 C93.27067394 570.1334804 94.00085678 570.13553303 94.75316638 570.13764787 C97.19505004 570.14329336 99.63687686 570.14186366 102.07876587 570.14044189 C103.84920706 570.14302693 105.61964768 570.14604048 107.39008749 570.1494453 C112.25185373 570.15750219 117.11360519 570.15930414 121.97537732 570.16004276 C127.22027306 570.16189559 132.46516117 570.16944407 137.71005249 570.17617798 C149.17708624 570.18975235 160.64411649 570.19578458 172.11115694 570.20018864 C179.27283966 570.20295248 186.43452104 570.20719009 193.59620285 570.21169281 C213.42962624 570.22388413 233.26304855 570.23418383 253.0964756 570.2375679 C254.36553229 570.23778747 255.63458897 570.23800703 256.94210192 570.23823325 C258.21417188 570.23845153 259.48624185 570.23866981 260.79685938 570.2388947 C263.37450131 570.23933817 265.95214323 570.23978473 268.52978516 570.24023438 C269.80838096 570.2404558 271.08697677 570.24067723 272.4043179 570.24090537 C293.12032408 570.24485307 313.83629507 570.26230685 334.55228765 570.2855939 C355.8273169 570.3093161 377.1023285 570.32177014 398.37737119 570.32293582 C410.32000671 570.32385207 422.26259639 570.32959189 434.20521927 570.34775543 C444.37485793 570.36316809 454.54443657 570.36826996 464.7140847 570.36001733 C469.90047153 570.35611503 475.08673753 570.35701998 480.27310944 570.37107468 C485.02670056 570.3838385 489.78008037 570.38259428 494.5336713 570.37048396 C496.24768136 570.36853128 497.96170651 570.37158549 499.67569537 570.38032833 C520.60601155 570.48027905 537.79518919 565.92509653 553.25 551.1875 C567.80539723 536.10737842 570.31065418 518.56676049 570.25396729 498.50231934 C570.25627387 496.72302546 570.25945172 494.94373253 570.26342177 493.16444159 C570.27175119 488.29223683 570.26765292 483.42011068 570.26144934 478.54790568 C570.25691827 473.28675864 570.26391186 468.02562497 570.26940918 462.76448059 C570.27829782 452.46465881 570.27638352 442.1648662 570.2705839 431.86504328 C570.26606534 423.4934157 570.26545535 415.12179629 570.26763153 406.75016785 C570.267938 405.55822928 570.26824446 404.36629071 570.26856022 403.1382328 C570.26919967 400.71675845 570.2698481 398.2952841 570.2705054 395.87380975 C570.27620714 373.17287241 570.26965323 350.47195123 570.25890467 327.77101654 C570.2499693 308.29671778 570.25152139 288.82244286 570.26074219 269.34814453 C570.27144756 246.72788745 570.27565783 224.10764453 570.26951766 201.48738527 C570.26888057 199.07486757 570.26825183 196.66234986 570.26763153 194.24983215 C570.26732298 193.06285763 570.26701443 191.8758831 570.26669653 190.65293965 C570.26497039 182.29231987 570.26788295 173.93170908 570.27259064 165.5710907 C570.27820242 155.38094962 570.27667673 145.19083934 570.26602915 135.00070179 C570.26077648 129.80254221 570.25870885 124.60443398 570.26532745 119.4062748 C570.27129732 114.64559326 570.26799462 109.88501057 570.25737235 105.12433797 C570.25514273 103.40441749 570.25626475 101.68448862 570.26112393 99.96457356 C570.31302132 80.06516486 566.69907212 62.51610859 552.375 47.8125 C540.52213869 36.15494465 525.26073781 29.88844567 508.6275177 29.86577892 C507.52304217 29.86225058 507.52304217 29.86225058 506.396254 29.85865095 C503.92146245 29.85197793 501.44672361 29.85241866 498.97192383 29.85282898 C497.18258459 29.8495293 495.39324609 29.84580351 493.60390854 29.8416875 C488.68061753 29.83167122 483.75733872 29.8279513 478.83403897 29.82529819 C473.52639323 29.82139403 468.21875714 29.81181575 462.91111755 29.80308533 C450.08989169 29.78332392 437.26866504 29.77325504 424.44742775 29.76435754 C418.40916518 29.75997404 412.37090348 29.75460738 406.3326416 29.74936867 C386.25910626 29.73235659 366.18557147 29.71786256 346.11203003 29.71061993 C340.90297444 29.70871004 335.69391885 29.70678971 330.48486328 29.70483398 C328.54284346 29.70410837 328.54284346 29.70410837 326.56159091 29.7033681 C305.59001873 29.69506833 284.6185036 29.66973217 263.64695632 29.63725331 C242.11434782 29.60417749 220.5817683 29.58617068 199.04913425 29.58297569 C186.96001714 29.58081106 174.87098322 29.5720693 162.78189087 29.54651451 C152.48593046 29.52480041 142.19007345 29.51676063 131.89409274 29.52648129 C126.64287567 29.53102391 121.3918719 29.5291418 116.14068413 29.50971985 C111.32774861 29.49207291 106.51518178 29.49309844 101.70224226 29.50861714 C99.96663578 29.51099087 98.23100366 29.50668191 96.49543631 29.49478849 C76.41971153 29.36580217 58.29330295 35.26305476 44.5859375 50.72265625 Z " fill="#FEFEFE" transform="translate(0,0)"/>
  <path d="M0 0 C7.1762571 5.97016347 12.11180943 13.19868936 14.57421875 22.24609375 C15.7040442 34.56907367 14.42795438 46.18349497 6.57421875 56.24609375 C5.89359375 57.15359375 5.21296875 58.06109375 4.51171875 58.99609375 C2.57421875 61.24609375 2.57421875 61.24609375 -0.42578125 63.24609375 C-0.93421187 65.56362963 -0.93421187 65.56362963 -0.9375 68.25390625 C-0.99067383 69.73310547 -0.99067383 69.73310547 -1.04492188 71.2421875 C-1.06748047 72.27472656 -1.09003906 73.30726563 -1.11328125 74.37109375 C-1.14744141 75.41136719 -1.18160156 76.45164062 -1.21679688 77.5234375 C-1.29945183 80.09754882 -1.3685428 82.67131204 -1.42578125 85.24609375 C-0.22824219 84.72660156 0.96929687 84.20710938 2.203125 83.671875 C42.67664112 66.26215733 82.71204437 59.76978008 125.57421875 72.24609375 C127.5112479 72.74791477 129.44871273 73.24805868 131.38671875 73.74609375 C134.86584192 74.69541202 138.17286521 75.8215535 141.51171875 77.18359375 C142.33929688 77.51746094 143.166875 77.85132813 144.01953125 78.1953125 C145.7338583 78.90044091 147.43724107 79.63273831 149.12890625 80.390625 C164.08774574 86.38687369 180.61695096 83.87978036 195.57421875 79.24609375 C196.45851563 79.01921875 197.3428125 78.79234375 198.25390625 78.55859375 C204.83786061 76.8316549 210.83001678 73.88008356 216.94921875 70.96484375 C231.25966596 64.15319038 231.25966596 64.15319038 237.57421875 65.24609375 C240.53515172 67.0615074 242.99512029 69.08789683 244.57421875 72.24609375 C244.67961934 74.51508514 244.71819026 76.7872536 244.7281189 79.05867004 C244.73250115 79.76738918 244.7368834 80.47610831 244.74139845 81.20630378 C244.75480653 83.59302351 244.76096978 85.9797063 244.76708984 88.36645508 C244.77498918 90.07290312 244.78325802 91.77934948 244.79187012 93.48579407 C244.81810791 99.09988811 244.83339866 104.71398968 244.84765625 110.328125 C244.85301505 112.25902499 244.85839255 114.18992493 244.8637886 116.12082481 C244.88541915 124.15109135 244.904157 132.18135586 244.915411 140.21164417 C244.93165758 151.72953363 244.96485054 163.24708612 245.02181184 174.76484853 C245.06047715 182.85831837 245.08003959 190.95169795 245.08533156 199.04525775 C245.08898947 203.88181931 245.10105728 208.71802162 245.1334343 213.55448341 C245.16345534 218.10425255 245.16984822 222.65344395 245.15805054 227.20329094 C245.15782931 228.87343623 245.16617532 230.54360787 245.18370438 232.21366119 C245.20633674 234.49399487 245.19813139 236.77222296 245.18222046 239.05256653 C245.18718568 240.96646038 245.18718568 240.96646038 245.19225121 242.91901875 C244.41000764 247.13009698 242.84162128 248.57212669 239.57421875 251.24609375 C237.25341797 252.57641602 237.25341797 252.57641602 234.87890625 253.5625 C234.00395508 253.93221924 233.12900391 254.30193848 232.22753906 254.68286133 C231.31069336 255.05435303 230.39384766 255.42584473 229.44921875 255.80859375 C228.50143555 256.20135498 227.55365234 256.59411621 226.57714844 256.9987793 C223.91493264 258.09521475 221.24594892 259.17310111 218.57421875 260.24609375 C216.97707031 260.90351562 216.97707031 260.90351562 215.34765625 261.57421875 C192.93224208 270.3183122 164.35725673 273.86028021 141.57421875 265.24609375 C140.29224609 264.77816406 140.29224609 264.77816406 138.984375 264.30078125 C136.48743373 263.33761752 134.0325745 262.30384326 131.57421875 261.24609375 C129.20369235 260.23328224 126.82979957 259.23448208 124.44921875 258.24609375 C122.77472656 257.53453125 122.77472656 257.53453125 121.06640625 256.80859375 C108.63961668 252.2143643 96.63080965 250.46105442 83.44921875 250.55859375 C82.67719116 250.56029572 81.90516357 250.56199768 81.10974121 250.56375122 C54.62994258 250.72610624 27.72240174 257.93107141 4.34130859 270.42504883 C2.44365378 271.3067583 0.605555 271.76374284 -1.42578125 272.24609375 C-1.43124969 273.3845575 -1.43124969 273.3845575 -1.43682861 274.54602051 C-1.47481488 281.72528993 -1.53178671 288.90404649 -1.60968399 296.08298492 C-1.64906601 299.77311388 -1.68129939 303.46300753 -1.69677734 307.15332031 C-1.71200589 310.71978958 -1.74655878 314.28561156 -1.79409027 317.85179138 C-1.81598215 319.86337413 -1.81824965 321.87513983 -1.82012939 323.88684082 C-1.95051702 332.09073976 -2.71664231 337.75097061 -8.06640625 344.234375 C-14.40454665 349.44949538 -20.53604727 351.95894547 -28.83984375 351.65234375 C-35.4311439 350.61685249 -40.73866837 347.60578763 -44.86328125 342.37109375 C-49.96955535 335.08512653 -50.85890045 328.99139014 -50.77067566 320.29055786 C-50.77167796 319.19653495 -50.77268026 318.10251203 -50.77371293 316.97533691 C-50.7736325 313.31428428 -50.75228632 309.65366309 -50.73120117 305.99267578 C-50.72712013 303.36588721 -50.72447018 300.73909609 -50.72314453 298.11230469 C-50.71866378 292.45767902 -50.70414823 286.80315234 -50.68364525 281.14856339 C-50.65200479 272.20659546 -50.65028894 263.26473717 -50.65315247 254.32272339 C-50.65375207 251.26061441 -50.65413376 248.19850543 -50.65443134 245.13639641 C-50.65451026 244.37122439 -50.65458917 243.60605238 -50.65467047 242.81769333 C-50.65510144 234.11527406 -50.64877918 225.41286354 -50.63989258 216.71044922 C-50.6390882 215.91528376 -50.63828383 215.12011831 -50.63745508 214.30085693 C-50.6237316 201.41307762 -50.5905187 188.52539886 -50.55277082 175.63767101 C-50.51474109 162.39473613 -50.50743814 149.1520059 -50.52605134 135.90902984 C-50.53635888 127.74646263 -50.52135853 119.58472707 -50.47360543 111.42228936 C-50.4393345 105.1651779 -50.44669781 98.9087457 -50.4693985 92.65159607 C-50.47202573 90.08815518 -50.46096051 87.52465784 -50.4351368 84.96134567 C-50.40182892 81.45824969 -50.41786394 77.95866161 -50.44596863 74.45559692 C-50.42451049 73.44381319 -50.40305234 72.43202946 -50.38094395 71.38958561 C-50.51094747 64.37812017 -52.53694013 61.01888959 -57.53055555 56.12784278 C-59.86787592 53.80714275 -61.11553257 51.4663779 -62.36328125 48.43359375 C-62.93369141 47.09361328 -62.93369141 47.09361328 -63.515625 45.7265625 C-66.69969938 37.04893491 -67.42145996 24.5597435 -63.67578125 15.99609375 C-62.96427797 14.72378754 -62.21781329 13.46989326 -61.42578125 12.24609375 C-60.84828125 11.23546875 -60.27078125 10.22484375 -59.67578125 9.18359375 C-44.57186202 -10.53541191 -20.30004425 -14.67748771 0 0 Z " fill="#FEFEFE" transform="translate(210.42578125,128.75390625)"/>
  <path d="M0 0 C0.66 0.33 1.32 0.66 2 1 C-2.29 5.29 -6.58 9.58 -11 14 C-11 9.82308582 -8.77013484 7.86318847 -6 5 C-4.05228995 3.24842937 -2.05675499 1.62627139 0 0 Z " fill="#46A3F0" transform="translate(54,42)"/>
</svg>
