<?xml version="1.0" encoding="UTF-8"?>
<svg version="1.1" xmlns="http://www.w3.org/2000/svg" width="225" height="225">
<path d="M0 0 C74.25 0 148.5 0 225 0 C225 74.25 225 148.5 225 225 C150.75 225 76.5 225 0 225 C0 150.75 0 76.5 0 0 Z " fill="#FEFEFE" transform="translate(0,0)"/>
<path d="M0 0 C2.08752327 2.78336436 3.44265292 4.65085905 4.79907227 7.67480469 C5.12186157 8.38786774 5.44465088 9.10093079 5.77722168 9.83560181 C6.29161804 10.99205704 6.29161804 10.99205704 6.81640625 12.171875 C7.18471558 12.98917084 7.5530249 13.80646667 7.93249512 14.64852905 C9.1471782 17.34694214 10.35482172 20.04844554 11.5625 22.75 C12.41612199 24.64978506 13.2702143 26.54935886 14.12475586 28.44873047 C15.88919378 32.37251993 17.65085173 36.29753906 19.41015625 40.22363281 C21.80903897 45.57630708 24.21539226 50.9255841 26.625 56.2734375 C29.57922637 62.83095257 32.53130108 69.38942693 35.48046875 75.94921875 C38.647905 82.99431614 41.81735631 90.0385034 44.98828125 97.08203125 C45.81437382 98.91715401 46.64046434 100.7522777 47.46655273 102.58740234 C48.65641214 105.23061199 49.84631853 107.87380042 51.03640747 110.51690674 C52.12603154 112.9369636 53.21538705 115.3571412 54.3046875 117.77734375 C54.77851616 118.82943779 54.77851616 118.82943779 55.26191711 119.90278625 C55.86503156 121.24302162 56.46687083 122.58383168 57.06732178 123.92526245 C57.74521811 125.43323909 58.42992575 126.9381595 59.11871338 128.44119263 C59.48575378 129.24894135 59.85279419 130.05669006 60.23095703 130.88891602 C60.56886261 131.62682877 60.90676819 132.36474152 61.25491333 133.12501526 C62 135 62 135 62 137 C41.23678466 137 20.63143055 133.33563365 0 131 C0 87.77 0 44.54 0 0 Z " fill="#456AB0" transform="translate(106,31)"/>
<path d="M0 0 C0.33 0 0.66 0 1 0 C1 24.75 1 49.5 1 75 C-35 81 -35 81 -40 81 C-38.5564584 76.27742718 -36.60970995 71.93954868 -34.39233398 67.54174805 C-34.03276611 66.82071396 -33.67319824 66.09967987 -33.30273438 65.35679626 C-32.12107968 62.98980174 -30.93371745 60.62572325 -29.74609375 58.26171875 C-28.92150678 56.61373755 -28.09721604 54.96560809 -27.27320862 53.31733704 C-25.54992968 49.87233988 -23.8239788 46.42869959 -22.09594727 42.98608398 C-19.87685399 38.5649454 -17.66308324 34.14116838 -15.45110989 29.71646404 C-13.75160887 26.31773327 -12.05002913 22.92004689 -10.34773445 19.52271461 C-9.53028285 17.89100056 -8.71332048 16.25904132 -7.89684868 14.62683678 C-6.7593355 12.35396802 -5.61920323 10.0824335 -4.47827148 7.8112793 C-4.13903152 7.13234619 -3.79979156 6.45341309 -3.45027161 5.75390625 C-1.11448122 1.11448122 -1.11448122 1.11448122 0 0 Z " fill="#466BB0" transform="translate(97,87)"/>
<path d="M0 0 C35.64 0 71.28 0 108 0 C104.66850425 1.66574787 101.74417962 2.78557151 98.20922852 3.86352539 C97.04444473 4.22052017 95.87966095 4.57751495 94.67958069 4.94532776 C93.42535812 5.32559616 92.17113556 5.70586456 90.87890625 6.09765625 C89.57373282 6.49572422 88.26863443 6.89403834 86.96360779 7.29258728 C84.23154451 8.12610029 81.49874925 8.95715413 78.76538086 9.78637695 C75.26944265 10.84707384 71.77514064 11.91304516 68.28134251 12.98076725 C65.58724849 13.80360703 62.89242745 14.62404376 60.19737053 15.44372368 C58.28435726 16.02588944 56.37185714 16.60974056 54.45936584 17.19361877 C53.2914299 17.5474614 52.12349396 17.90130402 50.92016602 18.26586914 C49.38272484 18.73314171 49.38272484 18.73314171 47.81422424 19.20985413 C39.94872793 21.41823872 39.94872793 21.41823872 35.76049805 19.27758789 C34.96004562 18.87709732 34.1595932 18.47660675 33.33488464 18.0639801 C32.4857399 17.62134323 31.63659515 17.17870636 30.76171875 16.72265625 C29.44056816 16.05465248 29.44056816 16.05465248 28.09272766 15.37315369 C25.28413809 13.94928438 22.4859149 12.50624679 19.6875 11.0625 C17.7838543 10.09312122 15.87956428 9.12500662 13.97460938 8.15820312 C9.30883351 5.7867481 4.65141753 3.39948427 0 1 C0 0.67 0 0.34 0 0 Z " fill="#4469AF" transform="translate(58,176)"/>
</svg>
