<?xml version="1.0" encoding="UTF-8"?>
<svg version="1.1" xmlns="http://www.w3.org/2000/svg" width="301" height="356">
<path d="M0 0 C1.69103428 1.17274511 3.36658147 2.36539291 5.04199219 3.56030273 C5.98816406 4.20354492 6.93433594 4.84678711 7.90917969 5.50952148 C15.61291634 11.19242287 20.64444678 18.45154163 25.99902344 26.25561523 C28.42338332 29.78410012 31.05483426 32.99173784 33.94702148 36.14575195 C35.04199219 37.56030273 35.04199219 37.56030273 35.04199219 39.56030273 C41.8296904 42.22214517 45.95526778 41.02588537 52.69824219 38.50561523 C55.91215965 37.59700773 58.51420517 37.51638728 61.828125 37.6105957 C66.18260037 37.51167401 70.41318522 36.43278381 74.66699219 35.56030273 C88.75027102 32.86523929 101.59197696 33.53101513 115.70996094 35.28686523 C118.03727933 35.55975014 120.36462706 35.78601245 122.69824219 35.99780273 C131.16554958 36.78945792 138.82943145 38.04596618 146.92871094 40.75561523 C150.46972584 41.67085873 153.39931681 41.87649215 157.04199219 41.56030273 C160.27787463 38.5354561 162.47637165 35.42726868 164.88964844 31.72827148 C177.45884401 12.67478062 195.34721498 -3.92845232 218.04199219 -9.43969727 C220.779786 -9.67121179 223.37203642 -9.80949754 226.10449219 -9.81469727 C226.78576172 -9.83918945 227.46703125 -9.86368164 228.16894531 -9.88891602 C233.2885455 -9.9184238 236.1286713 -8.67318577 240.04199219 -5.43969727 C241.65136719 -3.58032227 241.65136719 -3.58032227 242.79199219 -1.68969727 C243.17871094 -1.07610352 243.56542969 -0.46250977 243.96386719 0.16967773 C247.39275404 7.77286163 247.42842534 15.34843874 247.41699219 23.56030273 C247.41538086 24.75695557 247.41376953 25.9536084 247.41210938 27.18652344 C247.25284807 38.73687163 245.80986323 49.33661609 239.96777344 59.50952148 C238.71388162 62.28712995 238.25079973 65.07298344 237.66699219 68.06030273 C236.54649787 73.42622551 234.95120898 76.86771246 231.34667969 80.97436523 C229.29521467 83.46806223 229.02991183 85.68314401 228.71777344 88.85717773 C227.95881018 93.01612088 226.58767117 95.32772301 224.22949219 98.81030273 C217.89296337 108.53459478 214.11749148 118.81494153 215.04199219 130.56030273 C215.37529954 132.12738489 215.73078794 133.68986005 216.10449219 135.24780273 C218.36968403 145.92412204 215.63009778 156.55065778 212.76831055 166.86401367 C212.22707712 168.81902631 211.70661082 170.77874347 211.18847656 172.73999023 C205.92073515 192.15057959 198.03266626 200.39716647 181.60498047 211.47216797 C180.07299446 212.47053104 180.07299446 212.47053104 179.04199219 213.56030273 C179.7501709 213.49101562 180.45834961 213.42172852 181.18798828 213.3503418 C203.92911887 211.27187125 226.12757676 211.75428385 248.04199219 218.56030273 C247.71199219 219.55030273 247.38199219 220.54030273 247.04199219 221.56030273 C246.33405518 221.37854492 245.62611816 221.19678711 244.89672852 221.00952148 C223.7985637 215.6928044 206.07856145 214.6850472 184.54199219 216.87280273 C183.37732422 216.99002686 182.21265625 217.10725098 181.01269531 217.22802734 C179.91892578 217.35443604 178.82515625 217.48084473 177.69824219 217.61108398 C176.72693359 217.72105713 175.755625 217.83103027 174.75488281 217.94433594 C171.71901091 218.63363623 169.61378383 219.83417188 167.04199219 221.56030273 C168.02369385 221.60517822 169.00539551 221.65005371 170.0168457 221.69628906 C173.73572004 221.86936478 177.45370863 222.05763549 181.17163086 222.25 C182.7664858 222.33050296 184.36154167 222.40713907 185.95678711 222.47949219 C198.1317949 223.03551617 210.71028177 223.64923105 222.04199219 228.56030273 C222.04199219 229.22030273 222.04199219 229.88030273 222.04199219 230.56030273 C221.43838867 230.44436768 220.83478516 230.32843262 220.21289062 230.20898438 C204.79160286 227.2678867 189.81885663 224.79509105 174.04199219 225.56030273 C173.71199219 225.89030273 173.38199219 226.22030273 173.04199219 226.56030273 C173.58911865 226.65005371 174.13624512 226.73980469 174.69995117 226.83227539 C195.20533587 230.27089373 213.53805987 234.92251189 229.04199219 249.56030273 C228.71199219 250.22030273 228.38199219 250.88030273 228.04199219 251.56030273 C227.42195313 251.06401367 226.80191406 250.56772461 226.16308594 250.05639648 C207.53812548 235.76912697 182.53330622 228.57151668 159.04199219 229.56030273 C158.71199219 229.89030273 158.38199219 230.22030273 158.04199219 230.56030273 C162.90427606 232.48530249 167.65422154 234.03491118 172.73828125 235.24511719 C182.51949166 237.5814257 191.15001967 240.91719208 200.04199219 245.56030273 C200.99332031 246.04635986 200.99332031 246.04635986 201.96386719 246.54223633 C224.31443214 257.96896266 224.31443214 257.96896266 228.04199219 263.56030273 C224.21474919 262.1875684 220.82824992 260.35855796 217.32128906 258.33642578 C197.3501481 246.83982294 176.95292268 237.94143124 154.04199219 234.56030273 C153.05199219 237.53030273 153.05199219 237.53030273 152.04199219 240.56030273 C152.67693604 240.70435547 153.31187988 240.8484082 153.96606445 240.99682617 C163.229662 243.1994381 172.26556229 246.03227771 181.32299805 248.95629883 C183.96720979 249.80635422 186.6166674 250.63844298 189.26660156 251.47045898 C199.01364043 254.58168432 208.46523517 257.8480833 217.04199219 263.56030273 C217.37199219 264.22030273 217.70199219 264.88030273 218.04199219 265.56030273 C213.69407719 264.93335619 210.32851483 263.33723705 206.41699219 261.37280273 C200.37612662 258.43923657 194.25799381 256.14072324 187.85449219 254.12280273 C187.04093262 253.864104 186.22737305 253.60540527 185.38916016 253.33886719 C181.67045034 252.20109956 179.00037841 251.56030273 175.04199219 251.56030273 C176.10417969 252.21256836 177.16636719 252.86483398 178.26074219 253.53686523 C193.50274747 262.94426547 193.50274747 262.94426547 199.04199219 267.56030273 C199.04199219 268.22030273 199.04199219 268.88030273 199.04199219 269.56030273 C195.1398934 268.14980957 191.91954189 266.30516351 188.47167969 264.00561523 C187.40949219 263.30823242 186.34730469 262.61084961 185.25292969 261.89233398 C183.04886198 260.43413931 180.84826324 258.97068613 178.65136719 257.50170898 C170.49872126 252.1681105 161.95641933 246.7855273 151.85449219 247.31030273 C150.9328125 247.34639648 150.01113281 247.38249023 149.06152344 247.41967773 C148.39507812 247.46608398 147.72863281 247.51249023 147.04199219 247.56030273 C145.58136368 250.2076919 145.04199219 251.45478608 145.04199219 254.56030273 C147.26854455 256.07508836 149.44261427 257.38805848 151.79199219 258.68530273 C169.63000264 268.94231841 169.63000264 268.94231841 174.04199219 275.56030273 C170.10467648 274.15089987 166.94488892 272.28202137 163.51464844 269.90014648 C162.47501953 269.18922852 161.43539062 268.47831055 160.36425781 267.74584961 C158.19189774 266.24771513 156.02261538 264.74510793 153.85644531 263.23803711 C152.81552734 262.5284082 151.77460938 261.8187793 150.70214844 261.08764648 C149.28881226 260.1091272 149.28881226 260.1091272 147.84692383 259.11083984 C144.84697435 257.4524989 142.43031353 256.91823501 139.04199219 256.56030273 C142.10187324 259.79629205 145.39114051 262.36752765 148.97949219 264.99780273 C159.1025279 272.6280789 168.74504052 281.4328128 175.04199219 292.56030273 C172.06563014 291.22450626 170.00247361 289.7679567 167.72949219 287.43530273 C167.11976563 286.81010742 166.51003906 286.18491211 165.88183594 285.54077148 C164.12733498 283.65216855 162.45652056 281.71569839 160.79199219 279.74780273 C153.37369269 271.19592039 144.82939186 262.03372769 133.04199219 260.56030273 C133.37199219 262.87030273 133.70199219 265.18030273 134.04199219 267.56030273 C132.06199219 267.23030273 130.08199219 266.90030273 128.04199219 266.56030273 C127.79449219 267.44717773 127.54699219 268.33405273 127.29199219 269.24780273 C124.77541508 275.91673208 121.03032385 278.57037285 114.74121094 281.48999023 C101.3396365 286.8040733 86.78479974 285.45742576 73.60449219 280.18530273 C68.82017856 277.15134775 65.75448647 274.00914817 64.04199219 268.56030273 C62.72199219 268.56030273 61.40199219 268.56030273 60.04199219 268.56030273 C60.04199219 266.25030273 60.04199219 263.94030273 60.04199219 261.56030273 C47.7335649 262.0840656 39.7191571 272.57579611 31.72949219 280.87280273 C29.61711813 283.06509246 27.49486525 285.24711237 25.36621094 287.42358398 C24.89011887 287.92457108 24.41402679 288.42555817 23.92350769 288.94172668 C21.4480741 291.47153444 19.64076688 293.17402336 16.04199219 293.56030273 C20.26314957 287.58959329 24.91916391 282.33291525 30.10449219 277.18530273 C31.21135376 276.08037476 31.21135376 276.08037476 32.34057617 274.953125 C38.50903461 268.89109958 44.98429083 263.55592787 52.04199219 258.56030273 C50.2095556 257.88002607 50.2095556 257.88002607 48.04199219 257.56030273 C44.01033674 259.72545103 40.39008175 262.30319073 36.69042969 264.98217773 C35.4743706 265.86250591 34.25822311 266.74271198 33.04199219 267.62280273 C32.43677734 268.06197021 31.8315625 268.5011377 31.20800781 268.95361328 C26.99116358 271.97831765 22.80513838 274.46451841 18.04199219 276.56030273 C19.54510043 272.35824323 22.54507549 270.54581143 26.14355469 268.23217773 C26.74001801 267.83830872 27.33648132 267.4444397 27.95101929 267.03863525 C29.85072627 265.78704823 31.75859914 264.54859505 33.66699219 263.31030273 C34.95921932 262.46219775 36.25089289 261.61324867 37.54199219 260.76342773 C40.70232732 258.68588296 43.8700468 256.62007329 47.04199219 254.56030273 C45.92344633 250.8341612 45.92344633 250.8341612 43.04199219 248.56030273 C25.83634041 247.19477482 11.60638701 258.63936673 -1.52832031 268.34155273 C-5.907889 271.56384643 -10.40880094 274.58381017 -14.95800781 277.56030273 C-14.95800781 276.57030273 -14.95800781 275.58030273 -14.95800781 274.56030273 C-13.06519333 272.76012191 -11.21425057 271.20007156 -9.14550781 269.62280273 C-8.53690918 269.15060303 -7.92831055 268.67840332 -7.30126953 268.19189453 C0.75849473 262.07444731 9.40819519 256.81896927 18.04199219 251.56030273 C11.04405537 252.74213515 4.64672719 254.61039812 -1.95800781 257.18530273 C-3.62360422 257.82611235 -5.29022306 258.4642728 -6.95800781 259.09936523 C-7.67988281 259.37989746 -8.40175781 259.66042969 -9.14550781 259.94946289 C-10.95800781 260.56030273 -10.95800781 260.56030273 -12.95800781 260.56030273 C-12.95800781 259.90030273 -12.95800781 259.24030273 -12.95800781 258.56030273 C2.40121328 251.3962216 17.16849062 245.94133149 33.90917969 243.13842773 C36.93358463 242.73011992 36.93358463 242.73011992 39.04199219 241.56030273 C38.38199219 239.58030273 37.72199219 237.60030273 37.04199219 235.56030273 C10.51016207 239.85055611 -12.06323567 251.33268099 -35.20922852 264.68847656 C-36.95800781 265.56030273 -36.95800781 265.56030273 -38.95800781 265.56030273 C-38.95800781 264.90030273 -38.95800781 264.24030273 -38.95800781 263.56030273 C-19.23008523 252.16438301 0.08323886 241.82764891 22.04199219 235.56030273 C24.54578069 234.80131239 27.04345501 234.02404729 29.54199219 233.24780273 C31.37521205 232.68493304 33.20849886 232.122281 35.04199219 231.56030273 C10.65838739 230.66763345 -8.32152239 235.57340145 -29.95800781 246.56030273 C-28.01176746 242.01847951 -24.85002005 240.3519491 -20.64550781 238.06030273 C-19.91984619 237.66447998 -19.19418457 237.26865723 -18.4465332 236.86083984 C-5.33848657 229.90587298 7.40731226 228.68021938 22.0234375 227.79394531 C24.03665403 227.77267894 24.03665403 227.77267894 25.04199219 226.56030273 C11.21725261 226.30490752 -2.24943771 226.72469101 -15.95800781 228.56030273 C-17.03574463 228.70435547 -17.03574463 228.70435547 -18.13525391 228.85131836 C-22.08150966 229.3868361 -26.02162276 229.95668088 -29.95800781 230.56030273 C-27.25117418 226.83840648 -23.22289096 226.38936488 -18.95800781 225.56030273 C-16.00301454 225.17110213 -13.04831477 224.94501801 -10.07519531 224.74389648 C-9.25729523 224.68250992 -8.43939514 224.62112335 -7.59671021 224.55787659 C-5.00924112 224.36464336 -2.42122805 224.180674 0.16699219 223.99780273 C2.76221462 223.80987949 5.3572617 223.61993197 7.95211792 223.42701721 C9.55907978 223.30800981 11.16627237 223.19206436 12.77371216 223.07969666 C16.91516028 222.77786808 20.95276536 222.31998552 25.04199219 221.56030273 C5.17917822 213.00638907 -23.93929663 214.07273124 -44.44628906 219.68530273 C-47.48048038 220.44131926 -49.86131758 220.75197408 -52.95800781 220.56030273 C-52.95800781 219.90030273 -52.95800781 219.24030273 -52.95800781 218.56030273 C-49.6477441 217.73850973 -46.3344511 216.9296179 -43.02050781 216.12280273 C-41.6312207 215.77765625 -41.6312207 215.77765625 -40.21386719 215.42553711 C-28.80241016 212.6627633 -18.34149097 211.8761948 -6.70800781 213.56030273 C0.25921348 214.560652 7.01453973 214.77361495 14.04199219 214.56030273 C12.96820313 213.84745117 11.89441406 213.13459961 10.78808594 212.40014648 C-9.48428589 198.8178239 -16.95144548 184.37384979 -21.74316406 160.67749023 C-23.50004156 149.71736703 -23.01279143 138.80289676 -21.20800781 127.87280273 C-19.7243767 114.74643937 -26.87211568 101.51053322 -33.71972656 90.80639648 C-34.95800781 88.56030273 -34.95800781 88.56030273 -34.77050781 85.18530273 C-34.99842611 80.77888223 -36.44452826 79.99612579 -39.37597656 76.95483398 C-41.95182817 73.05607587 -42.56062088 68.61917351 -43.48388672 64.109375 C-44.63916446 58.57591854 -46.35719217 53.67983856 -48.80957031 48.56420898 C-51.92224582 40.42255094 -52.29790461 32.19577381 -52.27050781 23.56030273 C-52.28662109 22.54452148 -52.30273438 21.52874023 -52.31933594 20.48217773 C-52.32566289 10.61213681 -50.35776346 1.34427519 -43.95800781 -6.43969727 C-30.61473006 -17.05985711 -12.48625152 -8.39016874 0 0 Z " fill="#060606" transform="translate(52.9580078125,12.439697265625)"/>
<path d="M0 0 C3.39433835 2.38044508 5.79346211 5.29995068 8.40625 8.4921875 C10.4496571 10.73514607 12.39682514 12.15992483 14.96875 13.75 C22.47008419 18.44480054 26.8687613 24.70719374 30.40625 32.6875 C30.77105469 33.36296875 31.13585938 34.0384375 31.51171875 34.734375 C32.60600917 37.12365539 32.40625 39.09976644 32.40625 41.6875 C31.41625 41.6875 30.42625 41.6875 29.40625 41.6875 C29.40625 42.3475 29.40625 43.0075 29.40625 43.6875 C30.004375 43.914375 30.6025 44.14125 31.21875 44.375 C35.0956483 46.70113898 36.17899125 50.01768475 37.59375 54.1875 C38.30210218 57.23886323 38.57364469 59.59069827 38.40625 62.6875 C38.40625 64.0075 38.40625 65.3275 38.40625 66.6875 C38.79554687 66.26597656 39.18484375 65.84445313 39.5859375 65.41015625 C44.52782017 60.57075502 48.5833492 59.71495634 55.40625 59.6875 C55.2825 58.470625 55.15875 57.25375 55.03125 56 C54.8203125 53.92578125 54.8203125 53.92578125 55.40625 51.6875 C59.80224565 47.0426744 63.86538119 45.61138515 70.03125 44.375 C70.78148438 44.20677734 71.53171875 44.03855469 72.3046875 43.86523438 C75.76674281 43.11328087 78.84989737 42.6875 82.40625 42.6875 C83.9435914 45.76218279 83.62287401 48.2809128 83.40625 51.6875 C82.1640625 55.08984375 82.1640625 55.08984375 80.53125 58.625 C78.16446895 64.03100476 76.89474602 68.8744784 76.40625 74.75 C75.80876998 81.90141659 73.75210937 87.41133 70.6484375 93.796875 C69.14303788 96.77563506 69.14303788 96.77563506 69.40625 100.6875 C72.70625 101.0175 76.00625 101.3475 79.40625 101.6875 C81.08595238 98.03758328 81.61915145 95.33953088 81.4609375 91.3359375 C81.43644531 90.31886719 81.41195312 89.30179687 81.38671875 88.25390625 C81.31717086 86.14943863 81.23923506 84.04522915 81.15234375 81.94140625 C81.01060367 75.31297316 81.9369023 70.36626264 84.43554688 64.23242188 C85.81601842 60.61319769 86.32887297 57.08442162 86.71875 53.25 C86.80447266 52.57001953 86.89019531 51.89003906 86.97851562 51.18945312 C87.38877876 47.60228055 87.29694069 45.25026277 86.40625 41.6875 C89.37625 41.0275 92.34625 40.3675 95.40625 39.6875 C94.92685632 44.40153788 94.43790952 48.35329301 92.40625 52.6875 C96.98373509 49.8079024 96.98373509 49.8079024 100.40625 45.6875 C100.80012788 43.36362053 101.14111085 41.02956251 101.40625 38.6875 C105.99402866 37.50355712 110.70202583 37.0464253 115.40625 37.6875 C117.59375 39.3125 117.59375 39.3125 118.40625 41.6875 C117.69875757 45.01271443 116.56760272 47.4268533 114.78125 50.3125 C113.07222582 52.80706547 113.07222582 52.80706547 113.40625 56.6875 C114.355 55.8625 115.30375 55.0375 116.28125 54.1875 C119.15625 51.6875 119.15625 51.6875 121.40625 51.6875 C122.06625 52.6775 122.72625 53.6675 123.40625 54.6875 C124.39625 55.0175 125.38625 55.3475 126.40625 55.6875 C127.40625 57.35416667 128.40625 59.02083333 129.40625 60.6875 C130.39625 61.0175 131.38625 61.3475 132.40625 61.6875 C131.23582695 54.33021117 131.23582695 54.33021117 126.84375 48.875 C125.6371875 48.2871875 125.6371875 48.2871875 124.40625 47.6875 C123.15625 44.6875 123.15625 44.6875 122.40625 41.6875 C122.07625 40.6975 121.74625 39.7075 121.40625 38.6875 C127.50484495 38.92666059 127.50484495 38.92666059 129.984375 41.01953125 C133.40625 45.06088362 133.40625 45.06088362 133.40625 47.6875 C134.334375 47.605 135.2625 47.5225 136.21875 47.4375 C139.40625 47.6875 139.40625 47.6875 141.09375 49.625 C141.526875 50.305625 141.96 50.98625 142.40625 51.6875 C143.39625 52.0175 144.38625 52.3475 145.40625 52.6875 C144.91125 51.65625 144.41625 50.625 143.90625 49.5625 C142.43151098 46.16298422 142.13333894 43.41728451 142.40625 39.6875 C145.37625 40.3475 148.34625 41.0075 151.40625 41.6875 C151.08527344 43.58628906 151.08527344 43.58628906 150.7578125 45.5234375 C150.13598479 51.15504319 151.36722758 55.88644716 152.78125 61.3125 C155.44748848 72.35912036 156.21098779 83.0360933 156.28027344 94.37353516 C156.41712173 96.88719428 156.85960895 99.23304909 157.40625 101.6875 C160.70625 101.3575 164.00625 101.0275 167.40625 100.6875 C167.3753125 98.83125 167.3753125 98.83125 167.34375 96.9375 C167.33858319 94.0234175 167.47609442 91.47796673 168.40625 88.6875 C167.82875 88.64625 167.25125 88.605 166.65625 88.5625 C163.99474183 87.52746904 162.64371184 86.22306351 161.140625 83.80078125 C159.83362199 80.03967151 160.38719147 76.15986852 160.52734375 72.2265625 C160.30839674 65.82765968 158.26971398 59.41442795 155.40625 53.6875 C155.33559383 51.64694995 155.32203024 49.60415743 155.34375 47.5625 C155.35277344 46.46679688 155.36179688 45.37109375 155.37109375 44.2421875 C155.38849609 42.97761719 155.38849609 42.97761719 155.40625 41.6875 C156.38851562 41.97753906 156.38851562 41.97753906 157.390625 42.2734375 C162.55733582 43.74755556 167.43155843 44.82410124 172.78125 45.375 C176.04567411 45.8752624 177.83547708 46.15971416 180.2734375 48.4140625 C182.67950464 52.04355361 184.09948562 55.250792 183.40625 59.6875 C184.2725 59.605 185.13875 59.5225 186.03125 59.4375 C191.88377056 59.87102004 195.53972196 63.52354673 199.40625 67.6875 C199.34824219 67.00945312 199.29023438 66.33140625 199.23046875 65.6328125 C198.79669267 56.68463155 201.52599575 51.00788138 206.40625 43.6875 C206.40625 42.3675 206.40625 41.0475 206.40625 39.6875 C206.73625 39.0275 207.06625 38.3675 207.40625 37.6875 C206.74625 37.6875 206.08625 37.6875 205.40625 37.6875 C210.79383775 26.70207717 215.59798958 18.96792596 226.28125 12.875 C230.15154485 10.65163913 233.0636379 8.21756612 236.15625 5 C240.52383949 0.45648309 244.00158932 -2.38368803 250.46875 -2.625 C256.54100177 -2.14307526 256.54100177 -2.14307526 259.40625 -0.3125 C266.40431765 9.48479471 266.7622811 22.0465953 265.40625 33.6875 C261.60414472 53.24552954 261.60414472 53.24552954 256.40625 57.6875 C254.60903733 58.7960098 252.79475107 59.87708147 250.96875 60.9375 C246.02531234 64.04760978 243.4114055 66.17332238 241.40625 71.6875 C241.47667763 75.20888145 241.96232893 77.04825365 243.96875 79.9375 C246.17325574 84.15481533 246.29660945 88.03626224 245.40625 92.6875 C244.13282274 94.94999697 242.68329591 96.7807976 241 98.75390625 C237.63991975 102.8304742 235.62776711 107.5496663 234.28125 112.625 C233.9925 113.635625 233.70375 114.64625 233.40625 115.6875 C232.74625 116.0175 232.08625 116.3475 231.40625 116.6875 C227.97767857 109.40178571 227.97767857 109.40178571 228.40625 104.6875 C229.540625 104.11 230.675 103.5325 231.84375 102.9375 C234.77935297 101.33257365 234.77935297 101.33257365 236.34375 98.4375 C236.364375 97.86 236.385 97.2825 236.40625 96.6875 C235.74625 96.6875 235.08625 96.6875 234.40625 96.6875 C235.89125 92.2325 235.89125 92.2325 237.40625 87.6875 C235.42625 88.6775 235.42625 88.6775 233.40625 89.6875 C232.41625 89.6875 231.42625 89.6875 230.40625 89.6875 C230.73625 87.7075 231.06625 85.7275 231.40625 83.6875 C227.93653623 87.71097588 227.93653623 87.71097588 226.40625 92.6875 C228.38625 92.6875 230.36625 92.6875 232.40625 92.6875 C231.74625 94.6675 231.08625 96.6475 230.40625 98.6875 C231.06625 99.3475 231.72625 100.0075 232.40625 100.6875 C229.40625 102.6875 229.40625 102.6875 226.40625 102.6875 C224.69757539 98.63358573 223.0180993 94.56819809 221.34375 90.5 C220.85841797 89.34951172 220.37308594 88.19902344 219.87304688 87.01367188 C219.41865234 85.90185547 218.96425781 84.79003906 218.49609375 83.64453125 C218.07191162 82.62335205 217.64772949 81.60217285 217.21069336 80.55004883 C216.32953762 77.41452498 216.37613939 75.75313855 217.40625 72.6875 C219.375 70.84375 219.375 70.84375 221.90625 69.1875 C222.80085937 68.59839844 223.69546875 68.00929688 224.6171875 67.40234375 C228.47764574 65.02875668 232.39258785 62.79127943 236.40625 60.6875 C233.76625 60.6875 231.12625 60.6875 228.40625 60.6875 C232.36868414 56.17852322 236.95208848 53.32897974 242.078125 50.23828125 C244.50791576 48.89789778 244.50791576 48.89789778 245.40625 46.6875 C239.85765484 47.18070846 235.21736489 48.7692718 230.0546875 50.84765625 C227.34340444 51.7074289 225.2301341 51.84551518 222.40625 51.6875 C222.40625 51.0275 222.40625 50.3675 222.40625 49.6875 C223.9375 48.3984375 223.9375 48.3984375 225.90625 47.0625 C226.5559375 46.61648437 227.205625 46.17046875 227.875 45.7109375 C228.3803125 45.37320313 228.885625 45.03546875 229.40625 44.6875 C227.83817495 45.57353852 226.27704475 46.47187151 224.71875 47.375 C223.84863281 47.87386719 222.97851562 48.37273438 222.08203125 48.88671875 C219.14169651 50.86554257 216.83626531 53.1173757 214.40625 55.6875 C214.94515869 55.54127197 215.48406738 55.39504395 216.03930664 55.24438477 C218.51465636 54.57532112 220.99166897 53.91262374 223.46875 53.25 C224.31630859 53.01990234 225.16386719 52.78980469 226.03710938 52.55273438 C230.82313168 51.27769368 235.48639317 50.26827007 240.40625 49.6875 C236.98046089 53.7128022 232.07292618 55.53772043 227.4375 57.87109375 C224.56111816 59.59469885 223.13995066 60.87023642 221.40625 63.6875 C223.05625 63.6875 224.70625 63.6875 226.40625 63.6875 C224.02094434 67.26545849 222.0918637 67.9438469 218.28125 69.625 C216.08267241 70.68490267 216.08267241 70.68490267 214.40625 73.6875 C213.43534858 81.31601118 216.32961587 86.82547833 219.40625 93.6875 C220.4208408 96.12039313 221.42400221 98.55422841 222.40625 101 C222.65536133 101.61963623 222.90447266 102.23927246 223.16113281 102.87768555 C230.40625 121.15727596 230.40625 121.15727596 230.40625 124.6875 C228.75625 124.6875 227.10625 124.6875 225.40625 124.6875 C225.40625 125.6775 225.40625 126.6675 225.40625 127.6875 C226.39625 128.0175 227.38625 128.3475 228.40625 128.6875 C228.40625 129.6775 228.40625 130.6675 228.40625 131.6875 C227.41625 131.6875 226.42625 131.6875 225.40625 131.6875 C225.73625 133.9975 226.06625 136.3075 226.40625 138.6875 C228.38625 138.3575 230.36625 138.0275 232.40625 137.6875 C235.11804637 141.75519456 234.93608689 144.91128916 234.40625 149.6875 C233.60428896 152.49668144 232.57917811 154.99953976 231.40625 157.6875 C230.04402017 157.08206452 228.71763904 156.39635894 227.40625 155.6875 C226.560625 155.23375 225.715 154.78 224.84375 154.3125 C221.00839762 150.18212051 220.45565221 145.11367728 219.40625 139.6875 C218.106875 139.873125 216.8075 140.05875 215.46875 140.25 C209.32394539 140.91560678 203.85221282 140.84925768 198.20703125 138.16796875 C193.90331096 136.26147596 189.87326002 136.19188892 185.21875 136.25 C183.96626465 136.25918457 183.96626465 136.25918457 182.68847656 136.26855469 C175.71133326 136.44372437 169.78283652 137.78905158 163.40625 140.6875 C162.71144531 140.94144531 162.01664063 141.19539062 161.30078125 141.45703125 C156.0623234 143.72442345 154.73360374 147.66095442 152.5949707 152.56030273 C150.68825698 157.57634219 149.57947696 162.69773985 148.46875 167.9375 C146.83203194 175.25500489 145.09905893 182.24387257 142.09375 189.125 C139.66471351 194.70607601 138.43491333 199.59654302 138.40625 205.6875 C135.48639819 205.00661019 133.05502696 204.10648766 130.40625 202.6875 C130.40625 201.0375 130.40625 199.3875 130.40625 197.6875 C129.91253906 198.25339844 129.41882813 198.81929687 128.91015625 199.40234375 C128.26949219 200.13582031 127.62882813 200.86929688 126.96875 201.625 C126.33066406 202.35589844 125.69257813 203.08679688 125.03515625 203.83984375 C122.53773798 206.67264673 122.53773798 206.67264673 120.296875 206.92578125 C113.13387722 207.12710811 113.13387722 207.12710811 109.40625 204.875 C107.40625 202.6875 107.40625 202.6875 105.40625 199.6875 C105.07625 201.0075 104.74625 202.3275 104.40625 203.6875 C103.08625 203.6875 101.76625 203.6875 100.40625 203.6875 C100.40625 204.6775 100.40625 205.6675 100.40625 206.6875 C98.43359375 205.9921875 98.43359375 205.9921875 96.40625 204.6875 C95.97265625 202.5078125 95.97265625 202.5078125 95.96875 199.8125 C95.76047292 195.41492074 94.96246968 192.23522555 93.09375 188.26171875 C89.74915597 180.55634594 88.14027508 172.55744098 86.42407227 164.3737793 C84.30029513 151.99754855 84.30029513 151.99754855 76.6015625 142.76171875 C75.08175781 142.07529297 75.08175781 142.07529297 73.53125 141.375 C72.52320312 140.90449219 71.51515625 140.43398437 70.4765625 139.94921875 C69.46335937 139.53285156 68.45015625 139.11648437 67.40625 138.6875 C66.49617188 138.30722656 65.58609375 137.92695313 64.6484375 137.53515625 C60.19940836 136.37197634 55.98451242 136.39710357 51.40625 136.4375 C50.09140625 136.42589844 50.09140625 136.42589844 48.75 136.4140625 C43.85983729 136.42879191 40.02134205 136.91872023 35.40625 138.6875 C33.02734375 139.06640625 33.02734375 139.06640625 30.84375 139.25 C28.34406633 139.48067551 26.05117968 139.76640452 23.59375 140.3125 C21.20410507 140.72215342 19.68778164 140.44801055 17.40625 139.6875 C15.44329666 142.63193001 15.13022816 143.77893993 14.65625 147.125 C13.88349644 150.9269475 13.59936313 151.5231484 10.46875 154.1875 C7.40625 155.6875 7.40625 155.6875 4.40625 156.6875 C1.79396743 150.80986422 0.17902465 145.16051214 1.40625 138.6875 C4.8414548 136.39736347 6.391581 136.50907027 10.40625 136.6875 C10.73625 134.3775 11.06625 132.0675 11.40625 129.6875 C10.08625 129.3575 8.76625 129.0275 7.40625 128.6875 C8.39625 127.3675 9.38625 126.0475 10.40625 124.6875 C9.08625 124.3575 7.76625 124.0275 6.40625 123.6875 C7.0291135 118.88996807 8.40769343 114.6087441 10.15625 110.125 C10.42356934 109.42463623 10.69088867 108.72427246 10.96630859 108.00268555 C12.21742438 104.73159321 13.49171772 101.47016781 14.7734375 98.2109375 C21.08731539 84.75968118 21.08731539 84.75968118 21.40625 70.6875 C18.37836263 67.82782859 15.01365723 65.74887556 11.40625 63.6875 C12.39625 63.0275 13.38625 62.3675 14.40625 61.6875 C14.40625 61.0275 14.40625 60.3675 14.40625 59.6875 C12.34589679 58.31194627 10.29905434 57.04679201 8.15625 55.8125 C4.11657292 53.47747786 0.56718862 51.17705105 -2.59375 47.6875 C-2.0575 47.85765625 -1.52125 48.0278125 -0.96875 48.203125 C7.0761437 50.69069081 15.22958536 52.68898519 23.40625 54.6875 C20.05600486 51.14126246 16.74714922 48.42708868 12.59375 45.875 C11.61792969 45.27042969 10.64210937 44.66585937 9.63671875 44.04296875 C8.90066406 43.59566406 8.16460937 43.14835937 7.40625 42.6875 C7.98375 43.18121094 8.56125 43.67492188 9.15625 44.18359375 C10.27 45.14458984 10.27 45.14458984 11.40625 46.125 C12.52 47.08212891 12.52 47.08212891 13.65625 48.05859375 C14.23375 48.59613281 14.81125 49.13367187 15.40625 49.6875 C15.40625 50.0175 15.40625 50.3475 15.40625 50.6875 C9.29386113 50.29941182 4.91926808 49.20793522 -0.57421875 46.54296875 C-3.00427445 45.51360279 -4.98122487 45.35039998 -7.59375 45.6875 C-4.51261435 49.01482808 -1.21810614 51.37031202 2.59375 53.8125 C8.29592972 57.46685943 8.29592972 57.46685943 9.40625 59.6875 C6.43625 59.3575 3.46625 59.0275 0.40625 58.6875 C3.52019079 61.80144079 6.56312656 63.40247721 10.46875 65.25 C17.15118243 68.43243243 17.15118243 68.43243243 19.40625 70.6875 C20.85416851 81.36589905 15.15272418 91.40835679 10.40625 100.6875 C7.43625 100.1925 7.43625 100.1925 4.40625 99.6875 C4.73625 99.0275 5.06625 98.3675 5.40625 97.6875 C6.06625 97.6875 6.72625 97.6875 7.40625 97.6875 C6.91125 97.06875 6.41625 96.45 5.90625 95.8125 C4.40625 93.6875 4.40625 93.6875 4.40625 91.6875 C6.71625 91.6875 9.02625 91.6875 11.40625 91.6875 C8.93125 87.7275 8.93125 87.7275 6.40625 83.6875 C6.40625 85.3375 6.40625 86.9875 6.40625 88.6875 C4.42625 88.3575 2.44625 88.0275 0.40625 87.6875 C0.92893466 90.45026177 1.51494587 93.0135876 2.40625 95.6875 C1.41625 96.1825 1.41625 96.1825 0.40625 96.6875 C2.98409846 99.33502004 5.32273098 101.63182065 8.40625 103.6875 C7.54910714 112.25892857 7.54910714 112.25892857 5.40625 115.6875 C4.74625 115.6875 4.08625 115.6875 3.40625 115.6875 C3.18710937 114.85347656 2.96796875 114.01945312 2.7421875 113.16015625 C0.36838739 104.73606073 -2.72599508 98.36999034 -8.28125 91.64453125 C-9.59375 89.6875 -9.59375 89.6875 -9.53125 86.4375 C-8.76082014 83.35578055 -8.00633502 81.40587097 -6.53125 78.6875 C-4.50946063 74.85869009 -3.93289072 72.06569275 -4.59375 67.6875 C-6.74644611 63.67565725 -9.69153923 61.95883511 -13.53125 59.75 C-20.46616542 55.68083639 -23.37347666 52.51743207 -25.40625 44.75 C-26.64939275 38.12461419 -26.87342212 31.60794422 -26.90625 24.875 C-26.91180908 23.90892822 -26.91736816 22.94285645 -26.9230957 21.94750977 C-26.84203251 13.88206886 -26.13648475 5.58572685 -21.59375 -1.3125 C-14.78768837 -5.71642223 -6.62250363 -3.59740938 0 0 Z " fill="#F8F8F8" transform="translate(31.59375,12.3125)"/>
<path d="M0 0 C0 11.22 0 22.44 0 34 C9.57 34 19.14 34 29 34 C28.68594236 28.10430214 28.68594236 28.10430214 28.27929688 22.21484375 C28.15067102 17.37685185 28.94859657 14.23363472 32.03515625 10.44140625 C37.50083878 5.64123742 43.85348147 5.75762816 50.78100586 5.90209961 C52.93428254 5.93744718 55.07224657 5.8820766 57.22460938 5.81835938 C63.94128823 5.76321375 69.19155207 6.22991024 74.43359375 10.91015625 C78.58420339 15.90978797 79.37509771 20.1364028 79.125 26.5 C79.15980469 27.38558594 79.19460937 28.27117187 79.23046875 29.18359375 C79.15979834 34.53098807 77.86250806 37.96183858 74.4375 42.09375 C68.62063484 47.28939655 62.42315554 47.30266141 55.03369141 47.06347656 C52.8686234 46.9998125 50.7163209 47.0223001 48.55078125 47.0546875 C37.11018783 47.01905011 37.11018783 47.01905011 32.5078125 42.4375 C30.97314453 40.49609375 30.97314453 40.49609375 30 39 C29.47269287 39.45060791 28.94538574 39.90121582 28.40209961 40.36547852 C27.14436849 41.44026693 25.88663737 42.51505534 24.62890625 43.58984375 C23.73008851 44.36795695 22.84063472 45.15936528 22 46 C19.3339846 46.08854347 16.69330601 46.115319 14.02734375 46.09765625 C13.32065552 46.09664917 12.61396729 46.09564209 11.88586426 46.09460449 C9.23639309 46.08935745 6.58694498 46.07539629 3.9375 46.0625 C-1.981875 46.041875 -7.90125 46.02125 -14 46 C-14.33 34.12 -14.66 22.24 -15 10 C-17.97 12.97 -20.94 15.94 -24 19 C-28.50375924 19.66975931 -31.65768081 19.88765069 -36.0625 19.5625 C-37.11888672 19.52189453 -38.17527344 19.48128906 -39.26367188 19.43945312 C-41.8473735 19.33423451 -44.42115592 19.18710453 -47 19 C-47 19.66 -47 20.32 -47 21 C-37.76 21 -28.52 21 -19 21 C-23.28421053 29.56842105 -23.28421053 29.56842105 -28 32 C-34.27925746 32.90124164 -40.69496457 32.39682041 -47 32 C-47 32.66 -47 33.32 -47 34 C-36.44 34 -25.88 34 -15 34 C-17.61348298 39.22696596 -19.86090825 43.00044849 -25 46 C-31.0337874 47.32622616 -37.3745211 46.75205775 -43.5 46.5 C-45.19783273 46.45982228 -46.89575687 46.42332903 -48.59375 46.390625 C-52.73144306 46.30295764 -56.8647067 46.1652084 -61 46 C-61.495 41.545 -61.495 41.545 -62 37 C-62.48654053 37.63736084 -62.97308105 38.27472168 -63.47436523 38.93139648 C-67.82068362 43.99740548 -70.94245836 46.5985449 -77.72265625 47.16015625 C-80.16944454 47.17463429 -82.61693026 47.14105701 -85.0625 47.0625 C-86.29033203 47.08892578 -87.51816406 47.11535156 -88.78320312 47.14257812 C-94.76755165 47.06845857 -99.17765299 46.65812298 -103.80859375 42.65234375 C-107.99903819 37.63778788 -108.19703625 32.82978956 -108 26.5 C-108.0309375 25.50613281 -108.061875 24.51226562 -108.09375 23.48828125 C-108.04078027 18.4760203 -107.39443835 14.63055828 -104.14990234 10.70361328 C-98.02778393 4.97901523 -90.22860425 5.9874379 -82.34776688 6.15235519 C-79.49543885 6.21184738 -76.64645708 6.22241093 -73.79354858 6.22109985 C-67.73665603 6.2277704 -61.68136459 6.29995732 -55.625 6.375 C-48.60888618 6.45313168 -41.5936572 6.50398574 -34.57709885 6.50993729 C-31.78119348 6.52317877 -28.98768057 6.57385822 -26.19229126 6.62704468 C-16.42496376 6.71496186 -7.82438056 0 0 0 Z M-62 10 C-62.47050781 10.56589844 -62.94101563 11.13179688 -63.42578125 11.71484375 C-67.20463948 16.16654217 -69.87141187 18.51264511 -75.8125 19 C-77.87462357 19.03940364 -79.93786336 19.03871345 -82 19 C-83.06089844 19.01160156 -84.12179688 19.02320313 -85.21484375 19.03515625 C-87.80981699 19.05853439 -90.40514607 19.03414281 -93 19 C-93 23.95 -93 28.9 -93 34 C-82.44 34 -71.88 34 -61 34 C-61 26.08 -61 18.16 -61 10 C-61.33 10 -61.66 10 -62 10 Z M43 19 C43 23.95 43 28.9 43 34 C49.6 34 56.2 34 63 34 C63 29.05 63 24.1 63 19 C56.4 19 49.8 19 43 19 Z " fill="#060606" transform="translate(167,304)"/>
<path d="M0 0 C0.79921875 0.20367187 1.5984375 0.40734375 2.421875 0.6171875 C3.02515625 0.78476563 3.6284375 0.95234375 4.25 1.125 C4.42015625 1.93324219 4.5903125 2.74148437 4.765625 3.57421875 C6.4799544 11.13368188 7.82988804 15.57810811 14.1875 20.3125 C17.59172111 22.17532486 20.72754796 22.48248138 24.5625 22.875 C31.82675984 23.7893237 36.20352292 26.95568778 41.25 32.125 C43.75552308 35.88328462 43.62195709 37.66151494 43.25 42.125 C42.39335512 44.5414318 41.32668585 46.79218067 40.25 49.125 C40.25 50.115 40.25 51.105 40.25 52.125 C40.63671875 51.691875 41.0234375 51.25875 41.421875 50.8125 C41.94265625 50.255625 42.4634375 49.69875 43 49.125 C43.51046875 48.568125 44.0209375 48.01125 44.546875 47.4375 C46.25 46.125 46.25 46.125 50.25 46.125 C51.26132916 48.99645245 52.25924402 51.87145223 53.25 54.75 C53.53617187 55.55824219 53.82234375 56.36648437 54.1171875 57.19921875 C55.62882989 61.62617145 56.7292426 65.37750303 56.25 70.125 C55.92 70.455 55.59 70.785 55.25 71.125 C55.19884557 73.09642933 55.19884557 73.09642933 55.4375 75.375 C55.49292969 76.14328125 55.54835938 76.9115625 55.60546875 77.703125 C57.21635845 83.75616508 62.34608851 86.8686394 67.25 90.1875 C75.22551701 95.63521193 75.22551701 95.63521193 78.25 99.125 C78.4375 101.125 78.4375 101.125 77.25 103.125 C71.72944561 106.85431068 66.5697333 108.2083836 60.0625 109.375 C59.17369141 109.54773438 58.28488281 109.72046875 57.36914062 109.8984375 C53.54709021 110.62207139 50.16224915 111.125 46.25 111.125 C46.25 110.465 46.25 109.805 46.25 109.125 C50.10756507 106.97194043 52.80129785 105.73246746 57.25 106.125 C57.25 104.805 57.25 103.485 57.25 102.125 C56.26 102.785 55.27 103.445 54.25 104.125 C53.38375 103.939375 52.5175 103.75375 51.625 103.5625 C47.53792912 103.03269452 45.1507357 104.0039988 41.3984375 105.53125 C38.94397269 106.20957482 37.628115 105.9428133 35.25 105.125 C35.25 103.805 35.25 102.485 35.25 101.125 C36.3946875 101.2178125 36.3946875 101.2178125 37.5625 101.3125 C40.29525312 101.38398085 40.29525312 101.38398085 42.0625 99.625 C42.454375 99.13 42.84625 98.635 43.25 98.125 C43.91 98.455 44.57 98.785 45.25 99.125 C45.58 97.475 45.91 95.825 46.25 94.125 C45.13625 94.310625 44.0225 94.49625 42.875 94.6875 C39.25 95.125 39.25 95.125 37.25 94.125 C35.54636178 93.89877919 33.83671299 93.71611527 32.125 93.5625 C30.75988281 93.43681641 30.75988281 93.43681641 29.3671875 93.30859375 C28.66851562 93.24800781 27.96984375 93.18742187 27.25 93.125 C26.86866701 91.1335944 26.53674418 89.13220923 26.25 87.125 C27.94197419 85.43302581 30.18359541 85.79842066 32.5 85.625 C36.16128954 85.34792944 39.66162583 84.91077537 43.25 84.125 C42.39320686 81.83482592 42.39320686 81.83482592 39.625 81.1875 C38.51125 80.836875 37.3975 80.48625 36.25 80.125 C33.89536057 79.16901639 31.57650882 78.14866388 29.25 77.125 C29.25 76.465 29.25 75.805 29.25 75.125 C28.26 75.785 27.27 76.445 26.25 77.125 C14.47362376 75.98065249 3.15923456 69.43793986 -5.75 62.125 C-6.70519531 61.3928125 -7.66039063 60.660625 -8.64453125 59.90625 C-13.80571102 55.92167485 -13.80571102 55.92167485 -15.75 54.125 C-15.75 53.465 -15.75 52.805 -15.75 52.125 C-15.09 52.125 -14.43 52.125 -13.75 52.125 C-13.42 51.135 -13.09 50.145 -12.75 49.125 C-11.43 50.445 -10.11 51.765 -8.75 53.125 C-8.75 52.135 -8.75 51.145 -8.75 50.125 C-7.1 50.455 -5.45 50.785 -3.75 51.125 C-3.42 50.135 -3.09 49.145 -2.75 48.125 C-1.1 48.785 0.55 49.445 2.25 50.125 C2.25 49.465 2.25 48.805 2.25 48.125 C3.136875 48.455 4.02375 48.785 4.9375 49.125 C7.99077373 50.04674301 10.11240276 50.21052224 13.25 50.125 C-5.2237389 37.26033324 -5.2237389 37.26033324 -26.75 33.125 C-27.44937202 31.6932384 -28.13412718 30.25432968 -28.8125 28.8125 C-29.19535156 28.01199219 -29.57820313 27.21148437 -29.97265625 26.38671875 C-30.75 24.125 -30.75 24.125 -29.75 21.125 C-27.64738358 20.40964703 -25.51656577 19.77607602 -23.375 19.1875 C-19.78074355 18.04386197 -19.78074355 18.04386197 -16.75 16.125 C-15.26680279 12.95713082 -14.78359256 10.33676541 -14.4375 6.8671875 C-13.75 4.125 -13.75 4.125 -11.4375 2.3828125 C-10.550625 1.96773437 -9.66375 1.55265625 -8.75 1.125 C-8.08484375 0.71507812 -7.4196875 0.30515625 -6.734375 -0.1171875 C-4.13550004 -1.10967125 -2.6643201 -0.7052612 0 0 Z " fill="#F8F8F8" transform="translate(68.75,157.875)"/>
<path d="M0 0 C1.03125 0.2475 2.0625 0.495 3.125 0.75 C6.76771205 3.60081813 6.47980279 4.90902555 7.125 9.375 C7.62716175 12.88270126 7.62716175 12.88270126 9 16 C12.7689778 18.58593755 16.629484 19.77364626 21 21 C22 22 22 22 22.25 24.75 C21.9515153 28.63030111 21.82158556 30.25903117 19 33 C16.25806721 33.19455959 13.5966998 33.05253561 10.8515625 32.92578125 C5.36415897 33.06860408 1.50753965 35.95127677 -2.875 39 C-6.36744083 41.23516213 -9.85660086 42.63025715 -13.73046875 44.0703125 C-16.2159677 45.00105086 -16.2159677 45.00105086 -19 47 C-19 47.66 -19 48.32 -19 49 C-14.545 48.505 -14.545 48.505 -10 48 C-10 48.66 -10 49.32 -10 50 C-9.01 49.34 -8.02 48.68 -7 48 C-3.3125 48.375 -3.3125 48.375 0 49 C0 49.66 0 50.32 0 51 C1.65 50.34 3.3 49.68 5 49 C5 49.66 5 50.32 5 51 C6.485 51.495 6.485 51.495 8 52 C-17.52988595 72.83134094 -17.52988595 72.83134094 -32.8125 71.8125 C-35.93379175 72.08003929 -36.85866524 73.79377631 -39 76 C-40.97746603 76.73080266 -42.98072489 77.39421747 -45 78 C-47.01470098 78.97004121 -49.01922047 79.96244882 -51 81 C-47.4602993 83.35980046 -45.00893712 83.58600808 -40.8125 84.125 C-39.54019531 84.29257813 -38.26789063 84.46015625 -36.95703125 84.6328125 C-35.49330078 84.81457031 -35.49330078 84.81457031 -34 85 C-34.33 86.98 -34.66 88.96 -35 91 C-35.73605469 91.06058594 -36.47210938 91.12117188 -37.23046875 91.18359375 C-38.20628906 91.26738281 -39.18210938 91.35117188 -40.1875 91.4375 C-41.15042969 91.51871094 -42.11335938 91.59992188 -43.10546875 91.68359375 C-45.97623084 91.9542458 -45.97623084 91.9542458 -48.67578125 92.53515625 C-51 93 -51 93 -54 93 C-54.33 94.65 -54.66 96.3 -55 98 C-52.525 97.505 -52.525 97.505 -50 97 C-49.67 97.66 -49.34 98.32 -49 99 C-46.47266765 99.65555119 -46.47266765 99.65555119 -44 100 C-44.495 101.98 -44.495 101.98 -45 104 C-45.90363281 103.83242188 -46.80726563 103.66484375 -47.73828125 103.4921875 C-48.91777344 103.28851563 -50.09726563 103.08484375 -51.3125 102.875 C-53.07013672 102.56175781 -53.07013672 102.56175781 -54.86328125 102.2421875 C-58.16286272 101.66288712 -58.16286272 101.66288712 -61 104 C-60.01 104.639375 -59.02 105.27875 -58 105.9375 C-57.01 106.618125 -56.02 107.29875 -55 108 C-55 108.33 -55 108.66 -55 109 C-61.9436882 109.48374025 -68.23986896 107.69059021 -74.9375 106 C-76.09830078 105.71382813 -77.25910156 105.42765625 -78.45507812 105.1328125 C-81.30525417 104.42906533 -84.15337266 103.71794201 -87 103 C-87.495 100.525 -87.495 100.525 -88 98 C-86.99839844 97.20335937 -85.99679688 96.40671875 -84.96484375 95.5859375 C-83.62234257 94.51569181 -82.27989767 93.44537552 -80.9375 92.375 C-80.28072266 91.85292969 -79.62394531 91.33085937 -78.94726562 90.79296875 C-76.95704824 89.20471645 -74.97671803 87.60501493 -73 86 C-72.34402832 85.4730957 -71.68805664 84.94619141 -71.01220703 84.40332031 C-70.39071777 83.89124023 -69.76922852 83.37916016 -69.12890625 82.8515625 C-68.29661499 82.172146 -68.29661499 82.172146 -67.44750977 81.47900391 C-64.8998925 78.87595695 -64.04329595 76.67830317 -63.8125 73.0625 C-63.88899973 70.10389567 -63.88899973 70.10389567 -64.6171875 67.7421875 C-65.12117585 64.13198526 -64.33165521 61.55187528 -63.3125 58.0625 C-62.81169922 56.28552734 -62.81169922 56.28552734 -62.30078125 54.47265625 C-60.91699553 50.77840549 -59.30164821 48.17385174 -57 45 C-54.62051228 45.17625835 -53.29774151 45.69719773 -51.62109375 47.40234375 C-50.37884514 48.90649092 -49.18623944 50.45129851 -48 52 C-48.41863591 49.48818454 -48.80972369 47.35916497 -50.0078125 45.09765625 C-51.73898676 41.43765398 -51.74877205 37.9444242 -51 34 C-49.43281561 31.15371658 -47.40627689 29.15842005 -45 27 C-44.41992188 26.44054687 -43.83984375 25.88109375 -43.2421875 25.3046875 C-39.28329719 21.87585782 -36.13422884 20.63818254 -30.9375 19.9375 C-25.43697514 19.19119763 -21.63675995 18.3749142 -18 14 C-16.13555691 10.67535147 -14.44729457 7.3340676 -12.87109375 3.86328125 C-11 1 -11 1 -7.94140625 -0.40625 C-4.74371255 -1.05173399 -3.08526091 -1.0027098 0 0 Z " fill="#F8F8F8" transform="translate(238,159)"/>
<path d="M0 0 C2.16340809 0.04295576 4.31355968 0.00034427 6.4765625 -0.05078125 C12.77108064 -0.08093507 18.16646898 0.11579557 23.1015625 4.38671875 C27.15925893 9.40074451 27.35865989 14.29152753 27.1640625 20.54296875 C27.21046875 22.03376953 27.21046875 22.03376953 27.2578125 23.5546875 C27.20228589 28.80889337 26.4513848 32.55990089 23.1015625 36.69921875 C17.63796799 41.42751667 11.20787129 41.24854969 4.328125 41.0859375 C2.16471691 41.04298174 0.01456532 41.08559323 -2.1484375 41.13671875 C-8.44295564 41.16687257 -13.83834398 40.97014193 -18.7734375 36.69921875 C-22.83113393 31.68519299 -23.03053489 26.79440997 -22.8359375 20.54296875 C-22.866875 19.54910156 -22.8978125 18.55523437 -22.9296875 17.53125 C-22.87416089 12.27704413 -22.1232598 8.52603661 -18.7734375 4.38671875 C-13.30984299 -0.34157917 -6.87974629 -0.16261219 0 0 Z M-7.8359375 13.04296875 C-7.8359375 17.99296875 -7.8359375 22.94296875 -7.8359375 28.04296875 C-1.2359375 28.04296875 5.3640625 28.04296875 12.1640625 28.04296875 C12.1640625 23.09296875 12.1640625 18.14296875 12.1640625 13.04296875 C5.5640625 13.04296875 -1.0359375 13.04296875 -7.8359375 13.04296875 Z " fill="#ECECEC" transform="translate(29.8359375,309.95703125)"/>
<path d="M0 0 C1.14339844 0.309375 2.28679687 0.61875 3.46484375 0.9375 C5.42671282 1.46835284 7.3866293 2.00329049 9.34228516 2.55664062 C13.97968692 3.83865669 18.34314291 4.46690979 23.14453125 4.53125 C25 5 25 5 26.26171875 7.03125 C26.50535156 7.6809375 26.74898438 8.330625 27 9 C26.13375 9.7734375 26.13375 9.7734375 25.25 10.5625 C22.81855548 12.98686585 22.81855548 12.98686585 21.1875 16.4375 C17.79665392 22.50464606 12.99630905 24.93481166 6.4375 26.8125 C-5.14617824 29.34960099 -17.45704127 29.35575179 -27.75 22.875 C-31.7624381 19.73938923 -34.77365195 15.55871267 -37 11 C-37 9.68 -37 8.36 -37 7 C-36.07960938 6.75765625 -35.15921875 6.5153125 -34.2109375 6.265625 C-32.31214844 5.76289063 -32.31214844 5.76289063 -30.375 5.25 C-29.70073975 5.07315674 -29.02647949 4.89631348 -28.33178711 4.71411133 C-24.92041787 3.81144115 -21.53287296 2.87243934 -18.16796875 1.80859375 C-6.518294 -1.81378616 -6.518294 -1.81378616 0 0 Z " fill="#FAFAFA" transform="translate(155,266)"/>
<path d="M0 0 C1.86785156 -0.04060547 1.86785156 -0.04060547 3.7734375 -0.08203125 C9.40787693 -0.03998319 13.94067711 0.01058751 18.3203125 3.8359375 C21.75435079 8.07931961 22.0510397 12.06866038 21.875 17.375 C21.90207031 18.19097656 21.92914063 19.00695312 21.95703125 19.84765625 C21.90693805 24.30595095 21.15506552 27.4112069 18.3203125 30.9140625 C13.0399845 35.5261137 6.65876427 34.89475575 0 34.75 C-1.24523437 34.77707031 -2.49046875 34.80414063 -3.7734375 34.83203125 C-9.40787693 34.78998319 -13.94067711 34.73941249 -18.3203125 30.9140625 C-21.75435079 26.67068039 -22.0510397 22.68133962 -21.875 17.375 C-21.90207031 16.55902344 -21.92914063 15.74304688 -21.95703125 14.90234375 C-21.90693805 10.44404905 -21.15506552 7.3387931 -18.3203125 3.8359375 C-13.0399845 -0.7761137 -6.65876427 -0.14475575 0 0 Z M-10 9.875 C-10 14.825 -10 19.775 -10 24.875 C-3.4 24.875 3.2 24.875 10 24.875 C10 19.925 10 14.975 10 9.875 C3.4 9.875 -3.2 9.875 -10 9.875 Z " fill="#EDEDED" transform="translate(220,313.125)"/>
<path d="M0 0 C17.82 0 35.64 0 54 0 C52.32119831 3.35760339 50.96729347 5.51979821 48.5 8.25 C47.58734375 9.30960937 47.58734375 9.30960937 46.65625 10.390625 C42.60469302 12.84539188 38.6219309 12.30026981 34 12 C34.05236816 12.78648926 34.10473633 13.57297852 34.15869141 14.38330078 C34.3671537 17.96304695 34.49675687 21.54152046 34.625 25.125 C34.70878906 26.3625 34.79257812 27.6 34.87890625 28.875 C34.97635816 32.50021091 34.93818177 35.49285247 34 39 C31.06764911 42.03722177 28.00265143 43.70860014 24 45 C22.68 45 21.36 45 20 45 C20 34.11 20 23.22 20 12 C16.7 12 13.4 12 10 12 C6.8359375 9.8828125 6.8359375 9.8828125 4.375 7.125 C3.53710938 6.22007812 2.69921875 5.31515625 1.8359375 4.3828125 C0 2 0 2 0 0 Z " fill="#010101" transform="translate(238,311)"/>
<path d="M0 0 C11.88 0 23.76 0 36 0 C34 4 34 4 32 6 C29.56982422 6.22705078 29.56982422 6.22705078 26.5546875 6.1953125 C25.47832031 6.18886719 24.40195313 6.18242187 23.29296875 6.17578125 C22.16503906 6.15902344 21.03710938 6.14226562 19.875 6.125 C18.73933594 6.11597656 17.60367188 6.10695313 16.43359375 6.09765625 C13.62218701 6.07403098 10.81119702 6.04109013 8 6 C8 8.64 8 11.28 8 14 C15.59 14 23.18 14 31 14 C29 18 29 18 28 19 C26.43827255 19.08685603 24.87270656 19.10702219 23.30859375 19.09765625 C22.36435547 19.09443359 21.42011719 19.09121094 20.44726562 19.08789062 C19.45404297 19.07951172 18.46082031 19.07113281 17.4375 19.0625 C16.44041016 19.05798828 15.44332031 19.05347656 14.41601562 19.04882812 C11.94395151 19.03700007 9.47200482 19.02051849 7 19 C7 21.97 7 24.94 7 28 C16.24 28 25.48 28 35 28 C31 33 31 33 27.70019531 33.56762695 C26.42241211 33.54144287 25.14462891 33.51525879 23.828125 33.48828125 C22.5793457 33.47579346 21.33056641 33.46330566 20.04394531 33.45043945 C18.46194336 33.40491943 16.87994141 33.35939941 15.25 33.3125 C10.2175 33.209375 5.185 33.10625 0 33 C0 22.11 0 11.22 0 0 Z " fill="#E3E3E3" transform="translate(109,314)"/>
<path d="M0 0 C1.33417969 0.00386719 1.33417969 0.00386719 2.6953125 0.0078125 C3.57960937 0.00523437 4.46390625 0.00265625 5.375 0 C7.8203125 0.1328125 7.8203125 0.1328125 10.8203125 1.1328125 C12.33893005 1.22484993 13.86141676 1.26282534 15.3828125 1.2578125 C16.56037109 1.26167969 16.56037109 1.26167969 17.76171875 1.265625 C19.88470227 1.26257616 19.88470227 1.26257616 21.8203125 0.1328125 C27.53022806 -0.41621784 30.31839013 0.61911699 34.8203125 4.1328125 C31.0703125 7.1328125 31.0703125 7.1328125 28.8203125 7.1328125 C28.4903125 8.1228125 28.1603125 9.1128125 27.8203125 10.1328125 C28.8103125 10.7928125 29.8003125 11.4528125 30.8203125 12.1328125 C28.8403125 15.1028125 28.8403125 15.1028125 26.8203125 18.1328125 C24.8203125 17.1328125 24.8203125 17.1328125 23.8203125 14.1328125 C23.4903125 15.4528125 23.1603125 16.7728125 22.8203125 18.1328125 C23.4803125 18.4628125 24.1403125 18.7928125 24.8203125 19.1328125 C19.1953125 24.1328125 19.1953125 24.1328125 15.8203125 24.1328125 C15.4903125 22.8128125 15.1603125 21.4928125 14.8203125 20.1328125 C14.1603125 21.4528125 13.5003125 22.7728125 12.8203125 24.1328125 C8.0703125 22.2578125 8.0703125 22.2578125 5.8203125 21.1328125 C5.9234375 19.9159375 6.0265625 18.6990625 6.1328125 17.4453125 C6.1328125 13.90469012 5.93497676 13.28023798 3.6328125 10.3203125 C1.10728966 8.35601695 -1.3699139 6.65811817 -4.1796875 5.1328125 C-3.06280591 0.18662258 -3.06280591 0.18662258 0 0 Z " fill="#F7F7F7" transform="translate(134.1796875,227.8671875)"/>
<path d="M0 0 C1.41333416 0.03515918 2.82675253 0.06709013 4.24023438 0.09570312 C7.68275575 0.17236967 11.12208514 0.29289134 14.5625 0.4375 C12.98604435 3.19901541 12.10429614 4.63072007 9.5625 6.4375 C5.2771394 7.20727071 1.08657259 7.00199729 -3.25 6.8125 C-4.41982422 6.78542969 -5.58964844 6.75835937 -6.79492188 6.73046875 C-9.67657196 6.65989773 -12.55727221 6.55228399 -15.4375 6.4375 C-15.4375 13.6975 -15.4375 20.9575 -15.4375 28.4375 C-6.1975 28.4375 3.0425 28.4375 12.5625 28.4375 C8.5625 33.4375 8.5625 33.4375 6.01635742 34.11621094 C2.92508777 34.17662145 -0.15807689 34.21703479 -3.25 34.1875 C-4.85198242 34.24164063 -4.85198242 34.24164063 -6.48632812 34.296875 C-11.75556326 34.296875 -15.57726927 34.04167447 -19.64453125 30.484375 C-23.1887503 26.23282514 -23.49092717 22.31580463 -23.3125 16.9375 C-23.33957031 16.12152344 -23.36664063 15.30554688 -23.39453125 14.46484375 C-23.34499473 10.05609352 -22.59605526 6.87724344 -19.84765625 3.37109375 C-14.32333763 -1.4725499 -6.87884931 -0.29782391 0 0 Z " fill="#E6E6E6" transform="translate(85.4375,313.5625)"/>
<path d="M0 0 C2.16340809 0.04295576 4.31355968 0.00034427 6.4765625 -0.05078125 C12.77108064 -0.08093507 18.16646898 0.11579557 23.1015625 4.38671875 C27.15925893 9.40074451 27.35865989 14.29152753 27.1640625 20.54296875 C27.21046875 22.03376953 27.21046875 22.03376953 27.2578125 23.5546875 C27.20228589 28.80889337 26.4513848 32.55990089 23.1015625 36.69921875 C17.63796799 41.42751667 11.20787129 41.24854969 4.328125 41.0859375 C2.16471691 41.04298174 0.01456532 41.08559323 -2.1484375 41.13671875 C-8.44295564 41.16687257 -13.83834398 40.97014193 -18.7734375 36.69921875 C-22.83113393 31.68519299 -23.03053489 26.79440997 -22.8359375 20.54296875 C-22.866875 19.54910156 -22.8978125 18.55523437 -22.9296875 17.53125 C-22.87416089 12.27704413 -22.1232598 8.52603661 -18.7734375 4.38671875 C-13.30984299 -0.34157917 -6.87974629 -0.16261219 0 0 Z M-17.70800781 8.92138672 C-19.74998901 12.76225611 -19.85290059 16.26379547 -19.7109375 20.54296875 C-19.73800781 21.35894531 -19.76507813 22.17492187 -19.79296875 23.015625 C-19.74287555 27.4739197 -18.99100302 30.57917565 -16.15625 34.08203125 C-10.875922 38.69408245 -4.49470177 38.0627245 2.1640625 37.91796875 C3.40929687 37.94503906 4.65453125 37.97210938 5.9375 38 C11.57193943 37.95795194 16.10473961 37.90738124 20.484375 34.08203125 C23.91841329 29.83864914 24.2151022 25.84930837 24.0390625 20.54296875 C24.07966797 19.31900391 24.07966797 19.31900391 24.12109375 18.0703125 C24.07100055 13.6120178 23.31912802 10.50676185 20.484375 7.00390625 C15.204047 2.39185505 8.82282677 3.023213 2.1640625 3.16796875 C0.91882813 3.14089844 -0.32640625 3.11382812 -1.609375 3.0859375 C-8.35842966 3.13630358 -13.28318631 3.45371081 -17.70800781 8.92138672 Z " fill="#000000" transform="translate(29.8359375,309.95703125)"/>
<path d="M0 0 C12.87 0 25.74 0 39 0 C34 6 34 6 31.10546875 6.5859375 C30.14253906 6.51632812 29.17960937 6.44671875 28.1875 6.375 C27.21167969 6.32085937 26.23585938 6.26671875 25.23046875 6.2109375 C24.49441406 6.14132812 23.75835937 6.07171875 23 6 C23.04713135 7.19544434 23.04713135 7.19544434 23.09521484 8.41503906 C23.21994429 12.02640387 23.29797831 15.63731615 23.375 19.25 C23.45041016 21.13138672 23.45041016 21.13138672 23.52734375 23.05078125 C23.67233089 32.08831321 23.67233089 32.08831321 21.70800781 34.75195312 C19.5404889 36.24615765 17.64477528 37 15 37 C15 26.77 15 16.54 15 6 C11.37 6 7.74 6 4 6 C1.3125 4.125 1.3125 4.125 0 2 C0 1.34 0 0.68 0 0 Z " fill="#E7E7E7" transform="translate(246,314)"/>
<path d="M0 0 C1.47906892 -0.02689216 2.95827483 -0.04634621 4.4375 -0.0625 C5.26121094 -0.07410156 6.08492187 -0.08570313 6.93359375 -0.09765625 C9 0 9 0 10 1 C9.64070245 8.06618522 7.71943756 11.84194348 3.0625 17.25 C-1.59512017 21.20192015 -6.44994736 21.43136892 -12.3359375 21.3203125 C-16.09917098 20.86784161 -18.23794473 19.54958948 -21 17 C-22.3125 15.18359375 -22.3125 15.18359375 -23 13 C-22.05859375 10.45703125 -22.05859375 10.45703125 -20.4375 7.8125 C-19.92058594 6.93207031 -19.40367187 6.05164063 -18.87109375 5.14453125 C-16.64279757 2.5905968 -15.31597131 2.28908468 -12 2 C-11.34 3.98 -10.68 5.96 -10 8 C-7.07674878 8.24360427 -5.37152557 8.19608294 -2.75 6.8125 C-0.61081236 4.59691281 -0.32627286 3.01802393 0 0 Z " fill="#3DA4EE" transform="translate(210,155)"/>
<path d="M0 0 C2.05078125 0.03255208 4.1015625 0.06510417 6.15234375 0.09765625 C6.62671875 1.23203125 7.10109375 2.36640625 7.58984375 3.53515625 C8.78856458 6.85505791 8.78856458 6.85505791 10.15234375 8.09765625 C12.48052339 8.46526356 14.81418225 8.80007206 17.15234375 9.09765625 C17.48234375 7.11765625 17.81234375 5.13765625 18.15234375 3.09765625 C21.54696103 3.38054102 22.89366434 3.83897684 25.33984375 6.28515625 C27.2019649 9.17465458 28.23137853 11.79753087 29.15234375 15.09765625 C23.65605815 19.86110377 20.17780542 21.5208179 12.7890625 21.4453125 C7.19559615 20.7078036 3.45302567 17.49839063 -0.28515625 13.47265625 C-3.01068362 9.32985465 -3.0278393 5.96259869 -2.84765625 1.09765625 C-1.84765625 0.09765625 -1.84765625 0.09765625 0 0 Z " fill="#3DA4EE" transform="translate(82.84765625,154.90234375)"/>
<path d="M0 0 C0 10.56 0 21.12 0 32 C8.91 32 17.82 32 27 32 C26.01 33.32 25.02 34.64 24 36 C21.42202563 36.35711867 19.27685887 36.46813593 16.70703125 36.390625 C15.64798836 36.38213531 15.64798836 36.38213531 14.56755066 36.37347412 C12.31517374 36.35110411 10.06439497 36.30091199 7.8125 36.25 C6.28452821 36.22993556 4.75653144 36.21168468 3.22851562 36.1953125 C-0.51493756 36.15123802 -4.25719795 36.08221074 -8 36 C-8.14854953 31.51608964 -8.25730304 27.03348882 -8.32958984 22.54785156 C-8.35972677 21.02285817 -8.40064608 19.49803763 -8.45263672 17.97363281 C-8.52560493 15.77886359 -8.5594814 13.58638749 -8.5859375 11.390625 C-8.61690521 10.7113092 -8.64787292 10.03199341 -8.67977905 9.33209229 C-8.68115234 7.39160156 -8.68115234 7.39160156 -8 4 C-3.26933756 0 -3.26933756 0 0 0 Z " fill="#F2F2F2" transform="translate(164,310)"/>
<path d="M0 0 C8.91 0 17.82 0 27 0 C27 7.59 27 15.18 27 23 C18.09 23 9.18 23 0 23 C0 15.41 0 7.82 0 0 Z M3 4 C3 8.95 3 13.9 3 19 C9.6 19 16.2 19 23 19 C23 14.05 23 9.1 23 4 C16.4 4 9.8 4 3 4 Z " fill="#141414" transform="translate(207,319)"/>
<path d="M0 0 C9.24 0 18.48 0 28 0 C28 7.26 28 14.52 28 22 C18.76 22 9.52 22 0 22 C0 14.74 0 7.48 0 0 Z M4 3 C4 7.95 4 12.9 4 18 C10.6 18 17.2 18 24 18 C24 13.05 24 8.1 24 3 C17.4 3 10.8 3 4 3 Z " fill="#171717" transform="translate(18,320)"/>
<path d="M0 0 C4.67199091 1.53093488 8.02170005 4.10757395 11.8125 7.125 C12.40998047 7.59292969 13.00746094 8.06085937 13.62304688 8.54296875 C15.08616792 9.69005565 16.54366297 10.84431234 18 12 C17.67 12.66 17.34 13.32 17 14 C14.14574218 13.2086608 11.29159164 12.41693813 8.4375 11.625 C7.63763672 11.40328125 6.83777344 11.1815625 6.01367188 10.953125 C1.33666304 9.65501643 -3.33483471 8.3400609 -8 7 C-7.5153125 7.28198242 -7.030625 7.56396484 -6.53125 7.85449219 C-4.34490009 9.13792163 -2.17262769 10.4434874 0 11.75 C0.763125 12.1934375 1.52625 12.636875 2.3125 13.09375 C3.034375 13.53203125 3.75625 13.9703125 4.5 14.421875 C5.1703125 14.81987305 5.840625 15.21787109 6.53125 15.62792969 C7.0159375 16.08071289 7.500625 16.53349609 8 17 C8 18.32 8 19.64 8 21 C7.34 21.33 6.68 21.66 6 22 C6.54269531 22.32613281 7.08539063 22.65226562 7.64453125 22.98828125 C8.35996094 23.42527344 9.07539062 23.86226562 9.8125 24.3125 C10.52019531 24.74175781 11.22789063 25.17101562 11.95703125 25.61328125 C13.96796432 26.97825494 15.53983148 28.05310864 17 30 C17.07421875 32.26171875 17.07421875 32.26171875 16.6875 34.6875 C16.56761719 35.49574219 16.44773437 36.30398437 16.32421875 37.13671875 C16.21722656 37.75160156 16.11023438 38.36648437 16 39 C15.01 38.34 14.02 37.68 13 37 C12.938125 35.741875 12.87625 34.48375 12.8125 33.1875 C12.56739979 30.57624012 12.40576627 29.39935944 10.515625 27.5390625 C8.39575119 26.20778175 6.25439065 25.08883049 4 24 C3.09121094 23.53335938 2.18242188 23.06671875 1.24609375 22.5859375 C-1.15668452 21.36233206 -3.57070498 20.16984494 -6 19 C-6 18.34 -6 17.68 -6 17 C-3.36 17 -0.72 17 2 17 C1.52054932 16.68248779 1.04109863 16.36497559 0.54711914 16.0378418 C-1.62003483 14.59596518 -3.77876183 13.14194296 -5.9375 11.6875 C-6.69224609 11.18798828 -7.44699219 10.68847656 -8.22460938 10.17382812 C-8.94326172 9.68720703 -9.66191406 9.20058594 -10.40234375 8.69921875 C-11.06741943 8.25408936 -11.73249512 7.80895996 -12.41772461 7.3503418 C-14 6 -14 6 -15 3 C-10.27072398 2.71807594 -7.21517109 3.51295278 -2.9375 5.5 C0.94347557 7.2981354 3.70230401 8.31542723 8 8 C7.13375 7.25943359 7.13375 7.25943359 6.25 6.50390625 C5.5075 5.86324219 4.765 5.22257812 4 4.5625 C3.2575 3.92441406 2.515 3.28632812 1.75 2.62890625 C1.1725 2.09136719 0.595 1.55382813 0 1 C0 0.67 0 0.34 0 0 Z " fill="#141414" transform="translate(38,54)"/>
<path d="M0 0 C0.66 0.33 1.32 0.66 2 1 C-3.75 6 -3.75 6 -6 6 C-6 6.66 -6 7.32 -6 8 C-3.74862561 7.37996908 -1.49894474 6.75378659 0.75 6.125 C2.00296875 5.77695312 3.2559375 5.42890625 4.546875 5.0703125 C7.86154543 4.14533414 7.86154543 4.14533414 10.25 2.875 C12.82150306 1.58924847 15.17677859 1.87167175 18 2 C15.61889902 6.98349387 12.3815031 9.05826644 7.8125 11.8125 C7.15830078 12.21919922 6.50410156 12.62589844 5.83007812 13.04492188 C4.2262456 14.04000045 2.61394099 15.0214017 1 16 C3.64 16 6.28 16 9 16 C6.13568025 19.11309869 3.36354616 21.09897786 -0.375 23.0625 C-1.34050781 23.57296875 -2.30601562 24.0834375 -3.30078125 24.609375 C-6.18903393 26.09738941 -9.07908142 27.57698839 -12 29 C-12.66 29.33 -13.32 29.66 -14 30 C-12.55613418 26.28720216 -10.87763608 25.0513557 -7.375 23.25 C-6.55773437 22.82203125 -5.74046875 22.3940625 -4.8984375 21.953125 C-4.27195313 21.63859375 -3.64546875 21.3240625 -3 21 C-4.32 20.67 -5.64 20.34 -7 20 C-5.53823655 16.24001957 -3.71674575 14.9072419 -0.25 12.9375 C0.63945312 12.42832031 1.52890625 11.91914062 2.4453125 11.39453125 C5.26783958 9.85379399 8.09407943 8.37648869 11 7 C4.85758678 8.3308562 -1.22383084 9.80942984 -7.30078125 11.4140625 C-10 12 -10 12 -14 12 C-12.75030384 8.25091151 -11.36230195 7.60977652 -8.125 5.4375 C-7.24070313 4.83808594 -6.35640625 4.23867188 -5.4453125 3.62109375 C-4.63835937 3.08613281 -3.83140625 2.55117188 -3 2 C-2.01 1.34 -1.02 0.68 0 0 Z " fill="#111111" transform="translate(260,56)"/>
<path d="M0 0 C0.66 0 1.32 0 2 0 C8.7346614 9.86146848 8.65450576 18.45870163 7.98168945 30.01391602 C7.90017859 32.21298308 7.90017859 32.21298308 9 35 C5.21751405 34.13543178 3.44942098 32.64394336 1.34765625 29.515625 C-1.51740968 24.74568897 -1.62310197 20.6996881 -1.375 15.25 C-1.36082031 14.41339844 -1.34664063 13.57679688 -1.33203125 12.71484375 C-1.24225119 8.96203716 -0.94503374 5.63680323 0 2 C0 1.34 0 0.68 0 0 Z " fill="#0F0F0F" transform="translate(105,119)"/>
<path d="M0 0 C0.33 0.66 0.66 1.32 1 2 C0.67 2.99 0.34 3.98 0 5 C0.66 5 1.32 5 2 5 C2.09001873 10.15107171 2.12191202 14.95139593 1 20 C1.12375 20.928125 1.2475 21.85625 1.375 22.8125 C0.79214608 27.7667583 -2.46549511 30.64941731 -6 34 C-6.99 34.495 -6.99 34.495 -8 35 C-9.45072271 11.11249552 -9.45072271 11.11249552 -1 1 C-0.67 0.67 -0.34 0.34 0 0 Z " fill="#0F0F0F" transform="translate(194,119)"/>
<path d="M0 0 C0 0.66 0 1.32 0 2 C-1.13953125 2.25652344 -2.2790625 2.51304687 -3.453125 2.77734375 C-23.87878031 7.61970797 -42.30179596 17.08260381 -60.47900391 27.40820312 C-61.28644043 27.86646484 -62.09387695 28.32472656 -62.92578125 28.796875 C-63.65837158 29.21807617 -64.39096191 29.63927734 -65.14575195 30.07324219 C-67 31 -67 31 -69 31 C-69 30.34 -69 29.68 -69 29 C-49.34007393 17.64335876 -29.98696431 7.03563726 -8 1 C-7.278125 0.79375 -6.55625 0.5875 -5.8125 0.375 C-4 0 -4 0 0 0 Z " fill="#000000" transform="translate(83,247)"/>
<path d="M0 0 C1.47888133 3.8714664 0.46425535 6.47321095 -0.8125 10.3125 C-1.18632812 11.46878906 -1.56015625 12.62507813 -1.9453125 13.81640625 C-2.29335937 14.86699219 -2.64140625 15.91757813 -3 17 C-4.69522143 22.35333083 -5.51999336 27.42939666 -6 33 C-9 32 -9 32 -10.75 29.3125 C-12.43177447 24.85579766 -11.94349383 22.101854 -9.99121094 17.75268555 C-8.705384 15.20455289 -7.36591489 12.6935744 -6 10.1875 C-5.5359375 9.31673828 -5.071875 8.44597656 -4.59375 7.54882812 C-1.17678571 1.17678571 -1.17678571 1.17678571 0 0 Z " fill="#0F0F0F" transform="translate(184,115)"/>
<path d="M0 0 C0.66 0 1.32 0 2 0 C3.907805 3.52492241 5.77009068 7.07199737 7.625 10.625 C8.16640625 11.62402344 8.7078125 12.62304688 9.265625 13.65234375 C13.14091529 21.15450828 13.14091529 21.15450828 12.40625 25.5625 C11.9421875 26.366875 11.478125 27.17125 11 28 C10.62875 28.78375 10.2575 29.5675 9.875 30.375 C9.58625 30.91125 9.2975 31.4475 9 32 C8.34 32 7.68 32 7 32 C6.6596875 30.0509375 6.6596875 30.0509375 6.3125 28.0625 C5.17037036 22.24347455 3.46199827 16.62718987 1.67700195 10.97875977 C0.51986865 7.21948134 -0.29441102 3.9435582 0 0 Z " fill="#0D0D0D" transform="translate(115,116)"/>
<path d="M0 0 C4.50513431 4.23209586 8.514292 8.88695859 12 14 C12 14.66 12 15.32 12 16 C8.4213696 14.34832443 5.25179812 12.21713508 2 10 C4.63482263 15.26964527 8.79943911 18.97903554 13 23 C12.34 23.33 11.68 23.66 11 24 C8.92803369 23.26821134 6.8891448 22.44100997 4.875 21.5625 C3.77929688 21.08941406 2.68359375 20.61632812 1.5546875 20.12890625 C0.71164063 19.75636719 -0.13140625 19.38382813 -1 19 C-0.67 19.66 -0.34 20.32 0 21 C-3.35620271 19.61122646 -5.07298728 18.08322035 -7 15 C-7 14.34 -7 13.68 -7 13 C-3.20774749 14.4499789 0.37810284 16.16898551 4 18 C3.4225 17.22914062 2.845 16.45828125 2.25 15.6640625 C1.5075 14.66117188 0.765 13.65828125 0 12.625 C-0.7425 11.62726562 -1.485 10.62953125 -2.25 9.6015625 C-4 7 -4 7 -4 5 C-0.59687262 6.05875074 2.01353231 7.00902154 5 9 C4.6390625 8.51789062 4.278125 8.03578125 3.90625 7.5390625 C3.4421875 6.90742187 2.978125 6.27578125 2.5 5.625 C2.0359375 4.99851562 1.571875 4.37203125 1.09375 3.7265625 C0 2 0 2 0 0 Z " fill="#2C2C2C" transform="translate(38,33)"/>
<path d="M0 0 C1.875 0.5 1.875 0.5 4 2 C4.74060433 4.05913689 5.18998954 6.07536651 5.60546875 8.22265625 C5.83651699 10.01554093 5.83651699 10.01554093 7 11 C7.125 14 7.125 14 7 17 C6 18 6 18 3.625 18.25 C0.45908375 17.94848417 0.0529638 17.30958428 -2 15 C-2.886875 14.525625 -3.77375 14.05125 -4.6875 13.5625 C-5.450625 13.046875 -6.21375 12.53125 -7 12 C-7 10.68 -7 9.36 -7 8 C-5.35 7.34 -3.7 6.68 -2 6 C-1.67 6.33 -1.34 6.66 -1 7 C-0.67 4.69 -0.34 2.38 0 0 Z " fill="#121212" transform="translate(128,104)"/>
<path d="M0 0 C0.66 0 1.32 0 2 0 C2.33 2.31 2.66 4.62 3 7 C3.598125 6.79375 4.19625 6.5875 4.8125 6.375 C7 6 7 6 10 8 C8.88829667 11.22393966 8.10649159 11.94453563 5 13.5625 C4.01 14.036875 3.02 14.51125 2 15 C1.01 16.485 1.01 16.485 0 18 C-1.32 18 -2.64 18 -4 18 C-4.66 15.69 -5.32 13.38 -6 11 C-5.54625 10.649375 -5.0925 10.29875 -4.625 9.9375 C-2.35900429 7.23573588 -1.8752624 4.37601211 -1 1 C-0.67 0.67 -0.34 0.34 0 0 Z " fill="#101010" transform="translate(170,104)"/>
<path d="M0 0 C1.36995117 0.21462891 1.36995117 0.21462891 2.76757812 0.43359375 C4.99192736 0.78296798 7.2150921 1.13851822 9.4375 1.5 C9.4375 1.83 9.4375 2.16 9.4375 2.5 C8.44121582 2.47905273 7.44493164 2.45810547 6.41845703 2.43652344 C-17.7397755 1.57749496 -17.7397755 1.57749496 -41.40234375 5.625 C-44.31048697 6.43022136 -46.570331 6.68168768 -49.5625 6.5 C-49.5625 5.84 -49.5625 5.18 -49.5625 4.5 C-46.25223629 3.678207 -42.93894329 2.86931517 -39.625 2.0625 C-38.69880859 1.83240234 -37.77261719 1.60230469 -36.81835938 1.36523438 C-24.20504252 -1.68851602 -12.79949614 -2.08473085 0 0 Z " fill="#000000" transform="translate(49.5625,226.5)"/>
<path d="M0 0 C1.4540625 0.0309375 1.4540625 0.0309375 2.9375 0.0625 C2.97617188 1.07570313 2.97617188 1.07570313 3.015625 2.109375 C3.23549455 7.76636341 3.23549455 7.76636341 6 12.5 C6.639375 13.015625 7.27875 13.53125 7.9375 14.0625 C7.9375 15.0525 7.9375 16.0425 7.9375 17.0625 C5.6275 17.7225 3.3175 18.3825 0.9375 19.0625 C0.9375 17.4125 0.9375 15.7625 0.9375 14.0625 C-0.0525 13.7325 -1.0425 13.4025 -2.0625 13.0625 C-2.0625 10.7525 -2.0625 8.4425 -2.0625 6.0625 C-3.0525 6.0625 -4.0425 6.0625 -5.0625 6.0625 C-3.98897059 0.08140756 -3.98897059 0.08140756 0 0 Z " fill="#151515" transform="translate(140.0625,83.9375)"/>
<path d="M0 0 C0.66 0 1.32 0 2 0 C2.40214229 6.16618181 0.96818336 11.17745757 -1 17 C-4.375 16.75 -4.375 16.75 -8 16 C-9.9380319 13.73896278 -10 12.45240038 -10 9.5 C-8.5740968 5.93524199 -6.23410612 4.94046367 -3 3 C-2.4225 2.4225 -1.845 1.845 -1.25 1.25 C-0.8375 0.8375 -0.425 0.425 0 0 Z " fill="#131313" transform="translate(130,68)"/>
<path d="M0 0 C1.5 1.375 1.5 1.375 3 3 C3 3.66 3 4.32 3 5 C3.99 5 4.98 5 6 5 C6 5.66 6 6.32 6 7 C7.65 7.33 9.3 7.66 11 8 C10.75 11.375 10.75 11.375 10 15 C8.25 16.5 8.25 16.5 6 17 C3.25 16.625 3.25 16.625 1 16 C-0.4516516 10.82849117 -1.33228375 6.42730132 -1 1 C-0.67 0.67 -0.34 0.34 0 0 Z " fill="#101010" transform="translate(170,67)"/>
<path d="M0 0 C5.57142857 5.14285714 5.57142857 5.14285714 6 9 C3.69 9 1.38 9 -1 9 C-0.2575 9.928125 -0.2575 9.928125 0.5 10.875 C2 13 2 13 2 15 C1.01 15.495 1.01 15.495 0 16 C2.475 16.99 2.475 16.99 5 18 C4.34 18.33 3.68 18.66 3 19 C3 19.66 3 20.32 3 21 C-1.41889613 19.64978174 -3.34345343 17.73884332 -6 14 C-5.67 13.34 -5.34 12.68 -5 12 C-4.34 12.33 -3.68 12.66 -3 13 C-3.515625 12.2575 -4.03125 11.515 -4.5625 10.75 C-6 8 -6 8 -5.6875 5.6875 C-5.460625 5.130625 -5.23375 4.57375 -5 4 C-3.02 4.66 -1.04 5.32 1 6 C0.67 4.02 0.34 2.04 0 0 Z " fill="#111111" transform="translate(37,95)"/>
<path d="M0 0 C1 3 1 3 0.0625 5.1875 C-0.4634375 6.0846875 -0.4634375 6.0846875 -1 7 C1.31 6.34 3.62 5.68 6 5 C5.5020163 8.73487777 5.12508244 10.81237635 3 14 C3.99 13.67 4.98 13.34 6 13 C5.8125 15.3125 5.8125 15.3125 5 18 C0.96551724 21 0.96551724 21 -2 21 C-1.835 20.4225 -1.67 19.845 -1.5 19.25 C-0.85537969 16.73335631 -0.85537969 16.73335631 -1 13 C-0.34 12.01 0.32 11.02 1 10 C-0.98 10 -2.96 10 -5 10 C-4.49701212 5.59885603 -2.91227269 3.28804981 0 0 Z " fill="#101010" transform="translate(263,95)"/>
<path d="M0 0 C3.24271506 0.5590888 4.93057424 1.4132178 7 4 C7 4.66 7 5.32 7 6 C7.99 6.33 8.98 6.66 10 7 C9.75 8.875 9.75 8.875 9 11 C6.50159405 12.87380446 5.36680834 13.05001932 2.25 12.625 C1.13625 12.315625 1.13625 12.315625 0 12 C-1.1671568 8.49852959 -1.13357453 5.67329964 -1 2 C-0.67 1.34 -0.34 0.68 0 0 Z " fill="#0A0A0A" transform="translate(150,68)"/>
<path d="M0 0 C0 0.66 0 1.32 0 2 C-1.95703125 3.453125 -1.95703125 3.453125 -4.8125 5.25 C-10.78838815 9.12392509 -16.52851051 13.26011571 -22.25 17.5 C-23.10827393 18.13583008 -23.96654785 18.77166016 -24.85083008 19.42675781 C-26.90216185 20.94902808 -28.95196128 22.47330363 -31 24 C-31.33 23.01 -31.66 22.02 -32 21 C-24.68622974 14.98899506 -17.28605015 9.3331983 -9.25 4.3125 C-8.5590625 3.8788916 -7.868125 3.4452832 -7.15625 2.99853516 C-2.26666964 0 -2.26666964 0 0 0 Z " fill="#000000" transform="translate(70,266)"/>
<path d="M0 0 C-0.32216863 2.89951766 -0.80628745 4.72557388 -2.5 7.125 C-7.86679147 11.1500936 -14.44509877 12.30267008 -21 13 C-20.67 12.01 -20.34 11.02 -20 10 C-17.99609375 9.04296875 -17.99609375 9.04296875 -15.4375 8.1875 C-10.81436747 6.48284425 -7.3750952 4.30233291 -3.59375 1.171875 C-2 0 -2 0 0 0 Z " fill="#161616" transform="translate(228,178)"/>
<path d="M0 0 C2.67250291 1.13067431 4.38223088 2.34494006 6.5625 4.3125 C10.76706375 7.96297396 15.91179029 9.87236782 21 12 C21 12.66 21 13.32 21 14 C13.7546117 13.10764519 7.68647078 11.80285878 2 7 C0 4 0 4 0 0 Z " fill="#161616" transform="translate(71,177)"/>
<path d="M0 0 C5.4 -0.48 5.4 -0.48 7.875 1.5 C9.93142427 6.06983171 9.53976711 10.38069868 8 15 C7.67 15.66 7.34 16.32 7 17 C6.34 17 5.68 17 5 17 C4.80664062 16.19175781 4.61328125 15.38351563 4.4140625 14.55078125 C4.15367188 13.48214844 3.89328125 12.41351563 3.625 11.3125 C3.36976562 10.25675781 3.11453125 9.20101562 2.8515625 8.11328125 C2.08094511 5.29593234 1.14501457 2.68331675 0 0 Z " fill="#141414" transform="translate(122,157)"/>
<path d="M0 0 C4.55555556 0.55555556 4.55555556 0.55555556 6 2 C6.44926708 5.95355026 6.30871428 7.55622323 4 10.875 C3.34 11.57625 2.68 12.2775 2 13 C1.01 12.67 0.02 12.34 -1 12 C-2.11445498 9.77109005 -2.16480286 8.46944894 -2.1875 6 C-2.20167969 5.29875 -2.21585938 4.5975 -2.23046875 3.875 C-2 2 -2 2 0 0 Z " fill="#121212" transform="translate(235,171)"/>
<path d="M0 0 C2.56695636 0.39491636 4.67123994 0.83561997 7 2 C7.28571429 9.42857143 7.28571429 9.42857143 5 13 C2.63189682 12.05275873 1.24792047 11.34708866 -0.25 9.25 C-1.20108425 6.39674726 -1.19915851 3.98737759 -1 1 C-0.67 0.67 -0.34 0.34 0 0 Z " fill="#0E0E0E" transform="translate(59,170)"/>
<path d="M0 0 C0.94875 0.04125 1.8975 0.0825 2.875 0.125 C1.93764468 3.0040199 0.99727222 5.83730066 -0.1875 8.625 C-1.24336433 11.44063821 -1.71030004 14.1529836 -2.125 17.125 C-2.785 17.125 -3.445 17.125 -4.125 17.125 C-5.5491906 14.27661879 -5.29495508 11.79712092 -5.3125 8.625 C-5.33376953 6.87703125 -5.33376953 6.87703125 -5.35546875 5.09375 C-5.02902135 0.8886648 -4.20707516 0.16828301 0 0 Z " fill="#0B0B0B" transform="translate(174.125,156.875)"/>
<path d="M0 0 C4.67199091 1.53093488 8.02170005 4.10757395 11.8125 7.125 C12.40998047 7.59292969 13.00746094 8.06085937 13.62304688 8.54296875 C15.08616792 9.69005565 16.54366297 10.84431234 18 12 C17.67 12.66 17.34 13.32 17 14 C14.10316291 13.21186779 11.20755405 12.41963319 8.3125 11.625 C7.49587891 11.40328125 6.67925781 11.1815625 5.83789062 10.953125 C1.7864424 9.83774654 -2.13829618 8.68310513 -6 7 C-2.30823564 5.63267987 -0.5364391 6.53367159 3 8 C4.6661476 8.04159252 6.33400415 8.04728202 8 8 C7.4225 7.50628906 6.845 7.01257812 6.25 6.50390625 C5.5075 5.86324219 4.765 5.22257812 4 4.5625 C3.2575 3.92441406 2.515 3.28632812 1.75 2.62890625 C0.88375 1.82259766 0.88375 1.82259766 0 1 C0 0.67 0 0.34 0 0 Z " fill="#232323" transform="translate(38,54)"/>
<path d="M0 0 C12.37898721 -0.43920191 24.43652038 -0.00866349 36 5 C36 5.66 36 6.32 36 7 C35.09459473 6.82609741 35.09459473 6.82609741 34.17089844 6.64868164 C19.20709758 3.6982342 19.20709758 3.6982342 4.046875 2.2734375 C2 2 2 2 0 0 Z " fill="#000000" transform="translate(239,236)"/>
<path d="M0 0 C0.66 0.33 1.32 0.66 2 1 C-3.75 6 -3.75 6 -6 6 C-6 6.66 -6 7.32 -6 8 C-1.71 7.01 2.58 6.02 7 5 C7 5.66 7 6.32 7 7 C0.01424576 9.28953836 -6.64987044 11.42351925 -14 12 C-12.75030384 8.25091151 -11.36230195 7.60977652 -8.125 5.4375 C-7.24070313 4.83808594 -6.35640625 4.23867188 -5.4453125 3.62109375 C-4.63835937 3.08613281 -3.83140625 2.55117188 -3 2 C-2.01 1.34 -1.02 0.68 0 0 Z " fill="#1A1A1A" transform="translate(260,56)"/>
<path d="M0 0 C-3.97222219 2.57657656 -8.28689372 2.60276528 -12.875 3 C-14.57702602 3.16194193 -16.27884951 3.32602577 -17.98046875 3.4921875 C-18.82399902 3.57436523 -19.6675293 3.65654297 -20.53662109 3.74121094 C-26.04771218 4.32017591 -31.52339407 5.1601942 -37 6 C-32.30702543 0.76332715 -24.82389487 0.68700635 -18.1640625 0.15234375 C-12.11081753 -0.13910879 -6.05868176 -0.07358723 0 0 Z " fill="#000000" transform="translate(60,237)"/>
<path d="M0 0 C9.83908078 0.33184084 18.63005352 2.2136397 28 5 C27.67 5.99 27.34 6.98 27 8 C13.635 5.03 13.635 5.03 0 2 C0 1.34 0 0.68 0 0 Z " fill="#000000" transform="translate(273,226)"/>
<path d="M0 0 C0.9075 0.185625 1.815 0.37125 2.75 0.5625 C5.68314324 0.95734621 7.2644657 0.94691572 10 0 C10.4375 2.1875 10.4375 2.1875 10 5 C7.48300375 7.44432707 4.60995554 10 1 10 C-0.83691257 6.21812119 -1.15837626 4.05431692 0 0 Z " fill="#151515" transform="translate(49,135)"/>
<path d="M0 0 C4.34482759 1.34482759 4.34482759 1.34482759 6 3 C6.1875 5.4375 6.1875 5.4375 6 8 C4 10 4 10 1.5 10.25 C-1 10 -1 10 -3 8 C-3.3125 5 -3.3125 5 -3 2 C-2.01 1.34 -1.02 0.68 0 0 Z " fill="#0B0B0B" transform="translate(195,61)"/>
<path d="M0 0 C0.33 0.33 0.66 0.66 1 1 C0.4 7.6 0.4 7.6 -2 10 C-6.55555556 9.44444444 -6.55555556 9.44444444 -8 8 C-8.29573841 5.19048514 -8.38243085 3.58371024 -6.8125 1.1875 C-4.41628976 -0.38243085 -2.80951486 -0.29573841 0 0 Z " fill="#0D0D0D" transform="translate(142,52)"/>
<path d="M0 0 C3.63 0 7.26 0 11 0 C10.5020163 3.73487777 10.12508244 5.81237635 8 9 C4.11980141 7.74155722 2.0588158 6.57583797 0 3 C0 2.01 0 1.02 0 0 Z " fill="#0E0E0E" transform="translate(241,137)"/>
<path d="M0 0 C3.5 0.125 3.5 0.125 4.5 1.125 C4.6875 4.0625 4.6875 4.0625 4.5 7.125 C2.5 9.125 2.5 9.125 0 9.4375 C-1.2375 9.2828125 -1.2375 9.2828125 -2.5 9.125 C-4.64809171 5.90286243 -4.79386153 4.84724599 -4.5 1.125 C-3.5 0.125 -3.5 0.125 0 0 Z " fill="#080808" transform="translate(104.5,61.875)"/>
<path d="M0 0 C0 0.66 0 1.32 0 2 C-2.23337667 3.8445702 -4.46596417 5.55982996 -6.8125 7.25 C-7.48869385 7.74218018 -8.1648877 8.23436035 -8.86157227 8.74145508 C-14.34236603 12.66684473 -19.94645528 16.0172763 -26 19 C-24.50669256 15.17603617 -22.42473323 13.60137093 -19.0625 11.328125 C-18.08539063 10.66425781 -17.10828125 10.00039063 -16.1015625 9.31640625 C-15.07804687 8.63449219 -14.05453125 7.95257813 -13 7.25 C-11.97648437 6.55261719 -10.95296875 5.85523438 -9.8984375 5.13671875 C-2.27880382 0 -2.27880382 0 0 0 Z " fill="#000000" transform="translate(97,270)"/>
<path d="M0 0 C-0.60775451 3.32782654 -1.77876563 5.30417075 -3.875 7.9375 C-5.69716255 10.25074182 -7.11318019 12.22636038 -8.4375 14.875 C-10.72571605 17.98697383 -13.32934895 18.23816676 -17 19 C-14.78337184 14.42820441 -11.58546141 11.72535366 -7.7421875 8.55078125 C-5.89547687 7.09990784 -5.89547687 7.09990784 -5 5 C-5.66 4.67 -6.32 4.34 -7 4 C-2.25 0 -2.25 0 0 0 Z " fill="#1C1C1C" transform="translate(267,39)"/>
<path d="M0 0 C2.9375 2.5 2.9375 2.5 5 5 C4.67 5.99 4.34 6.98 4 8 C2.5459375 7.2884375 2.5459375 7.2884375 1.0625 6.5625 C-3.19836149 4.71147001 -7.40015606 4.30248407 -12 4 C-8.1664057 -0.00784858 -5.63840325 -0.57339694 0 0 Z " fill="#131313" transform="translate(91,131)"/>
<path d="M0 0 C0.9796875 -0.01417969 1.959375 -0.02835938 2.96875 -0.04296875 C5.5 0.1875 5.5 0.1875 7.5 2.1875 C3.58709763 3.94130558 -0.0742335 4.71314918 -4.3125 5.3125 C-5.47394531 5.48007813 -6.63539063 5.64765625 -7.83203125 5.8203125 C-9.15267578 6.00207031 -9.15267578 6.00207031 -10.5 6.1875 C-7.4657017 0.80851665 -6.13270196 0.04034672 0 0 Z " fill="#131313" transform="translate(213.5,131.8125)"/>
<path d="M0 0 C0.99 0 1.98 0 3 0 C4.42258812 3.82320557 5.24042276 6.91281305 5 11 C-0.75 9.25 -0.75 9.25 -3 7 C-2.67028521 3.70285207 -2.3773161 2.3773161 0 0 Z " fill="#0F0F0F" transform="translate(142,121)"/>
<path d="M0 0 C0 1.65 0 3.3 0 5 C-3.96 5.66 -7.92 6.32 -12 7 C-11.67 5.02 -11.34 3.04 -11 1 C-7.26513121 0.4254048 -3.78706732 0 0 0 Z " fill="#0E0E0E" transform="translate(159,85)"/>
<path d="M0 0 C2.99324263 1.0975223 3.84610901 1.67682892 5.25 4.625 C5.4975 5.40875 5.745 6.1925 6 7 C1.375 11 1.375 11 -2 11 C-1.85957123 9.35369672 -1.71250671 7.70795821 -1.5625 6.0625 C-1.48128906 5.14597656 -1.40007812 4.22945313 -1.31640625 3.28515625 C-1 1 -1 1 0 0 Z " fill="#141414" transform="translate(95,81)"/>
<path d="M0 0 C3.3 0.33 6.6 0.66 10 1 C10.33 2.65 10.66 4.3 11 6 C4.67741935 6.36476427 4.67741935 6.36476427 1.5625 4.6875 C0 3 0 3 0 0 Z " fill="#272727" transform="translate(67,187)"/>
<path d="M0 0 C0.66 0 1.32 0 2 0 C3.19287411 3.87684087 4 6.91621923 4 11 C0.20411134 10.45773019 -1.47211993 8.79872437 -4 6 C-2.84826645 3.53199953 -1.95216435 1.95216435 0 0 Z " fill="#101010" transform="translate(204,81)"/>
<path d="M0 0 C4.48646502 0.27190697 7.40766964 2.20063618 10.68359375 5.1015625 C12.39494429 7.56956358 12.27710507 8.92555323 11.9375 11.875 C11.66140247 13.25776947 11.36049189 14.63679538 11 16 C10.01 15.34 9.02 14.68 8 14 C7.9175 12.741875 7.835 11.48375 7.75 10.1875 C7.53563362 7.44560443 7.36485144 6.36220119 5.38671875 4.3984375 C4.11690584 3.52814489 2.81988656 2.69590852 1.49609375 1.91015625 C1.00238281 1.60980469 0.50867187 1.30945313 0 1 C0 0.67 0 0.34 0 0 Z " fill="#212121" transform="translate(43,77)"/>
<path d="M0 0 C1.23556641 0.01740234 1.23556641 0.01740234 2.49609375 0.03515625 C3.32238281 0.04417969 4.14867187 0.05320313 5 0.0625 C5.63808594 0.07410156 6.27617187 0.08570313 6.93359375 0.09765625 C6.93359375 1.08765625 6.93359375 2.07765625 6.93359375 3.09765625 C3.10370269 4.89995793 0.15237567 5.29387866 -4.06640625 5.09765625 C-2.94676868 0.13926128 -2.94676868 0.13926128 0 0 Z " fill="#0D0D0D" transform="translate(225.06640625,187.90234375)"/>
<path d="M0 0 C1.4540625 0.0309375 1.4540625 0.0309375 2.9375 0.0625 C3.2675 1.0525 3.5975 2.0425 3.9375 3.0625 C2.81676138 3.90155565 1.69075453 4.73357831 0.5625 5.5625 C-0.06398437 6.0265625 -0.69046875 6.490625 -1.3359375 6.96875 C-3.0625 8.0625 -3.0625 8.0625 -5.0625 8.0625 C-4.046875 0.08258929 -4.046875 0.08258929 0 0 Z " fill="#1C1C1C" transform="translate(218.0625,193.9375)"/>
<path d="M0 0 C2.3125 0.1875 2.3125 0.1875 5 1 C6.875 3.375 6.875 3.375 8 6 C7.67 6.99 7.34 7.98 7 9 C6.34 9 5.68 9 5 9 C4.34 8.01 3.68 7.02 3 6 C0.94996045 4.80767387 0.94996045 4.80767387 -1 4 C-0.67 2.68 -0.34 1.36 0 0 Z " fill="#131313" transform="translate(78,193)"/>
<path d="M0 0 C0 3.90838866 -1.50567876 5.11594107 -4 8 C-3.34 8.66 -2.68 9.32 -2 10 C-4.31 11.65 -6.62 13.3 -9 15 C-9.66 14.67 -10.32 14.34 -11 14 C-9.73253547 12.2267539 -8.46089765 10.45649025 -7.1875 8.6875 C-6.47980469 7.70136719 -5.77210938 6.71523438 -5.04296875 5.69921875 C-3.45369163 3.59942813 -1.92542371 1.77965031 0 0 Z " fill="#242424" transform="translate(262,35)"/>
<path d="M0 0 C4.50513431 4.23209586 8.514292 8.88695859 12 14 C12 14.66 12 15.32 12 16 C6.7627343 13.6522602 5.05827523 11.27433027 3 6 C2.00612666 4.66209359 1.0073108 3.32781878 0 2 C0 1.34 0 0.68 0 0 Z " fill="#2D2D2D" transform="translate(38,33)"/>
<path d="M0 0 C0.66 0.33 1.32 0.66 2 1 C1.67 1.33 1.34 1.66 1 2 C1.99 2.66 2.98 3.32 4 4 C2.02 6.97 2.02 6.97 0 10 C-2.7839183 8.60804085 -2.97898997 6.84424221 -4 4 C-2.68 2.68 -1.36 1.36 0 0 Z " fill="#202020" transform="translate(161,236)"/>
<path d="M0 0 C1.32 0 2.64 0 4 0 C3.25 5.75 3.25 5.75 1 8 C0.01 8 -0.98 8 -2 8 C-2.125 5.125 -2.125 5.125 -2 2 C-1.34 1.34 -0.68 0.68 0 0 Z " fill="#131313" transform="translate(157,101)"/>
<path d="M0 0 C0.99 0.33 1.98 0.66 3 1 C3.125 7.75 3.125 7.75 2 10 C1.01 10 0.02 10 -1 10 C-1.02689216 8.52093108 -1.04634621 7.04172517 -1.0625 5.5625 C-1.07410156 4.73878906 -1.08570313 3.91507813 -1.09765625 3.06640625 C-1 1 -1 1 0 0 Z " fill="#101010" transform="translate(154,125)"/>
<path d="M0 0 C0.598125 0.309375 1.19625 0.61875 1.8125 0.9375 C4.08956772 2.10209704 4.08956772 2.10209704 7 3 C8.6875 6.0625 8.6875 6.0625 10 9 C9.01 9.495 9.01 9.495 8 10 C7.34 9.67 6.68 9.34 6 9 C6 8.34 6 7.68 6 7 C5.01 6.67 4.02 6.34 3 6 C2.67 5.34 2.34 4.68 2 4 C1.01 3.67 0.02 3.34 -1 3 C-0.67 2.01 -0.34 1.02 0 0 Z " fill="#E5E5E5" transform="translate(151,65)"/>
<path d="M0 0 C-1.55500981 3.81684226 -4.03595495 6.19195732 -7 9 C-7.66 8.67 -8.32 8.34 -9 8 C-8.67 7.67 -8.34 7.34 -8 7 C-8.66 6.34 -9.32 5.68 -10 5 C-8.90241493 4.15801693 -7.79664683 3.32669329 -6.6875 2.5 C-6.07261719 2.0359375 -5.45773437 1.571875 -4.82421875 1.09375 C-3 0 -3 0 0 0 Z " fill="#282828" transform="translate(271,47)"/>
<path d="M0 0 C1.32 0 2.64 0 4 0 C3.67 2.31 3.34 4.62 3 7 C1.35 6.67 -0.3 6.34 -2 6 C-1.125 1.125 -1.125 1.125 0 0 Z " fill="#0A0A0A" transform="translate(160,137)"/>
<path d="M0 0 C2.475 0.495 2.475 0.495 5 1 C5 3.31 5 5.62 5 8 C3.68 7.67 2.36 7.34 1 7 C0.67 4.69 0.34 2.38 0 0 Z " fill="#272727" transform="translate(135,137)"/>
<path d="M0 0 C3.93673644 1.31224548 6.22719294 2.91910327 9 6 C8.01 6 7.02 6 6 6 C6.33 6.66 6.66 7.32 7 8 C3.64379729 6.61122646 1.92701272 5.08322035 0 2 C0 1.34 0 0.68 0 0 Z " fill="#181818" transform="translate(31,46)"/>
<path d="M0 0 C3.7952131 1.49097658 5.61042731 3.75700849 8 7 C6.51800098 6.55090939 5.03944764 6.09043436 3.5625 5.625 C2.73878906 5.36976562 1.91507813 5.11453125 1.06640625 4.8515625 C-1 4 -1 4 -2 2 C-1.34 2 -0.68 2 0 2 C0 1.34 0 0.68 0 0 Z " fill="#151515" transform="translate(43,50)"/>
<path d="M0 0 C1.67542976 0.28604898 3.34385343 0.61781233 5 1 C4.67 2.32 4.34 3.64 4 5 C2.35 5.33 0.7 5.66 -1 6 C-1.042721 4.33388095 -1.04063832 2.66617115 -1 1 C-0.67 0.67 -0.34 0.34 0 0 Z " fill="#222222" transform="translate(184,251)"/>
<path d="M0 0 C1.65 0 3.3 0 5 0 C5 1.65 5 3.3 5 5 C3.35 4.67 1.7 4.34 0 4 C0 2.68 0 1.36 0 0 Z " fill="#191919" transform="translate(214,76)"/>
<path d="M0 0 C1.32 0.33 2.64 0.66 4 1 C3.67 2.32 3.34 3.64 3 5 C1.68 5.33 0.36 5.66 -1 6 C-1.33 5.01 -1.66 4.02 -2 3 C-1.34 2.01 -0.68 1.02 0 0 Z " fill="#1B1B1B" transform="translate(83,75)"/>
<path d="M0 0 C-0.94875 0.391875 -1.8975 0.78375 -2.875 1.1875 C-6.34127338 3.19793856 -6.9802693 4.22699642 -8 8 C-8.66 7.67 -9.32 7.34 -10 7 C-9.67 4.69 -9.34 2.38 -9 0 C-5.62182575 -0.84454356 -3.32534757 -1.10844919 0 0 Z " fill="#D7D7D7" transform="translate(142,51)"/>
<path d="M0 0 C0 0.99 0 1.98 0 3 C-3.33333333 4.66666667 -6.66666667 6.33333333 -10 8 C-8.60344703 4.50126729 -7.28739516 3.29108169 -3.875 1.75 C-3.15054688 1.41484375 -2.42609375 1.0796875 -1.6796875 0.734375 C-1.12539062 0.49203125 -0.57109375 0.2496875 0 0 Z " fill="#1E1E1E" transform="translate(256,78)"/>
<path d="M0 0 C1.32 0.66 2.64 1.32 4 2 C1.69 3.65 -0.62 5.3 -3 7 C-3.33 6.34 -3.66 5.68 -4 5 C-2.68 3.35 -1.36 1.7 0 0 Z " fill="#DDDDDD" transform="translate(260,52)"/>
<path d="M0 0 C-0.50603992 2.16874252 -0.99983813 3.99967627 -2 6 C-3.65 5.67 -5.3 5.34 -7 5 C-2.25 0 -2.25 0 0 0 Z " fill="#151515" transform="translate(267,39)"/>
<path d="M0 0 C2.475 0.99 2.475 0.99 5 2 C5 3.65 5 5.3 5 7 C4.34 7 3.68 7 3 7 C0 2.61538462 0 2.61538462 0 0 Z " fill="#E7E7E7" transform="translate(133,239)"/>
<path d="M0 0 C2.475 0.495 2.475 0.495 5 1 C4.67 2.32 4.34 3.64 4 5 C2.68 4.67 1.36 4.34 0 4 C0 2.68 0 1.36 0 0 Z " fill="#DFDFDF" transform="translate(104,259)"/>
<path d="M0 0 C0.33 0 0.66 0 1 0 C0.67 2.31 0.34 4.62 0 7 C-0.99 7.33 -1.98 7.66 -3 8 C-2.25 2.25 -2.25 2.25 0 0 Z " fill="#111111" transform="translate(52,90)"/>
<path d="M0 0 C1.65 0 3.3 0 5 0 C4.67 1.32 4.34 2.64 4 4 C2.35 3.67 0.7 3.34 -1 3 C-0.67 2.01 -0.34 1.02 0 0 Z " fill="#E8E8E8" transform="translate(189,259)"/>
<path d="M0 0 C0.99 0.33 1.98 0.66 3 1 C1.69593116 3.01920337 0.36176581 5.01924973 -1 7 C-1.33 7 -1.66 7 -2 7 C-2.125 4.625 -2.125 4.625 -2 2 C-1.34 1.34 -0.68 0.68 0 0 Z " fill="#E9E9E9" transform="translate(162,239)"/>
<path d="M0 0 C1.98 0.66 3.96 1.32 6 2 C5.67 2.99 5.34 3.98 5 5 C2.525 4.01 2.525 4.01 0 3 C0 2.01 0 1.02 0 0 Z " fill="#747474" transform="translate(84,231)"/>
<path d="M0 0 C-1.25 1.5 -1.25 1.5 -3 3 C-4.32 3 -5.64 3 -7 3 C-6.67 2.01 -6.34 1.02 -6 0 C-3 -1 -3 -1 0 0 Z " fill="#0D0D0D" transform="translate(214,188)"/>
</svg>
