<?xml version="1.0" encoding="UTF-8"?>
<svg version="1.1" xmlns="http://www.w3.org/2000/svg" width="512" height="512">
<path d="M0 0 C1.68630577 -0.00542843 3.37260679 -0.01255512 5.05889893 -0.02124023 C9.61240303 -0.03938533 14.1655423 -0.03244422 18.71905231 -0.01972389 C23.49416865 -0.009557 28.26925493 -0.01899916 33.04437256 -0.02526855 C41.05698222 -0.03253142 49.06944406 -0.02299009 57.08203125 -0.00390625 C66.34011148 0.01788962 75.59783969 0.01078599 84.85591149 -0.01121187 C92.81710579 -0.02936924 100.77819422 -0.03192344 108.73940253 -0.0214572 C113.48915107 -0.01522794 118.23873414 -0.01437162 122.98847198 -0.02760315 C127.45052828 -0.03916699 131.91213057 -0.03112633 136.37413788 -0.00802612 C138.00997667 -0.00274315 139.64585376 -0.0042458 141.28167725 -0.01307678 C143.51725756 -0.02403208 145.75138909 -0.01027154 147.98687744 0.00964355 C149.23674564 0.01115166 150.48661385 0.01265976 151.77435684 0.01421356 C158.53348379 1.0159104 162.24879138 5.36280885 166.17089844 10.51757812 C167.62332406 13.42242937 167.31033835 15.96086244 167.32479858 19.2071228 C167.32918084 19.90273587 167.33356309 20.59834893 167.33807814 21.31504118 C167.35148628 23.65778405 167.35764968 26.00048927 167.36376953 28.34326172 C167.37166937 30.01864798 167.37993825 31.69403253 167.3885498 33.36941528 C167.41479944 38.88493214 167.43008757 44.40045667 167.44433594 49.91601562 C167.44969577 51.81580231 167.45507328 53.71558894 167.46046829 55.61537552 C167.48210775 63.52295715 167.50084096 71.43053672 167.51209068 79.33814049 C167.52830362 90.65982152 167.56140446 101.98115788 167.61849153 113.30270898 C167.65727545 121.26720215 167.67673378 129.23160349 167.68201125 137.19618857 C167.68565521 141.94969877 167.69757316 146.70284161 167.73011398 151.45624924 C167.76034091 155.93627641 167.76645473 160.41571685 167.75473022 164.89582443 C167.75451066 166.5323913 167.76271803 168.16898653 167.78038406 169.80545807 C167.90872753 182.38873066 166.10586209 193.6678581 157.00195312 203.11279297 C149.97679041 209.08018282 142.03902135 213.86174629 134.29589844 218.83007812 C132.34877626 220.09343715 130.40266461 221.35835488 128.45751953 222.62475586 C125.4386977 224.5900599 122.41934327 226.55447332 119.3968811 228.51417542 C108.46460001 235.60511928 97.62817831 242.83768653 86.79589844 250.08007812 C84.99799511 251.28052107 83.19998373 252.48080221 81.40185547 253.6809082 C77.66410466 256.17573635 73.92706812 258.67162885 70.19082642 261.16871643 C68.17089844 262.51757812 68.17089844 262.51757812 64.97633362 263.82548523 C61.6264805 267.04000105 61.69697713 267.95057097 61.43159485 272.44952393 C61.40546681 275.02274071 61.41180318 277.58331409 61.44555664 280.15527344 C61.44229714 281.57144498 61.43636047 282.98761251 61.427948 284.40376282 C61.4155395 287.45259531 61.42198668 290.50060143 61.44301796 293.54938507 C61.47609101 298.37440876 61.46677907 303.19878552 61.45170593 308.02386475 C61.43281729 315.66062424 61.44185671 323.29705148 61.46302718 330.93379569 C61.5006689 344.59512965 61.50484172 358.25641503 61.47817487 371.91777301 C61.47010305 376.70930928 61.47863854 381.50044192 61.50073779 386.29193068 C61.51186385 389.28053833 61.51082767 392.26905895 61.50686264 395.25768089 C61.50764568 396.63791135 61.51355978 398.0181505 61.52514076 399.3983326 C61.65418365 415.42917878 61.65418365 415.42917878 56.41699219 421.57617188 C55.82015625 422.03121094 55.22332031 422.48625 54.60839844 422.95507812 C54.00898438 423.42816406 53.40957031 423.90125 52.79199219 424.38867188 C41.04232269 432.57097184 14.66172463 429.75528905 0.79589844 430.33007812 C-0.38548958 430.37990215 -1.56687759 430.42972618 -2.78406525 430.48106003 C-31.11758397 431.53822493 -55.3250049 430.83594594 -77.21757889 411.217062 C-90.70360565 398.63648525 -102.42156393 383.97819039 -113.0105896 368.91566467 C-114.60563856 366.44494926 -114.60563856 366.44494926 -116.82910156 365.51757812 C-115.3425665 362.05127978 -113.37187805 359.82735776 -110.69628906 357.18945312 C-109.890625 356.39023437 -109.08496094 355.59101563 -108.25488281 354.76757812 C-106.99224609 353.53007813 -106.99224609 353.53007813 -105.70410156 352.26757812 C-104.85460937 351.42710937 -104.00511719 350.58664062 -103.12988281 349.72070312 C-101.03405233 347.6484213 -98.93369443 345.5809542 -96.82910156 343.51757812 C-101.93358978 337.33622943 -107.51205098 331.71934935 -113.20410156 326.08007812 C-114.1309375 325.15775391 -115.05777344 324.23542969 -116.01269531 323.28515625 C-118.28256002 321.02699188 -120.55473694 318.77120871 -122.82910156 316.51757812 C-126.29539991 318.00411319 -128.51932193 319.97480164 -131.15722656 322.65039062 C-131.95644531 323.45605469 -132.75566406 324.26171875 -133.57910156 325.09179688 C-134.40410156 325.93355469 -135.22910156 326.7753125 -136.07910156 327.64257812 C-136.91957031 328.49207031 -137.76003906 329.3415625 -138.62597656 330.21679688 C-140.69825839 332.31262736 -142.76572549 334.41298526 -144.82910156 336.51757812 C-148.69238783 334.93284233 -151.11787079 332.45800926 -154.03222656 329.50976562 C-154.51487976 329.02428253 -154.99753296 328.53879944 -155.49481201 328.03860474 C-157.02768718 326.49457946 -158.5534416 324.94372988 -160.07910156 323.39257812 C-161.12030517 322.34133804 -162.16196697 321.29055155 -163.20410156 320.24023438 C-165.7510962 317.67124809 -168.29175333 315.09609651 -170.82910156 312.51757812 C-166.4446763 307.26582887 -161.82068064 302.38535339 -156.95410156 297.58007812 C-155.9215625 296.55430664 -155.9215625 296.55430664 -154.86816406 295.5078125 C-153.19076645 293.84206348 -151.51106366 292.17871593 -149.82910156 290.51757812 C-154.79105011 284.52256816 -160.17676396 279.05330775 -165.70410156 273.58007812 C-166.58324219 272.70544922 -167.46238281 271.83082031 -168.36816406 270.9296875 C-170.51953616 268.79000764 -172.67321948 266.65271215 -174.82910156 264.51757812 C-175.48265625 265.17113281 -176.13621094 265.8246875 -176.80957031 266.49804688 C-186.31933594 276.0078125 -186.31933594 276.0078125 -195.82910156 285.51757812 C-199.68921154 283.72448817 -202.14347992 281.43734664 -205.14160156 278.39257812 C-206.04523438 277.4825 -206.94886719 276.57242187 -207.87988281 275.63476562 C-209.98853199 273.4482632 -211.98310028 271.19012625 -213.95776367 268.88232422 C-218.01224779 264.23642099 -222.33803481 259.89986455 -226.71972656 255.56445312 C-227.95937164 254.33048798 -227.95937164 254.33048798 -229.22406006 253.07159424 C-231.83997786 250.46779834 -234.45912504 247.86728964 -237.07910156 245.26757812 C-240.54552409 241.82775219 -244.00862028 238.38462719 -247.46972656 234.93945312 C-248.26348694 234.15399109 -249.05724731 233.36852905 -249.87506104 232.55926514 C-250.61302917 231.82460022 -251.35099731 231.0899353 -252.11132812 230.33300781 C-252.75861877 229.69095398 -253.40590942 229.04890015 -254.07281494 228.38739014 C-254.65238953 227.77035217 -255.23196411 227.15331421 -255.82910156 226.51757812 C-256.67313789 225.71501587 -256.67313789 225.71501587 -257.53422546 224.89624023 C-259.65323116 221.00366815 -259.27116177 217.00356808 -259.26489258 212.64355469 C-259.27496841 211.64144958 -259.28504425 210.63934448 -259.29542542 209.60687256 C-259.32394568 206.2905362 -259.32978453 202.97465453 -259.33300781 199.65820312 C-259.34264765 197.35137749 -259.35274004 195.0445537 -259.36326599 192.73773193 C-259.38123869 187.89900462 -259.38678599 183.06043803 -259.38500977 178.22167969 C-259.38470522 172.02973628 -259.42562606 165.83882747 -259.47732639 159.64712906 C-259.51073414 154.88062842 -259.51676592 150.11437642 -259.51518059 145.34777069 C-259.51871514 143.06565542 -259.53195364 140.78353334 -259.55517769 138.50153351 C-259.58467274 135.30335304 -259.57591079 132.1073983 -259.55786133 128.90917969 C-259.58314911 127.50303406 -259.58314911 127.50303406 -259.60894775 126.06848145 C-259.52704561 120.33893677 -258.48041138 116.58005067 -254.68282509 112.1995945 C-248.41032658 106.5081065 -242.02967213 106.10070263 -233.81846619 106.42298889 C-231.89920067 106.52951027 -231.89920067 106.52951027 -229.94116211 106.63818359 C-228.5568155 106.69832303 -227.17235812 106.75595634 -225.78781128 106.81129456 C-222.8181349 106.93097521 -219.84903812 107.05978482 -216.87994957 107.19320297 C-212.15532981 107.39675222 -207.43045353 107.52626777 -202.70283508 107.63650513 C-201.90064645 107.65531199 -201.09845782 107.67411886 -200.27196044 107.69349563 C-196.96500558 107.7697306 -193.65800228 107.84368171 -190.35098207 107.91702247 C-181.02524697 108.12731691 -171.71345155 108.40692751 -162.39770508 108.89355469 C-126.14988245 112.47829388 -126.14988245 112.47829388 -93.15914917 101.63882446 C-83.65926704 92.51633263 -78.10991207 80.63097052 -73.08078003 68.64538574 C-70.19962381 61.84248731 -66.26644355 56.11348552 -61.99707031 50.10742188 C-60.79023734 48.28539559 -59.59128186 46.45811994 -58.40136719 44.625 C-57.84360596 43.77349365 -57.28584473 42.9219873 -56.71118164 42.04467773 C-55.54311857 40.25968349 -54.37584805 38.47417045 -53.20922852 36.68823242 C-51.43354464 33.97157161 -49.65315209 31.25804574 -47.87207031 28.54492188 C-47.36169724 27.76068344 -46.85132416 26.97644501 -46.32548523 26.16844177 C-33.87822809 7.24023007 -22.81775567 -0.1238501 0 0 Z " fill="#2A64E0" transform="translate(301.8291015625,42.482421875)"/>
<path d="M0 0 C1.86769295 -0.00618599 1.86769295 -0.00618599 3.77311707 -0.01249695 C5.13977271 -0.00188168 6.50642613 0.00902272 7.87307739 0.02018738 C9.32221967 0.02103423 10.77136323 0.02055737 12.22050476 0.01885986 C16.14369154 0.01800075 20.06660196 0.03561278 23.98972464 0.05658174 C28.09366033 0.07536257 32.19760267 0.07710008 36.30157471 0.08065796 C44.06815748 0.0899743 51.83461324 0.11458249 59.60114014 0.14470643 C68.44510759 0.17826325 77.28908117 0.19473967 86.13309646 0.20979273 C104.32139773 0.24113243 122.50958086 0.29388491 140.69778442 0.36076355 C139.9020883 1.80292712 139.10518379 3.24442402 138.30776978 4.68563843 C137.86412331 5.48844333 137.42047684 6.29124823 136.96338654 7.11838055 C135.51149165 9.6908355 133.94540797 12.15183185 132.29153442 14.5990448 C131.64506958 15.56132996 130.99860474 16.52361511 130.33255005 17.51506042 C129.27584106 19.07837097 129.27584106 19.07837097 128.19778442 20.67326355 C126.59118091 23.06355916 124.98802053 25.45615474 123.38528442 27.8490448 C122.94841309 28.5008371 122.51154175 29.15262939 122.06143188 29.82417297 C116.35862123 38.34378758 110.73090317 46.91302011 105.09533691 55.47718811 C88.46556227 80.74827282 88.46556227 80.74827282 81.06838989 91.83732605 C79.63863284 93.98116217 78.21176252 96.12692698 76.78811646 98.27482605 C73.65840577 102.98625071 70.50006831 107.66791186 67.22685242 112.28123474 C66.06775795 113.91840124 64.92040625 115.56386097 63.77322388 117.20939636 C62.35942482 119.2341737 60.9258461 121.24536035 59.4680481 123.23869324 C55.05866741 129.60358759 53.39990106 134.60749322 54.69778442 142.36076355 C56.56934749 147.79000025 60.59001199 151.53306651 64.69778442 155.36076355 C60.75181623 164.3889735 51.63095837 171.57510394 44.69778442 178.36076355 C40.78569134 176.76660852 38.32560357 174.22183023 35.38528442 171.23576355 C34.48165161 170.32568542 33.5780188 169.4156073 32.64700317 168.47795105 C30.53835399 166.29144863 28.5437857 164.03331168 26.56912231 161.72550964 C22.5146382 157.07960641 18.18885118 152.74304997 13.80715942 148.40763855 C12.56751434 147.1736734 12.56751434 147.1736734 11.30282593 145.91477966 C8.68690813 143.31098376 6.06776095 140.71047506 3.44778442 138.11076355 C-0.0186381 134.67093762 -3.48173429 131.22781261 -6.94284058 127.78263855 C-8.13348114 126.6044455 -8.13348114 126.6044455 -9.34817505 125.40245056 C-10.08614319 124.66778564 -10.82411133 123.93312073 -11.58444214 123.17619324 C-12.23173279 122.5341394 -12.87902344 121.89208557 -13.54592896 121.23057556 C-14.41529083 120.30501862 -14.41529083 120.30501862 -15.30221558 119.36076355 C-15.86490646 118.82572205 -16.42759735 118.29068054 -17.00733948 117.73942566 C-19.12634517 113.84685357 -18.74427578 109.8467535 -18.73800659 105.48674011 C-18.74808243 104.48463501 -18.75815826 103.48252991 -18.76853943 102.45005798 C-18.79705969 99.13372162 -18.80289854 95.81783996 -18.80612183 92.50138855 C-18.81576167 90.19456291 -18.82585405 87.88773912 -18.83638 85.58091736 C-18.85435271 80.74219004 -18.85990001 75.90362346 -18.85812378 71.06486511 C-18.85781924 64.8729217 -18.89874007 58.68201289 -18.95044041 52.49031448 C-18.98384816 47.72381384 -18.98987993 42.95756184 -18.9882946 38.19095612 C-18.99182916 35.90884085 -19.00506766 33.62671877 -19.0282917 31.34471893 C-19.05778675 28.14653846 -19.04902481 24.95058373 -19.03097534 21.75236511 C-19.04783386 20.81493469 -19.06469238 19.87750427 -19.08206177 18.91166687 C-18.99879325 13.08653612 -17.77070857 9.63072846 -14.17503262 5.03840256 C-9.83531446 1.1509537 -5.73160095 -0.01469641 0 0 Z " fill="#144ABE" transform="translate(61.302215576171875,149.6392364501953)"/>
<path d="M0 0 C0.09345796 19.19313472 0.16398637 38.38622324 0.20724869 57.57953835 C0.22787042 66.49141676 0.25598356 75.40315376 0.30175781 84.31494141 C0.34163752 92.08282579 0.36743564 99.85060775 0.37635398 107.61859167 C0.38156683 111.73139778 0.39381064 115.8439109 0.42292023 119.95662308 C0.4501074 123.82917108 0.45843843 127.7013059 0.45243073 131.57394028 C0.4535295 132.99371843 0.46146408 134.41351066 0.4768219 135.83320618 C0.61361844 149.13329246 0.61361844 149.13329246 -4 154 C-16.54524094 165.05175987 -43.41847613 162.15104388 -59.375 162.8125 C-60.55638802 162.86232403 -61.73777603 162.91214806 -62.95496368 162.9634819 C-91.2884824 164.02064681 -115.49590334 163.31836782 -137.38847733 143.69948387 C-150.87450409 131.11890712 -162.59246236 116.46061227 -173.18148804 101.39808655 C-174.776537 98.92737114 -174.776537 98.92737114 -177 98 C-175.51346494 94.53370165 -173.54277649 92.30977964 -170.8671875 89.671875 C-170.06152344 88.87265625 -169.25585938 88.0734375 -168.42578125 87.25 C-167.58402344 86.425 -166.74226562 85.6 -165.875 84.75 C-165.02550781 83.90953125 -164.17601562 83.0690625 -163.30078125 82.203125 C-161.20495077 80.13084317 -159.10459287 78.06337607 -157 76 C-153.82646155 77.51718498 -151.48271645 79.18779244 -148.875 81.5625 C-144.38416254 85.63814682 -141.49633092 86.71602391 -135.3828125 86.66015625 C-128.92761841 85.40042438 -123.80795728 81.40290218 -118.47827148 77.70849609 C-115.43941869 75.61354074 -112.37240752 73.56203626 -109.30078125 71.515625 C-108.66638626 71.09293335 -108.03199127 70.6702417 -107.37837219 70.23474121 C-99.19785816 64.79198499 -90.98639701 59.39607915 -82.77850342 53.99475098 C-68.78477751 44.78505326 -54.80232936 35.55984561 -40.875 26.25 C-31.92006785 20.26627406 -22.95026758 14.30625826 -13.94317627 8.40124512 C-12.78330108 7.64068312 -11.62390839 6.87938475 -10.46502686 6.11730957 C-8.88839917 5.08103987 -7.30949812 4.0482314 -5.73046875 3.015625 C-4.83739014 2.43071289 -3.94431152 1.84580078 -3.02416992 1.24316406 C-1 0 -1 0 0 0 Z " fill="#1046BD" transform="translate(362,310)"/>
<path d="M0 0 C13.31798435 8.96965271 21.98336826 21.13732291 25.66796875 36.796875 C25.93403242 39.7825092 25.94830561 42.73861006 25.91796875 45.734375 C25.92957031 46.87422852 25.92957031 46.87422852 25.94140625 48.03710938 C25.89141217 62.67287604 19.61064016 75.48691242 9.640625 85.91796875 C-1.53830376 96.61173604 -15.87363367 101.39025401 -31.19165039 101.2824707 C-45.83932671 100.68890473 -58.9935107 93.59162396 -69.14453125 83.234375 C-79.71559263 70.07340358 -83.95918337 54.4345054 -82.33203125 37.796875 C-79.64549113 23.84518367 -71.97546256 11.40581444 -60.66015625 2.75390625 C-42.13238444 -9.51943411 -19.54623783 -11.39492076 0 0 Z " fill="#93B1F1" transform="translate(382.33203125,111.203125)"/>
<path d="M0 0 C3.06353932 1.4318506 5.20789158 3.83683157 7.53086472 6.23112488 C8.05791 6.76241501 8.58495529 7.29370514 9.12797165 7.84109497 C10.80591159 9.53579688 12.473107 11.24064079 14.14023972 12.94596863 C15.27756716 14.09834608 16.41558038 15.25004715 17.55430222 16.40104675 C20.34095963 19.22074047 23.11802763 22.04957451 25.89023972 24.88346863 C20.77583514 31.07002887 15.19334411 36.71555726 9.5103569 42.37687683 C8.46818022 43.41877097 7.42622462 44.4608863 6.38447189 45.50320435 C3.57296701 48.31499465 0.75840226 51.12370349 -2.05674458 53.93184686 C-5.00710591 56.87592878 -7.95460865 59.82286986 -10.90242386 62.76950073 C-16.47939251 68.34336834 -22.05890355 73.91468368 -27.63934588 79.48507327 C-33.98739361 85.82193339 -40.33259407 92.16164126 -46.67755747 98.50158942 C-59.19045113 111.00447465 -71.70656732 123.50412885 -84.22498322 136.00148487 C-85.52040301 137.29498481 -86.81530006 138.58900841 -88.10976028 139.88346863 C-88.72174271 140.16947937 -89.33372513 140.45549011 -89.96425247 140.75016785 C-92.60928002 142.14732509 -94.33866451 143.88707149 -96.43788528 146.01628113 C-97.63671341 147.22477722 -97.63671341 147.22477722 -98.85976028 148.45768738 C-99.68476028 149.29944519 -100.50976028 150.141203 -101.35976028 151.00846863 C-102.20022903 151.85796082 -103.04069778 152.707453 -103.90663528 153.58268738 C-105.97891711 155.67851786 -108.04638421 157.77887576 -110.10976028 159.88346863 C-113.97304656 158.29873283 -116.39852951 155.82389976 -119.31288528 152.87565613 C-119.79553848 152.39017303 -120.27819168 151.90468994 -120.77547073 151.40449524 C-122.3083459 149.86046997 -123.83410032 148.30962039 -125.35976028 146.75846863 C-126.40096389 145.70722854 -127.44262569 144.65644206 -128.48476028 143.60612488 C-131.03175493 141.03713859 -133.57241205 138.46198701 -136.10976028 135.88346863 C-131.1234753 129.89526657 -125.7407564 124.46863341 -120.14882278 119.04948425 C-119.17429153 118.09138855 -119.17429153 118.09138855 -118.18007278 117.11393738 C-117.29472855 116.25385071 -117.29472855 116.25385071 -116.39149857 115.37638855 C-114.89262554 113.9585007 -114.89262554 113.9585007 -115.10976028 111.88346863 C-113.72831726 110.52426147 -113.72831726 110.52426147 -111.76497269 108.9115448 C-106.42972183 104.36963606 -101.54746033 99.41515866 -96.62636185 94.43424988 C-95.5974634 93.39686622 -94.56829615 92.3597491 -93.53888321 91.32287598 C-91.3381901 89.10557769 -89.13891049 86.88689042 -86.94060898 84.66722107 C-83.46529431 81.15910239 -79.98386337 77.6570968 -76.50105667 74.15641785 C-75.30577831 72.95487995 -74.11050015 71.75334186 -72.91522217 70.55180359 C-72.31715681 69.9506221 -71.71909144 69.34944061 -71.10290289 68.7300415 C-63.00505398 60.58924361 -54.91190403 52.44385532 -46.83290482 44.28434753 C-41.36761095 38.76468662 -35.89356621 33.25387293 -30.40921187 27.75314808 C-27.51061418 24.84516228 -24.61681379 21.93272821 -21.73373032 19.00935364 C-19.02909064 16.26701357 -16.31317695 13.53638203 -13.58799553 10.81445885 C-12.58869581 9.81217739 -11.59370914 8.80557502 -10.60333443 7.79447365 C-9.25482655 6.41899862 -7.88942926 5.0601417 -6.5231514 3.70231628 C-5.76292301 2.93618011 -5.00269463 2.17004395 -4.21942902 1.38069153 C-2.10976028 -0.11653137 -2.10976028 -0.11653137 0 0 Z " fill="#4F82F0" transform="translate(267.1097602844238,219.1165313720703)"/>
<path d="M0 0 C11.55 0 23.1 0 35 0 C35 23.43 35 46.86 35 71 C58.43 71 81.86 71 106 71 C106 82.55 106 94.1 106 106 C71.02 106 36.04 106 0 106 C0 71.02 0 36.04 0 0 Z " fill="#90AFF1" transform="translate(43,363)"/>
<path d="M0 0 C0.99 0.495 0.99 0.495 2 1 C-34.63 37.63 -71.26 74.26 -109 112 C-107.09035979 115.81928041 -105.48842528 117.74530645 -102.5 120.6953125 C-101.613125 121.57574219 -100.72625 122.45617187 -99.8125 123.36328125 C-98.884375 124.27464844 -97.95625 125.18601562 -97 126.125 C-95.6078125 127.50365234 -95.6078125 127.50365234 -94.1875 128.91015625 C-92.47099107 130.60920069 -90.75244289 132.30618903 -89.03125 134.00048828 C-87.68228194 135.32837872 -86.33847074 136.66152926 -85 138 C-85.62261719 138.51433594 -85.62261719 138.51433594 -86.2578125 139.0390625 C-93.58544257 145.26294913 -100.250335 152.1650162 -107 159 C-110.86328627 157.4152642 -113.28876923 154.94043113 -116.203125 151.9921875 C-116.6857782 151.50670441 -117.1684314 151.02122131 -117.66571045 150.52102661 C-119.19858562 148.97700134 -120.72434004 147.42615176 -122.25 145.875 C-123.29120361 144.82375991 -124.33286541 143.77297343 -125.375 142.72265625 C-127.92199464 140.15366996 -130.46265177 137.57851839 -133 135 C-128.01371501 129.01179794 -122.63099612 123.58516478 -117.0390625 118.16601562 C-116.06453125 117.20791992 -116.06453125 117.20791992 -115.0703125 116.23046875 C-114.18496826 115.37038208 -114.18496826 115.37038208 -113.28173828 114.49291992 C-111.78286525 113.07503208 -111.78286525 113.07503208 -112 111 C-110.61756134 109.63700771 -110.61756134 109.63700771 -108.65344238 108.02134705 C-103.3451821 103.50260413 -98.46162178 98.59434921 -93.54492188 93.65844727 C-92.51933944 92.63258216 -91.49353558 91.60693839 -90.4675293 90.58149719 C-87.70551788 87.81977063 -84.94658298 85.05498962 -82.18822289 82.28961682 C-79.29659928 79.39170758 -76.40211045 76.49666295 -73.50793457 73.6013031 C-68.03796399 68.12823449 -62.57054577 62.65262362 -57.10405779 57.17607683 C-50.87623389 50.93704415 -44.64554274 44.70087822 -38.41461849 38.4649421 C-25.60657042 25.64646427 -12.80209698 12.82442118 0 0 Z " fill="#7199F1" transform="translate(264,220)"/>
<path d="M0 0 C0.66 0.33 1.32 0.66 2 1 C-2.19877293 6.02669999 -6.64890058 10.78066345 -11.25 15.4375 C-11.76916992 15.96956055 -12.28833984 16.50162109 -12.82324219 17.04980469 C-15.19822524 19.43095252 -16.76396847 20.92132282 -20 22 C-18.51346494 18.53370165 -16.54277649 16.30977964 -13.8671875 13.671875 C-12.65869141 12.47304688 -12.65869141 12.47304688 -11.42578125 11.25 C-10.58402344 10.425 -9.74226562 9.6 -8.875 8.75 C-8.02550781 7.90953125 -7.17601562 7.0690625 -6.30078125 6.203125 C-4.20495077 4.13084317 -2.10459287 2.06337607 0 0 Z " fill="#1E4FBF" transform="translate(205,386)"/>
</svg>
