<?xml version="1.0" encoding="UTF-8"?>
<svg version="1.1" xmlns="http://www.w3.org/2000/svg" width="225" height="205">
<path d="M0 0 C12.90390166 7.22781833 20.37189757 16.78052179 27.23681641 29.5859375 C31.88317649 38.2299287 35.74436601 44.25929644 45.46875 47.3828125 C50.75384847 48.43447179 56.10392884 48.93685342 61.46875 49.3828125 C60.22076544 51.94593774 58.89902612 54.31508793 57.40625 56.7578125 C55.57044181 59.91758645 54.82651288 62.71574294 54.46875 66.3828125 C51.36527278 65.23337649 50.19933662 64.05813484 48.03125 61.4453125 C45.63084971 58.57654142 43.75404785 57.07239425 40.46875 55.3828125 C43.1050915 61.03411901 45.60973966 66.23855474 50.71875 70.0703125 C51.29625 70.5034375 51.87375 70.9365625 52.46875 71.3828125 C52.46875 72.0428125 52.46875 72.7028125 52.46875 73.3828125 C51.84226563 73.57617188 51.21578125 73.76953125 50.5703125 73.96875 C49.34441406 74.35933594 49.34441406 74.35933594 48.09375 74.7578125 C46.87558594 75.14066406 46.87558594 75.14066406 45.6328125 75.53125 C43.30415815 76.28135533 43.30415815 76.28135533 41.46875 78.3828125 C41.58834762 81.21220507 41.83253753 83.90149445 42.19140625 86.703125 C42.29154526 87.54598053 42.39168427 88.38883606 42.49485779 89.25723267 C42.82707094 92.00924334 43.17760279 94.75847911 43.53125 97.5078125 C43.64823242 98.43920044 43.76521484 99.37058838 43.88574219 100.3302002 C48.62545721 142.20879856 48.62545721 142.20879856 71.46875 176.3828125 C79.76341596 182.23133679 88.34658586 186.1681528 98.46875 187.3828125 C98.79875 189.0328125 99.12875 190.6828125 99.46875 192.3828125 C90.89983266 200.17273736 78.74049613 199.44542381 67.78125 199.8203125 C60.20286515 200.10854126 52.90707568 200.70013798 45.44140625 202.078125 C39.30438489 202.70714953 34.81786861 201.23567576 29.46875 198.3828125 C26.34406272 197.39189687 23.48791027 197.24847204 20.21875 197.2578125 C19.249375 197.2578125 18.28 197.2578125 17.28125 197.2578125 C14.80000609 197.36809001 12.63378922 197.72952267 10.21875 198.2578125 C6.11336901 198.39465853 5.8531584 198.27183756 3.03125 195.6953125 C2.45246094 195.14230469 1.87367187 194.58929688 1.27734375 194.01953125 C-5.48127472 187.90320049 -13.56814083 187.66853023 -22.28125 187.96875 C-27.22635783 188.3127768 -31.57205668 189.74316066 -36.11328125 191.703125 C-38.53125 192.3828125 -38.53125 192.3828125 -40.54296875 191.52734375 C-41.19910156 191.14964844 -41.85523437 190.77195313 -42.53125 190.3828125 C-53.06472448 188.73695711 -61.96627244 192.81986051 -70.53125 198.6328125 C-71.211875 199.13296875 -71.8925 199.633125 -72.59375 200.1484375 C-74.719854 201.5029715 -76.00068122 202.26184841 -78.53125 202.3828125 C-80.79296875 200.87109375 -80.79296875 200.87109375 -83.21875 198.6953125 C-90.64098116 192.43348916 -98.18563385 189.07282702 -107.99609375 189.1484375 C-113.59349725 189.66591702 -119.06931732 191.09404187 -124.53125 192.3828125 C-125.22485352 190.11694336 -125.22485352 190.11694336 -125.53125 187.3828125 C-124.28881836 185.46313477 -124.28881836 185.46313477 -122.43359375 183.63671875 C-118.55219125 179.52626249 -115.83402639 175.24357254 -113.09375 170.3203125 C-112.38617554 169.06879395 -112.38617554 169.06879395 -111.66430664 167.79199219 C-110.27684309 165.32758928 -108.90379012 162.85554701 -107.53125 160.3828125 C-106.8206003 159.12874312 -106.10969007 157.87482131 -105.3984375 156.62109375 C-90.39659794 129.50238377 -80.21855522 99.43162572 -69.25415039 70.51049805 C-58.92335145 43.2608871 -58.92335145 43.2608871 -53.53125 32.3828125 C-53.19206543 31.69638672 -52.85288086 31.00996094 -52.50341797 30.30273438 C-42.55647356 10.56320253 -24.56515664 -11.4052513 0 0 Z " fill="#070707" transform="translate(125.53125,2.6171875)"/>
<path d="M0 0 C-1 3 -1 3 -2 5 C-1.835 5.763125 -1.67 6.52625 -1.5 7.3125 C-0.95935156 10.21848539 -1.27033934 12.16243077 -2 15 C-1.01 15.495 -1.01 15.495 0 16 C-0.66 17.65 -1.32 19.3 -2 21 C-5.56986156 21 -6.02094908 20.3954571 -8.5625 18.0625 C-11.08999729 15.75540038 -11.08999729 15.75540038 -14 14 C-8.80001998 20.42761157 -8.80001998 20.42761157 -2 25 C-1.67 24.34 -1.34 23.68 -1 23 C-1 23.99 -1 24.98 -1 26 C-3.89234315 26.82638376 -5.88742431 27 -9 27 C-8.67 27.598125 -8.34 28.19625 -8 28.8125 C-7 31 -7 31 -7 34 C-7.66 34 -8.32 34 -9 34 C-9.25394531 33.45730469 -9.50789062 32.91460937 -9.76953125 32.35546875 C-10.11371094 31.64003906 -10.45789063 30.92460938 -10.8125 30.1875 C-11.14894531 29.47980469 -11.48539063 28.77210937 -11.83203125 28.04296875 C-13.03890548 25.93194794 -14.08679601 24.50120214 -16 23 C-20.07307228 23 -22.21265813 23.27826995 -25.25 26.0625 C-29.27576338 32.82003138 -31.13509112 39.07877275 -30 47 C-28.63987205 51.19532424 -27.13873167 54.86126833 -24 58 C-21.34462628 58.56520003 -18.70855287 58.73788198 -16 59 C-16.28875 59.680625 -16.5775 60.36125 -16.875 61.0625 C-18.5551539 65.44956852 -20.03039047 69.45008604 -19.9375 74.1875 C-20.01436263 77.64631821 -20.63706522 78.51867183 -23 81 C-33.24110667 85.71323659 -43.95637485 86.65809176 -54.63671875 83.046875 C-59.67898218 80.81327732 -63.91904287 78.0718345 -66.5 73.125 C-66.665 72.42375 -66.83 71.7225 -67 71 C-67.66 71 -68.32 71 -69 71 C-68.21292098 73.10588701 -67.42017374 75.20965616 -66.625 77.3125 C-65.96371094 79.07013672 -65.96371094 79.07013672 -65.2890625 80.86328125 C-64.08510352 84.08553593 -64.08510352 84.08553593 -62 87 C-62.495 88.485 -62.495 88.485 -63 90 C-63.66 88.35 -64.32 86.7 -65 85 C-65.66 85 -66.32 85 -67 85 C-62.70611832 91.7897004 -58.09264725 98.91834552 -50.125 101.640625 C-42.28705284 102.96616018 -34.16434659 102.5821733 -27 99 C-27.9977758 101.99332739 -28.7522025 102.94766315 -31 105 C-30.34 105 -29.68 105 -29 105 C-29 108.66666667 -29 112.33333333 -29 116 C-29.66 116 -30.32 116 -31 116 C-31.28875 117.11375 -31.5775 118.2275 -31.875 119.375 C-33 123 -33 123 -35 125 C-35.804375 124.814375 -36.60875 124.62875 -37.4375 124.4375 C-38.283125 124.293125 -39.12875 124.14875 -40 124 C-41.8354799 125.33378575 -41.8354799 125.33378575 -43 127 C-42.67 127.66 -42.34 128.32 -42 129 C-42.88042969 129.26554688 -43.76085937 129.53109375 -44.66796875 129.8046875 C-45.82941406 130.15789062 -46.99085937 130.51109375 -48.1875 130.875 C-49.91033203 131.39707031 -49.91033203 131.39707031 -51.66796875 131.9296875 C-54.48605869 132.83491217 -57.25179328 133.90071731 -60 135 C-59.67 128.4 -59.34 121.8 -59 115 C-59.4125 117.59875 -59.825 120.1975 -60.25 122.875 C-61.38444035 129.63957784 -62.99396446 135.78956109 -66 142 C-66.90621094 142.01417969 -67.81242187 142.02835938 -68.74609375 142.04296875 C-79.48776272 142.46354203 -85.92835506 144.96985764 -94 152 C-93.39368133 143.37101419 -92.35553643 134.86384503 -91.0625 126.3125 C-90.80823242 124.57516602 -90.80823242 124.57516602 -90.54882812 122.80273438 C-89.69759405 117.10302638 -88.76181462 111.48471934 -87.36499023 105.89135742 C-86.87367868 103.66645271 -86.87367868 103.66645271 -87 100 C-89.14009041 109.96052716 -91.21593056 119.92984255 -93.125 129.9375 C-93.29338379 130.81921875 -93.46176758 131.7009375 -93.63525391 132.609375 C-94.72129495 138.36116962 -95.69498023 144.12031818 -96.5078125 149.91796875 C-97 152 -97 152 -99 154 C-99.99 153.401875 -100.98 152.80375 -102 152.1875 C-111.04399272 147.09459027 -118.91413651 145.39972829 -129.125 148.25 C-132.41470467 149.3292722 -135.4299958 150.65404114 -138.5 152.25 C-139.655 152.8275 -140.81 153.405 -142 154 C-142.66 153.67 -143.32 153.34 -144 153 C-142.74896484 151.67935547 -142.74896484 151.67935547 -141.47265625 150.33203125 C-136.90805339 145.00107886 -133.7696387 138.82740532 -130.4375 132.6875 C-129.78521254 131.50286546 -129.13222152 130.31861803 -128.47851562 129.13476562 C-122.37129694 118.00757472 -117.03176596 106.96431505 -112.4375 95.125 C-111.96892578 93.93519531 -111.50035156 92.74539062 -111.01757812 91.51953125 C-108.49977908 85.07537426 -106.17903582 78.60787866 -104.0300293 72.03271484 C-102.10550634 66.36634268 -99.8884325 60.81355328 -97.6875 55.25 C-97.20474609 54.02442383 -96.72199219 52.79884766 -96.22460938 51.53613281 C-93.12486062 43.71226762 -89.90666121 35.96372128 -86.4375 28.296875 C-85.38238495 25.87699158 -84.42081823 23.48889727 -83.51171875 21.015625 C-82.12477416 17.25377529 -80.51481691 13.6316094 -78.8125 10 C-78.28269531 8.865625 -77.75289063 7.73125 -77.20703125 6.5625 C-76.80871094 5.716875 -76.41039063 4.87125 -76 4 C-71.64355555 4.49318239 -67.40486862 5.11600038 -63.11328125 6.01171875 C-43.9478254 9.51001002 -23.24248321 8.3174687 -5.19140625 0.8359375 C-3 0 -3 0 0 0 Z " fill="#F1F1F1" transform="translate(150,35)"/>
<path d="M0 0 C3 1 3 1 4.68359375 4.078125 C5.28594908 5.46116676 5.86927847 6.85258784 6.4375 8.25 C6.74316895 8.9912915 7.04883789 9.73258301 7.36376953 10.49633789 C10.7114034 19.09604917 12.22407016 28.02790071 13.63037109 37.11499023 C13.92853619 39.07936129 13.92853619 39.07936129 15 41 C15.29493342 43.34909934 15.53687596 45.70492682 15.75390625 48.0625 C15.81907944 48.76842285 15.88425262 49.4743457 15.95140076 50.20166016 C16.0886745 51.70115156 16.22387559 53.20083391 16.35717773 54.70068359 C16.55927145 56.96384489 16.77035183 59.22603576 16.98242188 61.48828125 C17.67096891 69.00899782 18.17249697 76.44013276 18 84 C16 84 16 84 14.4921875 82.5390625 C13.95851563 81.90742187 13.42484375 81.27578125 12.875 80.625 C12.33617187 79.99851562 11.79734375 79.37203125 11.2421875 78.7265625 C10 77 10 77 10 75 C9.34 75 8.68 75 8 75 C7.56581332 91.09997616 7.7051884 106.8903358 9.8125 122.875 C9.97782227 124.15576416 10.14314453 125.43652832 10.31347656 126.75610352 C11.06741285 132.09719545 11.91488911 137.15769672 13.69921875 142.2578125 C14.34310547 144.11019531 14.34310547 144.11019531 15 146 C14.67 146.66 14.34 147.32 14 148 C13.26136719 147.566875 12.52273437 147.13375 11.76171875 146.6875 C3.18718465 141.98076718 -3.49980643 140.53350723 -13 143 C-14.55996698 137.45621297 -15.35408463 132.50037501 -15.3125 126.75 C-15.31121094 125.98929199 -15.30992187 125.22858398 -15.30859375 124.44482422 C-15.1690616 115.85138798 -13.78642656 107.44876071 -12.27539062 99.00439453 C-11.90925686 96.67674203 -11.90925686 96.67674203 -12 93 C-14.73733831 107.692982 -16.66925019 122.05010857 -17 137 C-19.530814 135.76491866 -21.89343494 134.46056758 -24.3125 133 C-30.35817498 129.91382687 -37.33834415 129.65922636 -44 129 C-42.625 127 -42.625 127 -41 125 C-40.34 125 -39.68 125 -39 125 C-38.505 123.515 -38.505 123.515 -38 122 C-37.505 122.99 -37.505 122.99 -37 124 C-34.52372901 123.36078035 -34.52372901 123.36078035 -32 122 C-30.83046584 119.57616923 -30.83046584 119.57616923 -30 117 C-29.443125 116.484375 -28.88625 115.96875 -28.3125 115.4375 C-27.879375 114.963125 -27.44625 114.48875 -27 114 C-27.36707617 112.11280345 -27.36707617 112.11280345 -28 110 C-27.72949547 107.99053778 -27.40632091 105.98645776 -27 104 C-27.66 104 -28.32 104 -29 104 C-28 101 -28 101 -27 100 C-28.36125 100.495 -28.36125 100.495 -29.75 101 C-36.3103361 102.85342829 -43.22056374 102.78750694 -49.75 100.9375 C-56.14390999 97.12574597 -61.35553738 92.5296622 -65 86 C-65 85.34 -65 84.68 -65 84 C-64.34 84 -63.68 84 -63 84 C-62.34 85.32 -61.68 86.64 -61 88 C-61.28617187 87.29230469 -61.57234375 86.58460937 -61.8671875 85.85546875 C-62.99181211 83.02063914 -64.07087341 80.17425849 -65.125 77.3125 C-65.47820312 76.35988281 -65.83140625 75.40726562 -66.1953125 74.42578125 C-67 72 -67 72 -67 70 C-66.34 70 -65.68 70 -65 70 C-64.34 71.051875 -63.68 72.10375 -63 73.1875 C-59.37427014 78.5073953 -53.64577695 81.10564534 -47.5 82.61328125 C-38.23589649 84.04632226 -29.60490615 82.7892002 -21 79 C-18.7615311 75.64229665 -18.95378891 74.03902916 -19.0546875 70.1328125 C-18.94411164 65.82035413 -18.06294136 62.06294136 -15 59 C-16.051875 58.95875 -17.10375 58.9175 -18.1875 58.875 C-23.06529489 57.75550609 -24.27799615 56.12189155 -27 52 C-29.82521485 46.08050222 -29.92037818 39.60307141 -28.3125 33.30859375 C-26.28706574 27.64581714 -24.16375121 24.16148033 -19 21 C-16.5 20.25 -16.5 20.25 -14 21 C-10.70122217 23.87442049 -8.37972108 26.72522208 -7.125 30.9375 C-7.08375 31.618125 -7.0425 32.29875 -7 33 C-6.34 33 -5.68 33 -5 33 C-5.99 30.69 -6.98 28.38 -8 26 C-5.42786866 24.38050989 -4.32330841 23.95591249 -1.25 24.375 C-0.5075 24.58125 0.235 24.7875 1 25 C0.26394531 24.7525 -0.47210938 24.505 -1.23046875 24.25 C-4.26353941 22.88105415 -5.99790209 21.37126415 -8.3125 19 C-9.00988281 18.29875 -9.70726562 17.5975 -10.42578125 16.875 C-12 15 -12 15 -12 13 C-7.40693504 14.4859916 -4.56430755 16.85014682 -1 20 C-0.01 17.525 -0.01 17.525 1 15 C0.505 14.505 0.505 14.505 0 14 C-0.26149658 12.02715358 -0.45992624 10.04574333 -0.625 8.0625 C-0.72039062 6.98097656 -0.81578125 5.89945313 -0.9140625 4.78515625 C-1 2 -1 2 0 0 Z " fill="#9E9E9E" transform="translate(148,36)"/>
<path d="M0 0 C3 1 3 1 4.68359375 4.078125 C5.28594908 5.46116676 5.86927847 6.85258784 6.4375 8.25 C6.74316895 8.9912915 7.04883789 9.73258301 7.36376953 10.49633789 C10.7114034 19.09604917 12.22407016 28.02790071 13.63037109 37.11499023 C13.92853619 39.07936129 13.92853619 39.07936129 15 41 C15.29493342 43.34909934 15.53687596 45.70492682 15.75390625 48.0625 C15.85166603 49.12138428 15.85166603 49.12138428 15.95140076 50.20166016 C16.0886745 51.70115156 16.22387559 53.20083391 16.35717773 54.70068359 C16.55927145 56.96384489 16.77035183 59.22603576 16.98242188 61.48828125 C17.67096891 69.00899782 18.17249697 76.44013276 18 84 C16 84 16 84 14.4921875 82.5390625 C13.95851562 81.90742187 13.42484375 81.27578125 12.875 80.625 C12.33617187 79.99851562 11.79734375 79.37203125 11.2421875 78.7265625 C10 77 10 77 10 75 C9.34 75 8.68 75 8 75 C7.05196688 80.80769866 6.69552728 86.56209187 6.4375 92.4375 C6.37272461 93.82098633 6.37272461 93.82098633 6.30664062 95.23242188 C6.20145069 97.48816163 6.09930893 99.74399499 6 102 C4.02 102.99 4.02 102.99 2 104 C2.495 102.515 2.495 102.515 3 101 C2.34 100.67 1.68 100.34 1 100 C1.33 97.03 1.66 94.06 2 91 C1.34 90.67 0.68 90.34 0 90 C0 88.68 0 87.36 0 86 C-0.99 86 -1.98 86 -3 86 C-4.32 86 -5.64 86 -7 86 C-7 83.36 -7 80.72 -7 78 C-7.66 78 -8.32 78 -9 78 C-8.34 75.36 -7.68 72.72 -7 70 C-7.43570313 70.39832031 -7.87140625 70.79664062 -8.3203125 71.20703125 C-12.00994686 74.48936831 -15.43077198 76.99399746 -20 79 C-18.70473538 65.61559889 -18.70473538 65.61559889 -17 60 C-16.01 59.505 -16.01 59.505 -15 59 C-16.051875 58.95875 -17.10375 58.9175 -18.1875 58.875 C-23.06529489 57.75550609 -24.27799615 56.12189155 -27 52 C-29.82521485 46.08050222 -29.92037818 39.60307141 -28.3125 33.30859375 C-26.28706574 27.64581714 -24.16375121 24.16148033 -19 21 C-16.5 20.25 -16.5 20.25 -14 21 C-10.70122217 23.87442049 -8.37972108 26.72522208 -7.125 30.9375 C-7.08375 31.618125 -7.0425 32.29875 -7 33 C-6.34 33 -5.68 33 -5 33 C-6.485 29.535 -6.485 29.535 -8 26 C-5.42786866 24.38050989 -4.32330841 23.95591249 -1.25 24.375 C-0.13625 24.684375 -0.13625 24.684375 1 25 C0.26394531 24.7525 -0.47210938 24.505 -1.23046875 24.25 C-4.26353941 22.88105415 -5.99790209 21.37126415 -8.3125 19 C-9.00988281 18.29875 -9.70726562 17.5975 -10.42578125 16.875 C-12 15 -12 15 -12 13 C-7.40693504 14.4859916 -4.56430755 16.85014682 -1 20 C-0.34 18.35 0.32 16.7 1 15 C0.67 14.67 0.34 14.34 0 14 C-0.26149658 12.02715358 -0.45992624 10.04574333 -0.625 8.0625 C-0.72039062 6.98097656 -0.81578125 5.89945313 -0.9140625 4.78515625 C-1 2 -1 2 0 0 Z " fill="#999999" transform="translate(148,36)"/>
<path d="M0 0 C8.25376844 5.73381259 8.25376844 5.73381259 9.7421875 10.25390625 C9.82726562 10.83011719 9.91234375 11.40632812 10 12 C11.4540625 11.2575 11.4540625 11.2575 12.9375 10.5 C19.16131842 7.88799589 24.76860341 8.32295397 31.0625 10.5625 C34.76578808 12.14226431 37.25644897 14.0056986 40.125 16.8125 C43.20182736 19.75166892 43.20182736 19.75166892 47.5 19.9375 C48.16386719 19.78796875 48.82773438 19.6384375 49.51171875 19.484375 C60.76322906 17.29412809 71.71517108 19.50955284 82.66796875 22.04296875 C87.4333926 23.137435 92.12142954 23.68009374 97 24 C97 24.66 97 25.32 97 26 C90.89230549 28.36283937 85.55290582 29.44881556 79.01953125 29.4765625 C77.79480354 29.49993179 77.79480354 29.49993179 76.54533386 29.52377319 C73.96773121 29.57079427 71.39039144 29.59888498 68.8125 29.625 C66.22408431 29.66167747 63.63581147 29.70242417 61.04753113 29.74765015 C59.4459833 29.77455092 57.84433211 29.7960394 56.24263 29.81118774 C52.06057652 29.86987454 48.12042854 30.18579581 44 31 C44.875 25.25 44.875 25.25 46 23 C45.34 23 44.68 23 44 23 C43.34 25.64 42.68 28.28 42 31 C36.37692158 29.21083868 36.37692158 29.21083868 34.10839844 27.94189453 C31.58429268 26.81428916 29.77232041 26.77106926 27.015625 26.8046875 C25.61376953 26.81435547 25.61376953 26.81435547 24.18359375 26.82421875 C22.73146484 26.84935547 22.73146484 26.84935547 21.25 26.875 C20.26644531 26.88402344 19.28289062 26.89304688 18.26953125 26.90234375 C15.84610593 26.92587215 13.42317778 26.95874632 11 27 C10.97291433 25.39592672 10.95356517 23.7917215 10.9375 22.1875 C10.92589844 21.29417969 10.91429687 20.40085938 10.90234375 19.48046875 C11 17 11 17 12 14 C11.34 14 10.68 14 10 14 C9.67 17.63 9.34 21.26 9 25 C6.4986115 23.74930575 4.03092345 22.42573241 1.625 21 C-9.98170935 14.45137241 -21.56781408 16.91034433 -34 20 C-34 17.03 -34 14.06 -34 11 C-34.66 11 -35.32 11 -36 11 C-35.95875 12.11375 -35.9175 13.2275 -35.875 14.375 C-36 18 -36 18 -38 20 C-39.485 19.505 -39.485 19.505 -41 19 C-49.47157876 18.09739648 -55.88829089 19.20938001 -63 24 C-63.81791016 24.82564453 -63.81791016 24.82564453 -64.65234375 25.66796875 C-66 27 -66 27 -68 27 C-68 27.66 -68 28.32 -68 29 C-68.66 29 -69.32 29 -70 29 C-69.67 27.68 -69.34 26.36 -69 25 C-69.66 25 -70.32 25 -71 25 C-71.495 27.475 -71.495 27.475 -72 30 C-75.57652615 29.40923452 -77.33157636 28.02051668 -80 25.625 C-89.67569477 17.96310837 -101.2742867 18.59823064 -113 19 C-106.20071359 13.68852244 -99.90125897 12.3863253 -91.38671875 12.57421875 C-84.45781261 13.4453269 -78.58659906 16.684011 -72.4375 19.8125 C-70.00240115 21.21898471 -70.00240115 21.21898471 -67 21 C-65.55912344 19.32391929 -65.55912344 19.32391929 -64.25 17.1875 C-61.21966073 12.92090292 -58.95797889 11.56084521 -54 10 C-53.38898438 9.80277344 -52.77796875 9.60554687 -52.1484375 9.40234375 C-49.41715147 8.89084837 -47.01335703 9.24227758 -44.25 9.5 C-40.42303662 9.56052375 -38.66099911 9.53253251 -35.6484375 7.10546875 C-34.30280501 5.4974639 -32.98834764 3.86283422 -31.70703125 2.203125 C-24.86488378 -6.62747266 -9.12078405 -4.17461868 0 0 Z " fill="#6C6C6C" transform="translate(122,171)"/>
<path d="M0 0 C1.24681406 3.53425997 0.74929743 5.53669245 -0.51953125 9.015625 C-0.87700439 10.00723633 -1.23447754 10.99884766 -1.6027832 12.02050781 C-2.00198975 13.08624023 -2.40119629 14.15197266 -2.8125 15.25 C-3.42774536 16.91434082 -3.42774536 16.91434082 -4.05541992 18.61230469 C-5.35120113 22.08245441 -6.67054205 25.54262268 -8 29 C-8.4021875 30.05058594 -8.804375 31.10117188 -9.21875 32.18359375 C-16.94370083 52.13124638 -27.15460745 70.23191118 -39 88 C-37.88625 87.401875 -36.7725 86.80375 -35.625 86.1875 C-26.76741582 81.80549093 -17.50554997 78.85006305 -7.80859375 82.0546875 C-3.61887202 83.75881018 0.23200445 85.48800297 4 88 C6.13928415 83.44598739 6.74270905 78.92842934 7.4375 74 C8.42960798 67.34060174 9.6338292 60.82706737 11.24609375 54.28515625 C11.82781161 51.75031315 12.33303135 49.24227332 12.78515625 46.68359375 C12.91535156 45.94778076 13.04554687 45.21196777 13.1796875 44.45385742 C13.43071391 43.00869453 13.6744656 41.56224501 13.91015625 40.11450195 C14.20921715 38.39723821 14.59711552 36.69591164 15 35 C15.66 34.67 16.32 34.34 17 34 C16.88260541 35.47978969 16.75553868 36.95881184 16.625 38.4375 C16.55539063 39.26121094 16.48578125 40.08492187 16.4140625 40.93359375 C16.0790584 43.41452034 15.62485654 45.73625832 15.05859375 48.16796875 C13.86800044 53.36599093 13.13390515 58.5911641 12.4375 63.875 C12.31181641 64.79152344 12.18613281 65.70804687 12.05664062 66.65234375 C11.19216593 73.08838046 10.54016356 79.52901306 10 86 C10.47937012 85.56856689 10.95874023 85.13713379 11.45263672 84.69262695 C17.45581508 79.28976643 22.05618902 76.57706195 30.375 76.8125 C31.62023437 76.83957031 32.86546875 76.86664063 34.1484375 76.89453125 C35.08945313 76.92933594 36.03046875 76.96414062 37 77 C41.45854941 64.13028645 43.3162645 50.55682462 44 37 C44.33 37 44.66 37 45 37 C45.270766 48.17661864 44.53472832 58.92803142 43 70 C43.54269531 69.72285156 44.08539063 69.44570312 44.64453125 69.16015625 C45.35996094 68.79792969 46.07539062 68.43570313 46.8125 68.0625 C47.52019531 67.70285156 48.22789063 67.34320313 48.95703125 66.97265625 C56.66022234 63.30517139 66.10490781 64.32369756 74 67 C77.51452353 68.72891883 80.74204085 70.82802724 84 73 C83.95359375 71.8346875 83.9071875 70.669375 83.859375 69.46875 C83.59127257 59.40763479 84.20900615 49.81092727 85.875 39.875 C86.04870117 38.82634766 86.22240234 37.77769531 86.40136719 36.69726562 C87.72907759 29.27092241 87.72907759 29.27092241 90 27 C89.52098392 33.06333511 88.85126983 39.04846877 87.9375 45.0625 C87.13983345 50.88427523 86.81310786 56.5625056 86.8125 62.4375 C86.8117749 63.1704126 86.8110498 63.9033252 86.81030273 64.65844727 C86.8593206 69.50901298 87.32312162 74.19687098 88 79 C88.556875 78.6803125 89.11375 78.360625 89.6875 78.03125 C94.02794613 76.09564564 98.36064465 76.29971995 103 77 C107.20588479 78.6687709 111.09977667 80.71295804 115 83 C114.74605469 82.13503906 114.49210938 81.27007812 114.23046875 80.37890625 C106.9987587 53.91680617 107.62572581 27.1915 108 0 C108.33 0 108.66 0 109 0 C109.0501123 1.23339111 109.10022461 2.46678223 109.15185547 3.73754883 C109.3433434 8.41034238 109.54290107 13.08276522 109.74462891 17.75512695 C109.83008862 19.75926918 109.91349567 21.76350023 109.99462891 23.76782227 C110.38514266 48.71267201 110.38514266 48.71267201 115.9375 72.8125 C116.31551758 73.8962793 116.31551758 73.8962793 116.70117188 75.00195312 C118.18442721 79.16341374 119.94047701 83.08383241 122 87 C123.03640625 86.98839844 124.0728125 86.97679687 125.140625 86.96484375 C126.51041486 86.95546163 127.88020668 86.94636188 129.25 86.9375 C129.93191406 86.92912109 130.61382812 86.92074219 131.31640625 86.91210938 C134.69342554 86.89571608 137.77291639 86.94371232 141 88 C141 88.66 141 89.32 141 90 C140.0821875 90.06058594 139.164375 90.12117188 138.21875 90.18359375 C136.37796875 90.30927734 136.37796875 90.30927734 134.5 90.4375 C132.57414062 90.55738281 132.57414062 90.55738281 130.609375 90.6796875 C127.80445484 90.92860899 125.44543243 91.36079652 122.75 92.0625 C117.47155295 91.97452588 115.3133597 89.39693397 111.44140625 86.015625 C106.11038516 81.61433399 100.86238817 80.66261301 94.078125 80.69921875 C91.72466613 81.03985095 90.10570769 81.92574669 88 83 C87.01 83 86.02 83 85 83 C83.6559907 81.00715862 82.32458708 79.00580329 81 77 C74.5493247 70.23465761 66.4191995 68.89089081 57.3125 68.5 C51.34722688 68.66256076 47.368284 69.88627801 43 74 C42.0698718 75.26101414 41.15311592 76.53200135 40.25 77.8125 C38.27111747 80.31980348 37.49984659 80.93760882 34.27734375 81.33984375 C32.19679941 81.27934752 30.11695638 81.18757376 28.0390625 81.06640625 C22.10676907 80.9367803 17.61759637 82.6285596 13.125 86.4375 C11.34494399 88.58403813 9.60476391 90.71954603 8 93 C3.72575684 92.35966395 0.2633477 90.85925591 -3.625 89 C-11.86326487 85.07881214 -19.80935391 83.06065943 -28.85546875 85.89453125 C-30.96793669 86.8449739 -32.99589745 87.84000266 -35 89 C-33.80117188 88.94779297 -33.80117188 88.94779297 -32.578125 88.89453125 C-21.10151238 88.611657 -11.77689099 89.59421532 -2.9375 97.37890625 C-1.03891662 98.96743872 0.74992647 99.9904804 3 101 C3.33 99.35 3.66 97.7 4 96 C4.66 96 5.32 96 6 96 C5.505 97.98 5.505 97.98 5 100 C5.66 100 6.32 100 7 100 C7 99.34 7 98.68 7 98 C9.01171875 96.34375 9.01171875 96.34375 11.6875 94.5 C12.55761719 93.8915625 13.42773438 93.283125 14.32421875 92.65625 C19.05042898 89.73082936 22.4940235 88.74828372 28.0625 88.875 C29.08472656 88.89304687 30.10695313 88.91109375 31.16015625 88.9296875 C32.09730469 88.95289063 33.03445312 88.97609375 34 89 C35.32 89 36.64 89 38 89 C38.33 86.69 38.66 84.38 39 82 C39.66 82 40.32 82 41 82 C41.495 85.96 41.495 85.96 42 90 C42.79921875 89.7834375 43.5984375 89.566875 44.421875 89.34375 C56.03670718 86.39914466 66.13738895 85.11608568 77 91 C79.28125 92.51171875 79.28125 92.51171875 81 94 C81 94.66 81 95.32 81 96 C78.21610648 94.90331467 75.52011709 93.76596843 72.828125 92.453125 C68.79359384 90.72947688 65.16086328 90.5038391 60.8125 90.5625 C60.07362549 90.56427246 59.33475098 90.56604492 58.57348633 90.56787109 C52.72490841 90.70602149 47.81142164 91.99253171 42.41796875 94.3203125 C40 95 40 95 37.98828125 94.14453125 C37.33214844 93.76683594 36.67601563 93.38914062 36 93 C25.46652552 91.35414461 16.56497756 95.43704801 8 101.25 C7.319375 101.75015625 6.63875 102.2503125 5.9375 102.765625 C3.811396 104.120159 2.53056878 104.87903591 0 105 C-2.26171875 103.48828125 -2.26171875 103.48828125 -4.6875 101.3125 C-12.10973116 95.05067666 -19.65438385 91.69001452 -29.46484375 91.765625 C-35.06224725 92.28310452 -40.53806732 93.71122937 -46 95 C-46.69360352 92.73413086 -46.69360352 92.73413086 -47 90 C-45.75756836 88.08032227 -45.75756836 88.08032227 -43.90234375 86.25390625 C-40.02094125 82.14344999 -37.30277639 77.86076004 -34.5625 72.9375 C-34.09078369 72.1031543 -33.61906738 71.26880859 -33.13305664 70.40917969 C-31.74559309 67.94477678 -30.37254012 65.47273451 -29 63 C-28.2893503 61.74593062 -27.57844007 60.49200881 -26.8671875 59.23828125 C-17.88886108 43.00822964 -11.1697381 25.5859121 -4.13525391 8.45336914 C-3.73870605 7.49164795 -3.3421582 6.52992676 -2.93359375 5.5390625 C-2.4085022 4.25829834 -2.4085022 4.25829834 -1.87280273 2.95166016 C-1 1 -1 1 0 0 Z " fill="#141414" transform="translate(47,100)"/>
<path d="M0 0 C0.66 0 1.32 0 2 0 C2.0825 0.61875 2.165 1.2375 2.25 1.875 C2.79394438 4.17972859 2.79394438 4.17972859 5 5.0625 C5.66 5.371875 6.32 5.68125 7 6 C7.33 6.99 7.66 7.98 8 9 C8.66 9 9.32 9 10 9 C10 7.35 10 5.7 10 4 C10.33 4 10.66 4 11 4 C11.13535156 5.20011719 11.27070313 6.40023437 11.41015625 7.63671875 C12.59207222 17.11799104 14.34541667 26.11183324 17.375 35.1875 C17.65480713 36.03465576 17.93461426 36.88181152 18.22290039 37.75463867 C23.91524743 54.08450892 33.99704898 68.2149714 49.68505859 75.9206543 C54.72991167 78.32498625 59.37795257 80.32639063 65 81 C65 81.33 65 81.66 65 82 C56.50202064 82.34071417 48.95220487 81.40694174 40.6875 79.5 C31.26373951 77.45349312 22.63451572 76.29503544 13 77 C-0.1711079 52.63345039 0.59309087 26.93741583 0 0 Z " fill="#6A6A6A" transform="translate(156,111)"/>
<path d="M0 0 C6.61311157 3.78049545 11.73902208 9.71691039 16.875 15.25 C14.18225289 17.46470886 12.10602109 18.69005042 8.6875 19.375 C7.99269531 19.52195312 7.29789063 19.66890625 6.58203125 19.8203125 C-1.43985165 21.09362725 -9.31802502 21.43257612 -17.4375 21.4375 C-19.0143457 21.45586914 -19.0143457 21.45586914 -20.62304688 21.47460938 C-27.97546634 21.48816639 -34.91514167 20.67581512 -42.125 19.25 C-38.79944003 10.44134374 -30.21425267 3.23311873 -21.8046875 -0.88671875 C-14.9348495 -3.09988814 -6.63250398 -2.89164274 0 0 Z " fill="#F6F6F6" transform="translate(124.125,5.75)"/>
<path d="M0 0 C1.24681406 3.53425997 0.74929743 5.53669245 -0.51953125 9.015625 C-0.87700439 10.00723633 -1.23447754 10.99884766 -1.6027832 12.02050781 C-2.00198975 13.08624023 -2.40119629 14.15197266 -2.8125 15.25 C-3.42774536 16.91434082 -3.42774536 16.91434082 -4.05541992 18.61230469 C-5.35120113 22.08245441 -6.67054205 25.54262268 -8 29 C-8.4021875 30.05058594 -8.804375 31.10117188 -9.21875 32.18359375 C-14.92163229 46.90978649 -21.76995498 60.52990797 -30 74 C-30.37850098 74.62841797 -30.75700195 75.25683594 -31.14697266 75.90429688 C-34.08615289 80.77549639 -36.86016052 85.06536808 -41 89 C-37.95086772 90.01111093 -37.95086772 90.01111093 -35 89 C-24.31037871 88.17035775 -13.67264836 88.76042286 -5 95.5625 C-3.9790625 96.46162109 -3.9790625 96.46162109 -2.9375 97.37890625 C-1.03891662 98.96743872 0.74992647 99.9904804 3 101 C3.33 99.35 3.66 97.7 4 96 C4.66 96 5.32 96 6 96 C5.505 97.98 5.505 97.98 5 100 C5.66 100 6.32 100 7 100 C7 99.34 7 98.68 7 98 C9.01171875 96.34375 9.01171875 96.34375 11.6875 94.5 C12.55761719 93.8915625 13.42773438 93.283125 14.32421875 92.65625 C19.05042898 89.73082936 22.4940235 88.74828372 28.0625 88.875 C29.08472656 88.89304687 30.10695313 88.91109375 31.16015625 88.9296875 C32.09730469 88.95289063 33.03445312 88.97609375 34 89 C35.32 89 36.64 89 38 89 C38.33 86.69 38.66 84.38 39 82 C39.66 82 40.32 82 41 82 C41.495 85.96 41.495 85.96 42 90 C42.79921875 89.7834375 43.5984375 89.566875 44.421875 89.34375 C56.03670718 86.39914466 66.13738895 85.11608568 77 91 C79.28125 92.51171875 79.28125 92.51171875 81 94 C81 94.66 81 95.32 81 96 C78.21610648 94.90331467 75.52011709 93.76596843 72.828125 92.453125 C68.79359384 90.72947688 65.16086328 90.5038391 60.8125 90.5625 C60.07362549 90.56427246 59.33475098 90.56604492 58.57348633 90.56787109 C52.72490841 90.70602149 47.81142164 91.99253171 42.41796875 94.3203125 C40 95 40 95 37.98828125 94.14453125 C37.33214844 93.76683594 36.67601563 93.38914062 36 93 C25.46652552 91.35414461 16.56497756 95.43704801 8 101.25 C7.319375 101.75015625 6.63875 102.2503125 5.9375 102.765625 C3.811396 104.120159 2.53056878 104.87903591 0 105 C-2.26171875 103.48828125 -2.26171875 103.48828125 -4.6875 101.3125 C-12.10973116 95.05067666 -19.65438385 91.69001452 -29.46484375 91.765625 C-35.06224725 92.28310452 -40.53806732 93.71122937 -46 95 C-46.69360352 92.73413086 -46.69360352 92.73413086 -47 90 C-45.75756836 88.08032227 -45.75756836 88.08032227 -43.90234375 86.25390625 C-40.02094125 82.14344999 -37.30277639 77.86076004 -34.5625 72.9375 C-34.09078369 72.1031543 -33.61906738 71.26880859 -33.13305664 70.40917969 C-31.74559309 67.94477678 -30.37254012 65.47273451 -29 63 C-28.2893503 61.74593062 -27.57844007 60.49200881 -26.8671875 59.23828125 C-17.88886108 43.00822964 -11.1697381 25.5859121 -4.13525391 8.45336914 C-3.73870605 7.49164795 -3.3421582 6.52992676 -2.93359375 5.5390625 C-2.4085022 4.25829834 -2.4085022 4.25829834 -1.87280273 2.95166016 C-1 1 -1 1 0 0 Z " fill="#060606" transform="translate(47,100)"/>
<path d="M0 0 C0 3 0 3 -1.5 4.6875 C-1.995 5.120625 -2.49 5.55375 -3 6 C-2.34 6 -1.68 6 -1 6 C-1 9.66666667 -1 13.33333333 -1 17 C-1.66 17 -2.32 17 -3 17 C-3.433125 18.670625 -3.433125 18.670625 -3.875 20.375 C-5 24 -5 24 -7 26 C-7.804375 25.814375 -8.60875 25.62875 -9.4375 25.4375 C-10.7059375 25.2209375 -10.7059375 25.2209375 -12 25 C-13.8354799 26.33378575 -13.8354799 26.33378575 -15 28 C-14.67 28.66 -14.34 29.32 -14 30 C-14.88042969 30.26554687 -15.76085937 30.53109375 -16.66796875 30.8046875 C-17.82941406 31.15789062 -18.99085937 31.51109375 -20.1875 31.875 C-21.33605469 32.22304687 -22.48460938 32.57109375 -23.66796875 32.9296875 C-26.50871157 33.84218871 -29.24885465 34.84980364 -32 36 C-31.85919445 33.22882696 -31.71256882 30.45817359 -31.5625 27.6875 C-31.52318359 26.90181641 -31.48386719 26.11613281 -31.44335938 25.30664062 C-31.40146484 24.54931641 -31.35957031 23.79199219 -31.31640625 23.01171875 C-31.27974854 22.31522217 -31.24309082 21.61872559 -31.20532227 20.90112305 C-31 19 -31 19 -30 16 C-29.77439324 13.60745424 -29.59151405 11.21071877 -29.4375 8.8125 C-29.35371094 7.54019531 -29.26992187 6.26789063 -29.18359375 4.95703125 C-29.12300781 3.98121094 -29.06242187 3.00539062 -29 2 C-26 1 -26 1 -23.5625 1.9375 C-16.16140712 4.14484349 -8.20787484 3.72297494 -1 1 C-0.67 0.67 -0.34 0.34 0 0 Z " fill="#F4F4F4" transform="translate(122,134)"/>
<path d="M0 0 C1.32 2.31 2.64 4.62 4 7 C-0.24853618 10.08925573 -3.86128523 11.80703386 -9 13.1875 C-10.175625 13.51105469 -11.35125 13.83460937 -12.5625 14.16796875 C-18.36465572 15.57235417 -23.89297805 16.16693073 -29.85546875 16.203125 C-30.96889397 16.21167511 -30.96889397 16.21167511 -32.10481262 16.22039795 C-33.67052811 16.22980306 -35.236263 16.23636397 -36.80200195 16.24023438 C-39.16328697 16.24990088 -41.52368574 16.28094992 -43.88476562 16.3125 C-61.14086161 16.43536615 -61.14086161 16.43536615 -68 13 C-69 10 -69 10 -68.22265625 8.17578125 C-67.1484375 6.45052083 -66.07421875 4.72526042 -65 3 C-63.68515625 3.2165625 -63.68515625 3.2165625 -62.34375 3.4375 C-53.59330905 4.71805233 -45.03459875 5.19281677 -36.1875 5.1875 C-35.13175781 5.18814453 -34.07601562 5.18878906 -32.98828125 5.18945312 C-27.40340394 5.20711275 -27.40340394 5.20711275 -22 4 C-23.32 3.34 -24.64 2.68 -26 2 C-23.69 2 -21.38 2 -19 2 C-19 2.33 -19 2.66 -19 3 C-17.27014758 2.88487847 -15.54111249 2.75744323 -13.8125 2.625 C-12.84957031 2.55539063 -11.88664062 2.48578125 -10.89453125 2.4140625 C-6.99172915 1.85576692 -3.95200759 0 0 0 Z " fill="#525252" transform="translate(145,24)"/>
<path d="M0 0 C1 3 1 3 0.1015625 5.12890625 C-5.78304297 14.82760785 -13.62580849 25.93208278 -24.93359375 29.6328125 C-31.66359789 30.82869225 -38.1775856 30.83939339 -44.1640625 27.30859375 C-52.19928607 21.58135993 -57.73740791 13.40951161 -59.6640625 3.62890625 C-59.83035156 2.32759766 -59.83035156 2.32759766 -60 1 C-59.34 1 -58.68 1 -58 1 C-57.34 2.051875 -56.68 3.10375 -56 4.1875 C-52.37484487 9.50655203 -46.64165914 12.11511086 -40.4921875 13.609375 C-28.14530394 15.54462321 -16.43091864 12.38815623 -6.1875 5.3125 C-3.95949814 3.62936962 -1.97452219 1.97452219 0 0 Z " fill="#060606" transform="translate(141,105)"/>
<path d="M0 0 C1.75570312 0.01353516 1.75570312 0.01353516 3.546875 0.02734375 C4.43890625 0.03894531 5.3309375 0.05054688 6.25 0.0625 C5.92 3.3625 5.59 6.6625 5.25 10.0625 C4.28320312 10.00449219 3.31640625 9.94648438 2.3203125 9.88671875 C-6.19972053 9.59147008 -12.53248453 9.93806402 -19.75 15.0625 C-20.56210938 15.88814453 -20.56210938 15.88814453 -21.390625 16.73046875 C-22.75 18.0625 -22.75 18.0625 -24.75 18.0625 C-24.75 18.7225 -24.75 19.3825 -24.75 20.0625 C-25.41 20.0625 -26.07 20.0625 -26.75 20.0625 C-26.42 18.7425 -26.09 17.4225 -25.75 16.0625 C-26.41 16.0625 -27.07 16.0625 -27.75 16.0625 C-28.245 18.5375 -28.245 18.5375 -28.75 21.0625 C-32.32652615 20.47173452 -34.08157636 19.08301668 -36.75 16.6875 C-46.42569477 9.02560837 -58.0242867 9.66073064 -69.75 10.0625 C-62.95071359 4.75102244 -56.65125897 3.4488253 -48.13671875 3.63671875 C-41.20781261 4.5078269 -35.33659906 7.746511 -29.1875 10.875 C-26.75240115 12.28148471 -26.75240115 12.28148471 -23.75 12.0625 C-22.30912344 10.38641929 -22.30912344 10.38641929 -21 8.25 C-15.84599245 0.99336251 -8.5030309 -0.08503031 0 0 Z " fill="#606060" transform="translate(78.75,179.9375)"/>
<path d="M0 0 C0.66 0 1.32 0 2 0 C2.391875 0.53625 2.78375 1.0725 3.1875 1.625 C7.41969791 7.17063864 13.27833369 11.92004382 20 14 C26.6135326 14.86053275 33.22383247 14.549477 39 11 C41.71023239 8.78475017 44.27083668 6.47733196 46.80078125 4.05859375 C49 2 49 2 52 0 C51.34 3.63 50.68 7.26 50 11 C49.34 11 48.68 11 48 11 C47.34998322 13.99914719 46.70488963 16.99921801 46.0625 20 C45.88009766 20.83917969 45.69769531 21.67835938 45.50976562 22.54296875 C44.67242489 26.47085801 43.91566646 30.35086132 43.46875 34.34375 C42.91210738 38.68556246 41.65333958 41.97447755 40 46 C37.54006972 45.7186941 35.08259752 45.42547269 32.625 45.125 C31.92632812 45.04636719 31.22765625 44.96773437 30.5078125 44.88671875 C25.2265625 44.2265625 25.2265625 44.2265625 23 42 C24.485 41.505 24.485 41.505 26 41 C26.33 40.01 26.66 39.02 27 38 C27.33 38.66 27.66 39.32 28 40 C30.47627099 39.36078035 30.47627099 39.36078035 33 38 C34.16953416 35.57616923 34.16953416 35.57616923 35 33 C35.556875 32.484375 36.11375 31.96875 36.6875 31.4375 C37.120625 30.963125 37.55375 30.48875 38 30 C37.63292383 28.11280345 37.63292383 28.11280345 37 26 C37.27050453 23.99053778 37.59367909 21.98645776 38 20 C37.34 20 36.68 20 36 20 C37 17 37 17 38 16 C37.0925 16.33 36.185 16.66 35.25 17 C28.6896639 18.85342829 21.77943626 18.78750694 15.25 16.9375 C8.85609001 13.12574597 3.64446262 8.5296622 0 2 C0 1.34 0 0.68 0 0 Z " fill="#D7D7D7" transform="translate(83,120)"/>
<path d="M0 0 C0.33 0 0.66 0 1 0 C0.88260541 1.47978969 0.75553868 2.95881184 0.625 4.4375 C0.52058594 5.67306641 0.52058594 5.67306641 0.4140625 6.93359375 C0.0790584 9.41452034 -0.37514346 11.73625832 -0.94140625 14.16796875 C-2.13199956 19.36599093 -2.86609485 24.5911641 -3.5625 29.875 C-3.68818359 30.79152344 -3.81386719 31.70804688 -3.94335938 32.65234375 C-4.80783407 39.08838046 -5.45983644 45.52901306 -6 52 C-5.28094482 51.35285034 -5.28094482 51.35285034 -4.54736328 50.69262695 C1.45581508 45.28976643 6.05618902 42.57706195 14.375 42.8125 C15.62023437 42.83957031 16.86546875 42.86664063 18.1484375 42.89453125 C19.08945313 42.92933594 20.03046875 42.96414062 21 43 C25.45854941 30.13028645 27.3162645 16.55682462 28 3 C28.33 3 28.66 3 29 3 C29.270766 14.17661864 28.53472832 24.92803142 27 36 C27.49628906 35.72285156 27.99257812 35.44570312 28.50390625 35.16015625 C33.09318168 32.71312324 36.81559721 31.43203357 42 31 C42.99 32.485 42.99 32.485 44 34 C43.443125 34.01417969 42.88625 34.02835938 42.3125 34.04296875 C36.13091035 34.4293181 31.7507674 35.96440188 27 40 C26.06191726 41.25510793 25.14489917 42.52624551 24.25 43.8125 C22.27111747 46.31980348 21.49984659 46.93760882 18.27734375 47.33984375 C16.19679941 47.27934752 14.11695638 47.18757376 12.0390625 47.06640625 C6.10676907 46.9367803 1.61759637 48.6285596 -2.875 52.4375 C-4.65505601 54.58403813 -6.39523609 56.71954603 -8 59 C-12.27424316 58.35966395 -15.7366523 56.85925591 -19.625 55 C-28.06530592 50.98264615 -35.7542224 49.3082682 -45.04296875 51.82421875 C-49.85476232 53.41541869 -49.85476232 53.41541869 -53 57 C-54.65 56.67 -56.3 56.34 -58 56 C-54.88680357 53.44673099 -51.77972103 51.90313878 -48.0625 50.375 C-47.04285156 49.94960937 -46.02320313 49.52421875 -44.97265625 49.0859375 C-35.08511649 45.47393217 -27.06976553 46.47345527 -17.56640625 50.7109375 C-15 52 -15 52 -12 54 C-9.86071585 49.44598739 -9.25729095 44.92842934 -8.5625 40 C-7.57044173 33.34093539 -6.36196967 26.82842894 -4.7578125 20.28515625 C-3.67509722 15.59152971 -2.83073957 10.85887045 -2.00195312 6.11450195 C-1.10471481 1.10471481 -1.10471481 1.10471481 0 0 Z " fill="#121212" transform="translate(63,134)"/>
<path d="M0 0 C0 1.33333333 0 2.66666667 0 4 C1.32 3.01 2.64 2.02 4 1 C3.67 2.32 3.34 3.64 3 5 C4.98 3.35 6.96 1.7 9 0 C7.125 4.75 7.125 4.75 6 7 C6.66 6.67 7.32 6.34 8 6 C7.97679687 6.67546875 7.95359375 7.3509375 7.9296875 8.046875 C7.91164062 8.93890625 7.89359375 9.8309375 7.875 10.75 C7.85179687 11.63171875 7.82859375 12.5134375 7.8046875 13.421875 C7.83280012 15.9920533 7.83280012 15.9920533 9.02734375 18.015625 C10.28443225 20.58028748 10.04317576 22.18887594 9.6875 25 C9.58824219 25.845625 9.48898438 26.69125 9.38671875 27.5625 C9.03882936 29.75525738 8.58001025 31.8584237 8 34 C7.01 33.34 6.02 32.68 5 32 C2.32854463 32.80161791 2.32854463 32.80161791 0 34 C-1.4783226 31.04335481 -1.06032783 28.25770263 -1 25 C-1.66 25 -2.32 25 -3 25 C-2.34 22.36 -1.68 19.72 -1 17 C-1.43570313 17.39832031 -1.87140625 17.79664062 -2.3203125 18.20703125 C-6.00994686 21.48936831 -9.43077198 23.99399746 -14 26 C-12.28571429 8.28571429 -12.28571429 8.28571429 -9 5 C-8.401875 4.319375 -7.80375 3.63875 -7.1875 2.9375 C-4.73672974 0.76681777 -3.20668509 0.35629834 0 0 Z " fill="#AAAAAA" transform="translate(142,89)"/>
<path d="M0 0 C0.66 1.32 1.32 2.64 2 4 C1.01 4.495 1.01 4.495 0 5 C-2.29851498 7.29851498 -2.3398291 7.87453127 -2.4375 11 C-2.30042489 13.57606673 -2.16428075 14.74536484 -0.75 16.9375 C1.16124078 18.09789619 2.80297535 18.62120265 5 19 C4.79043941 24.9724767 3.79765039 28.34264217 -0.3828125 32.703125 C-2 34 -2 34 -4.625 34.75 C-8.05618355 33.66646835 -9.099025 32.01533965 -11 29 C-13.8771667 22.95794993 -14.10205563 15.78902631 -12.2421875 9.39453125 C-9.65562936 3.15216849 -7.27612848 -0.60634404 0 0 Z " fill="#ECECEC" transform="translate(134,59)"/>
<path d="M0 0 C3.375 0.4375 3.375 0.4375 6.375 2.4375 C6.375 3.0975 6.375 3.7575 6.375 4.4375 C5.735625 4.72625 5.09625 5.015 4.4375 5.3125 C2.22293921 6.26573451 2.22293921 6.26573451 1.375 8.4375 C0.94529553 12.56618763 0.94529553 12.56618763 2.625 16.1875 C4.46488909 17.50170649 6.34591315 18.44811055 8.375 19.4375 C7.6378641 20.73655098 6.88469444 22.02651122 6.125 23.3125 C5.70734375 24.03179687 5.2896875 24.75109375 4.859375 25.4921875 C3.17533912 27.69916084 1.96930364 28.49681738 -0.625 29.4375 C-4.98024984 29.4375 -6.91112284 29.13307262 -10.0625 26.0625 C-12.65335369 20.05171943 -12.60523847 14.2234409 -10.4375 8.0625 C-5.31331169 0.64126176 -5.31331169 0.64126176 0 0 Z " fill="#F7F7F7" transform="translate(93.625,63.5625)"/>
<path d="M0 0 C4.76542385 1.09446625 9.45346079 1.63712499 14.33203125 1.95703125 C14.33203125 2.61703125 14.33203125 3.27703125 14.33203125 3.95703125 C8.21162231 6.34193163 2.94724134 7.39164647 -3.60546875 7.28515625 C-4.41161621 7.28328308 -5.21776367 7.28140991 -6.04833984 7.27947998 C-7.73230193 7.27281641 -9.41625006 7.25901749 -11.10009766 7.23828125 C-13.68927228 7.20677199 -16.27783901 7.19726782 -18.8671875 7.19140625 C-20.50912209 7.18224885 -22.15105046 7.17187714 -23.79296875 7.16015625 C-24.56890381 7.15590637 -25.34483887 7.15165649 -26.14428711 7.14727783 C-31.55071165 7.07428835 -31.55071165 7.07428835 -32.66796875 5.95703125 C-32.3806682 3.61758389 -32.04860096 1.28311695 -31.66796875 -1.04296875 C-32.98796875 -1.37296875 -34.30796875 -1.70296875 -35.66796875 -2.04296875 C-23.55003662 -4.87662969 -11.87154535 -2.74507205 0 0 Z " fill="#666666" transform="translate(204.66796875,193.04296875)"/>
<path d="M0 0 C1.32 0.33 2.64 0.66 4 1 C4.39169887 3.66355234 4.40564529 5.39224373 2.88671875 7.66796875 C1.63610683 9.1510888 0.32135486 10.57954352 -1 12 C-0.01 12.33 0.98 12.66 2 13 C1.67 14.65 1.34 16.3 1 18 C0.01 17.34 -0.98 16.68 -2 16 C-4.73733831 30.692982 -6.66925019 45.05010857 -7 60 C-9.530814 58.76491866 -11.89343494 57.46056758 -14.3125 56 C-20.35817498 52.91382687 -27.33834415 52.65922636 -34 52 C-34 51.67 -34 51.34 -34 51 C-31.77110504 50.94571027 -29.54182529 50.90707662 -27.3125 50.875 C-26.07113281 50.85179687 -24.82976562 50.82859375 -23.55078125 50.8046875 C-20.18762143 50.98967979 -18.0014413 51.54232105 -15 53 C-14.855625 51.865625 -14.71125 50.73125 -14.5625 49.5625 C-14 46 -14 46 -13 45 C-12.65633186 43.34557147 -12.3652326 41.68014449 -12.09765625 40.01171875 C-11.92943359 38.99529297 -11.76121094 37.97886719 -11.58789062 36.93164062 C-11.23957925 34.78091502 -10.89320277 32.62987509 -10.54882812 30.47851562 C-10.37931641 29.45822266 -10.20980469 28.43792969 -10.03515625 27.38671875 C-9.8844165 26.45045654 -9.73367676 25.51419434 -9.57836914 24.54956055 C-9.02028466 22.0894186 -8.23143059 20.18995996 -7 18 C-6.34 18 -5.68 18 -5 18 C-5.04125 16.783125 -5.0825 15.56625 -5.125 14.3125 C-5.11491883 8.58639615 -3.01350397 4.79421086 0 0 Z " fill="#959595" transform="translate(138,113)"/>
<path d="M0 0 C2.52496473 1.64122707 3.58107412 2.39614655 5 5 C5.45179989 9.69340356 5.28626938 14.2988206 5 19 C4.34 19 3.68 19 3 19 C2.82984375 20.11117187 2.6596875 21.22234375 2.484375 22.3671875 C1.14171632 30.73833979 -0.4271429 38.23827596 -4 46 C-7.96 46 -11.92 46 -16 46 C-16 45.67 -16 45.34 -16 45 C-12.535 44.505 -12.535 44.505 -9 44 C-8.26201177 41.554799 -7.52743984 39.10875463 -6.80078125 36.66015625 C-6.16738377 34.5560407 -5.49656337 32.46319345 -4.8125 30.375 C-3.85703819 26.40615865 -3.85719566 23.06992365 -4 19 C-4.99 19 -5.98 19 -7 19 C-5.51153846 14.28653846 -5.51153846 14.28653846 -2.921875 12.8359375 C-1.97054687 12.42214844 -1.97054687 12.42214844 -1 12 C-1.09539062 11.38511719 -1.19078125 10.77023438 -1.2890625 10.13671875 C-1.39992188 9.32847656 -1.51078125 8.52023438 -1.625 7.6875 C-1.74101563 6.88699219 -1.85703125 6.08648437 -1.9765625 5.26171875 C-2 3 -2 3 0 0 Z " fill="#B8B8B8" transform="translate(88,131)"/>
<path d="M0 0 C4.03896891 1.21169067 6.1063738 4.40195323 8.5 7.75 C11.24540915 13.2408183 10.24178366 22.84436036 8.74609375 28.703125 C7.12857663 32.53442045 5.46938466 36.04883515 1.5 37.75 C-1.9375 38.3125 -1.9375 38.3125 -5.5 37.75 C-10.66353631 32.93069944 -12.53358818 28.04850207 -12.875 21 C-12.72434864 14.75738437 -11.08367175 8.89995597 -7.07421875 4.01171875 C-4.90134035 2.01850988 -2.81689954 0.84506986 0 0 Z M-7.5 7.75 C-11.20765256 14.14250441 -11.66069761 20.94139563 -9.92578125 28.12890625 C-8.68800194 31.68506586 -7.34942716 34.30556756 -4.5 36.75 C-2.13242673 37.58541854 -2.13242673 37.58541854 0.5 36.75 C4.43561766 33.62047271 6.74811871 30.33650573 7.375 25.3125 C7.41625 24.136875 7.4575 22.96125 7.5 21.75 C6.71625 21.46125 5.9325 21.1725 5.125 20.875 C2.5 19.75 2.5 19.75 0.5 17.75 C0.00574713 12.56034483 0.00574713 12.56034483 0.5 9.75 C2.5 7.75 2.5 7.75 4.5 6.75 C3.84 5.43 3.18 4.11 2.5 2.75 C-2.60003359 2.02142377 -4.36248222 3.8693859 -7.5 7.75 Z " fill="#191919" transform="translate(131.5,56.25)"/>
<path d="M0 0 C0.66 0 1.32 0 2 0 C4.36712682 2.36712682 4.36212357 3.22870365 4.74609375 6.47265625 C4.91915039 7.82327148 4.91915039 7.82327148 5.09570312 9.20117188 C5.3202924 11.08130495 5.54426943 12.96151127 5.76757812 14.84179688 C6.46294573 20.26259074 7.52154191 25.11481859 9.49633789 30.22045898 C10 32 10 32 9 34 C8.26136719 33.566875 7.52273437 33.13375 6.76171875 32.6875 C-1.69595911 28.0449119 -8.59377171 26.36538513 -18 29 C-18.33 27.35 -18.66 25.7 -19 24 C-18.31550781 24.16371094 -17.63101563 24.32742187 -16.92578125 24.49609375 C-13.6256722 25.06447034 -10.53445931 25.09630767 -7.1875 25.0625 C-5.44533203 25.04896484 -5.44533203 25.04896484 -3.66796875 25.03515625 C-2.78753906 25.02355469 -1.90710938 25.01195312 -1 25 C-1.16113281 24.36449219 -1.32226562 23.72898438 -1.48828125 23.07421875 C-2.17121566 18.97139902 -2.1841864 14.96444321 -2.1875 10.8125 C-2.19974609 9.99330078 -2.21199219 9.17410156 -2.22460938 8.33007812 C-2.22982258 6.21873064 -2.12276321 4.10778191 -2 2 C-1.34 1.34 -0.68 0.68 0 0 Z " fill="#949494" transform="translate(153,150)"/>
<path d="M0 0 C3.49394478 2.22341941 5.46748627 4.17893244 7 8 C7.96973744 16.22387724 6.74824818 22.01060748 2.0625 28.8125 C-0.01322478 31.01402629 -1.10664688 32.17332768 -4 33 C-7.37542146 33 -9.88041883 32.95636857 -12.52734375 30.6953125 C-16.40668131 26.1750409 -17.41922031 22.32035377 -17.34375 16.546875 C-16.51669508 10.41914988 -13.62261862 5.44999962 -9.0625 1.375 C-5.61484623 -0.17292618 -3.72660747 -0.63431617 0 0 Z M-9.75 4.125 C-14.23455756 9.855268 -15.58033262 14.13170226 -15.34375 21.3671875 C-14.84055741 25.22118531 -13.7798556 27.29142275 -11 30 C-6.74529739 31.4182342 -4.82958645 31.38288606 -0.75 29.5 C2.59864022 26.45578162 3.53601026 24.22930368 5 20 C4.21625 19.71125 3.4325 19.4225 2.625 19.125 C0 18 0 18 -2 16 C-2.34490322 11.94738713 -2.30163882 10.45245824 0 7 C0.99 6.67 1.98 6.34 3 6 C2.67 5.01 2.34 4.02 2 3 C-2.32201715 0.83899142 -5.98921336 1.2189376 -9.75 4.125 Z " fill="#060606" transform="translate(97,62)"/>
<path d="M0 0 C-1 3 -1 3 -2 5 C-1.7525 6.1446875 -1.7525 6.1446875 -1.5 7.3125 C-0.95935156 10.21848539 -1.27033934 12.16243077 -2 15 C-1.34 15.33 -0.68 15.66 0 16 C-0.99 18.475 -0.99 18.475 -2 21 C-5.54709938 21 -6.01780191 20.42237322 -8.5625 18.125 C-9.46162109 17.32449219 -9.46162109 17.32449219 -10.37890625 16.5078125 C-11.60942322 15.36328346 -12.81169896 14.18830104 -14 13 C-13.01 12.67 -12.02 12.34 -11 12 C-11 11.34 -11 10.68 -11 10 C-12.98 10.33 -14.96 10.66 -17 11 C-17.33 9.02 -17.66 7.04 -18 5 C-15.56427941 4.16112944 -13.12666783 3.32873471 -10.6875 2.5 C-9.65206055 2.14228516 -9.65206055 2.14228516 -8.59570312 1.77734375 C-5.61068511 0.76791737 -3.17341086 0 0 0 Z " fill="#D9D9D9" transform="translate(150,35)"/>
<path d="M0 0 C0 1.33333333 0 2.66666667 0 4 C1.32 3.01 2.64 2.02 4 1 C3.67 2.32 3.34 3.64 3 5 C4.98 3.35 6.96 1.7 9 0 C8.05054252 2.44146208 7.1015555 4.80817295 5.875 7.125 C4.78855727 9.10823854 4.78855727 9.10823854 5 12 C2.25 12.25 2.25 12.25 -1 12 C-3.375 10 -3.375 10 -5 8 C-6.81074873 11.84784105 -7.18404746 14.76690853 -7 19 C-7 19.99 -7 20.98 -7 22 C-9.31 23.32 -11.62 24.64 -14 26 C-12.28571429 8.28571429 -12.28571429 8.28571429 -9 5 C-8.401875 4.319375 -7.80375 3.63875 -7.1875 2.9375 C-4.73672974 0.76681777 -3.20668509 0.35629834 0 0 Z " fill="#BABABA" transform="translate(142,89)"/>
<path d="M0 0 C0 3.74161103 -0.51338171 7.28953557 -1 11 C-1.66 11 -2.32 11 -3 11 C-3.65001678 13.99914719 -4.29511037 16.99921801 -4.9375 20 C-5.11990234 20.83917969 -5.30230469 21.67835938 -5.49023438 22.54296875 C-6.32757511 26.47085801 -7.08433354 30.35086132 -7.53125 34.34375 C-8.08789262 38.68556246 -9.34666042 41.97447755 -11 46 C-12.65 45.67 -14.3 45.34 -16 45 C-15.72285156 44.41992188 -15.44570312 43.83984375 -15.16015625 43.2421875 C-13.10206715 38.80374625 -11.52220064 34.90868604 -11 30 C-10.89816406 29.33871094 -10.79632813 28.67742187 -10.69140625 27.99609375 C-10.14320567 24.32111948 -10.07671033 21.56126015 -11 18 C-10.34 17.01 -9.68 16.02 -9 15 C-8.5359375 13.5459375 -8.5359375 13.5459375 -8.0625 12.0625 C-7.02545963 9.07338364 -6.00933883 7.39575015 -4 5 C-3.278125 4.0925 -2.55625 3.185 -1.8125 2.25 C-1.214375 1.5075 -0.61625 0.765 0 0 Z " fill="#B8B8B8" transform="translate(134,120)"/>
<path d="M0 0 C3 1 3 1 4.203125 3.14453125 C4.54859375 4.02496094 4.8940625 4.90539063 5.25 5.8125 C5.78367188 7.12154297 5.78367188 7.12154297 6.328125 8.45703125 C7.04764703 11.18033845 6.82616385 12.37336871 6 15 C6.3403125 15.99 6.3403125 15.99 6.6875 17 C6.790625 17.66 6.89375 18.32 7 19 C6.360625 19.61875 5.72125 20.2375 5.0625 20.875 C2.65948206 22.89773502 2.65948206 22.89773502 2.75 26.25 C2.87375 27.61125 2.87375 27.61125 3 29 C2.01 28.34 1.02 27.68 0 27 C0 26.01 0 25.02 0 24 C-0.57234375 23.91621094 -1.1446875 23.83242188 -1.734375 23.74609375 C-4.67030973 22.77926007 -6.09968312 21.26458377 -8.25 19.0625 C-8.95640625 18.35222656 -9.6628125 17.64195313 -10.390625 16.91015625 C-12 15 -12 15 -12 13 C-7.40693504 14.4859916 -4.56430755 16.85014682 -1 20 C-0.34 18.35 0.32 16.7 1 15 C0.67 14.67 0.34 14.34 0 14 C-0.26149658 12.02715358 -0.45992624 10.04574333 -0.625 8.0625 C-0.72039062 6.98097656 -0.81578125 5.89945313 -0.9140625 4.78515625 C-1 2 -1 2 0 0 Z " fill="#A5A5A5" transform="translate(148,36)"/>
<path d="M0 0 C0.74056641 0.00451172 1.48113281 0.00902344 2.24414062 0.01367188 C4.05862899 0.02537825 5.87307534 0.04331102 7.6875 0.0625 C4.83329818 3.97381361 3.03655688 5.45306587 -1.3125 8.0625 C8.2575 8.3925 17.8275 8.7225 27.6875 9.0625 C27.6875 9.3925 27.6875 9.7225 27.6875 10.0625 C22.43644558 10.08714928 17.18542455 10.10533568 11.93432617 10.11743164 C10.14655979 10.12247218 8.35879755 10.12930454 6.57104492 10.13793945 C4.00698832 10.1500173 1.44298603 10.15573094 -1.12109375 10.16015625 C-2.32734657 10.16789818 -2.32734657 10.16789818 -3.55796814 10.17579651 C-5.47651715 10.17599215 -7.39495368 10.12451983 -9.3125 10.0625 C-9.6425 9.7325 -9.9725 9.4025 -10.3125 9.0625 C-10.02519945 6.72305264 -9.69313221 4.3885857 -9.3125 2.0625 C-10.6325 1.7325 -11.9525 1.4025 -13.3125 1.0625 C-8.8746439 -0.04915232 -4.54293614 -0.05277763 0 0 Z " fill="#4E4E4E" transform="translate(182.3125,189.9375)"/>
<path d="M0 0 C4.875 1.75 4.875 1.75 6 4 C10.15258371 5.26517971 14.27787335 5.07020264 18.5625 4.8125 C19.26270264 4.77133057 19.96290527 4.73016113 20.68432617 4.68774414 C26.34443844 4.25393756 31.33958344 2.89596835 36.64453125 0.83984375 C39 0 39 0 42 0 C41.8125 1.8125 41.8125 1.8125 41 4 C34.22020744 9.34165474 25.26464319 9.71634035 17 9 C5.50794852 7.00529902 5.50794852 7.00529902 1 4 C0.3125 1.875 0.3125 1.875 0 0 Z " fill="#A0A0A0" transform="translate(89,116)"/>
<path d="M0 0 C4.29 0 8.58 0 13 0 C12.67 3.3 12.34 6.6 12 10 C9.37472811 10.05382106 6.75055287 10.09358313 4.125 10.125 C3.37863281 10.14175781 2.63226563 10.15851563 1.86328125 10.17578125 C-0.09194461 10.1933959 -2.04742021 10.10320189 -4 10 C-4.66 9.34 -5.32 8.68 -6 8 C-4.7260411 5.96166576 -3.38938077 3.96147874 -2 2 C-1.34 2 -0.68 2 0 2 C0 1.34 0 0.68 0 0 Z " fill="#4C4C4C" transform="translate(72,180)"/>
<path d="M0 0 C-0.99 0.495 -0.99 0.495 -2 1 C-4.0095568 3.93704456 -5 5.39222485 -5 9 C-5.54269531 9.25394531 -6.08539063 9.50789062 -6.64453125 9.76953125 C-7.35996094 10.11371094 -8.07539062 10.45789063 -8.8125 10.8125 C-9.52019531 11.14894531 -10.22789063 11.48539063 -10.95703125 11.83203125 C-13.05757461 12.91413325 -13.05757461 12.91413325 -14.63671875 14.63671875 C-15.08660156 15.08660156 -15.53648438 15.53648437 -16 16 C-16.66 16 -17.32 16 -18 16 C-18 16.66 -18 17.32 -18 18 C-18.66 18 -19.32 18 -20 18 C-19.67 16.68 -19.34 15.36 -19 14 C-19.66 14 -20.32 14 -21 14 C-21.33 15.65 -21.66 17.3 -22 19 C-22.66 18.67 -23.32 18.34 -24 18 C-22.75 14.5625 -22.75 14.5625 -21 11 C-20.36191406 10.84144531 -19.72382812 10.68289062 -19.06640625 10.51953125 C-16.24643189 9.81053959 -15.72233736 8.54004669 -14.1875 6.125 C-10.83981094 1.40433467 -6.11764521 -2.69176389 0 0 Z " fill="#6D6D6D" transform="translate(72,182)"/>
<path d="M0 0 C0.66 0 1.32 0 2 0 C1.84112808 0.57868835 1.68225616 1.15737671 1.51856995 1.75360107 C0.68714856 5.35524465 0.64006214 9.02241849 0.46484375 12.703125 C0.42186661 13.54091492 0.37888947 14.37870483 0.33460999 15.24188232 C0.19853585 17.91108274 0.06794709 20.58051925 -0.0625 23.25 C-0.15393507 25.06251829 -0.24572778 26.87501857 -0.33789062 28.6875 C-0.56274025 33.12480196 -0.78267153 37.56232357 -1 42 C-2.32 42.66 -3.64 43.32 -5 44 C-4.67 43.01 -4.34 42.02 -4 41 C-4.66 40.67 -5.32 40.34 -6 40 C-5.67 37.03 -5.34 34.06 -5 31 C-5.66 30.67 -6.32 30.34 -7 30 C-6.505 28.7315625 -6.505 28.7315625 -6 27.4375 C-4.9339019 23.77278779 -4.92970781 20.79577815 -5 17 C-4.6156942 14.7582162 -4.09971986 13.18697474 -3.03125 11.18359375 C-1.9387196 8.87024339 -1.39002857 6.75156736 -0.875 4.25 C-0.62363281 3.05117187 -0.62363281 3.05117187 -0.3671875 1.828125 C-0.24601563 1.22484375 -0.12484375 0.6215625 0 0 Z " fill="#929292" transform="translate(155,96)"/>
<path d="M0 0 C2.5 2.0625 2.5 2.0625 5 5 C5.3125 8.8125 5.3125 8.8125 5 12 C0.60748167 14.02055843 -3.15340923 15.40895235 -8 16 C-8.33 12.37 -8.66 8.74 -9 5 C-8.34 5 -7.68 5 -7 5 C-7 4.34 -7 3.68 -7 3 C-5.7934375 3.0309375 -5.7934375 3.0309375 -4.5625 3.0625 C-2.06645115 3.29633621 -2.06645115 3.29633621 -1 2 C-0.67 1.34 -0.34 0.68 0 0 Z " fill="#747474" transform="translate(96,175)"/>
<path d="M0 0 C0.66 0.33 1.32 0.66 2 1 C1.84660156 2.26714844 1.69320312 3.53429687 1.53515625 4.83984375 C0.95360023 10.07384796 0.67287756 15.30316199 0.4375 20.5625 C0.39431641 21.47580078 0.35113281 22.38910156 0.30664062 23.33007812 C0.20188243 25.55327991 0.09970983 27.77656707 0 30 C-3.33333333 28.33333333 -6.66666667 26.66666667 -10 25 C-9.36320312 24.80921875 -8.72640625 24.6184375 -8.0703125 24.421875 C-5.6696834 23.10996909 -5.6696834 23.10996909 -5.2421875 19.953125 C-5.12101562 18.73109375 -4.99984375 17.5090625 -4.875 16.25 C-4.23924867 10.15197707 -3.44149251 5.16223876 0 0 Z " fill="#8B8B8B" transform="translate(131,143)"/>
<path d="M0 0 C0.99 0 1.98 0 3 0 C3.28875 0.78375 3.5775 1.5675 3.875 2.375 C5.48218729 6.12510367 7.41837569 7.32857532 11 9 C9.7027746 12.05872094 8.35937891 14.63543564 6 17 C2.5736796 17.7114192 -0.55019843 17.48230236 -4 17 C-5.125 13.25 -5.125 13.25 -4 11 C-1.4375 10.375 -1.4375 10.375 1 10 C1.33 8.02 1.66 6.04 2 4 C1.34 4 0.68 4 0 4 C0 2.68 0 1.36 0 0 Z " fill="#D8D8D8" transform="translate(91,74)"/>
<path d="M0 0 C0.99 0 1.98 0 3 0 C3.03738281 0.80179688 3.07476562 1.60359375 3.11328125 2.4296875 C3.65384416 11.77824605 5.00490624 20.83466014 6.65234375 30.04296875 C7.1228952 32.69180331 7.56317097 35.34542357 8 38 C7.34 38 6.68 38 6 38 C1.30858855 24.95873698 -2.06047635 13.96545081 0 0 Z " fill="#636363" transform="translate(159,143)"/>
<path d="M0 0 C2.52496473 1.64122707 3.58107412 2.39614655 5 5 C5.45179989 9.69340356 5.28626938 14.2988206 5 19 C3.68 19.33 2.36 19.66 1 20 C0.67 19.34 0.34 18.68 0 18 C-2.31 18.33 -4.62 18.66 -7 19 C-5.51153846 14.28653846 -5.51153846 14.28653846 -2.921875 12.8359375 C-1.97054687 12.42214844 -1.97054687 12.42214844 -1 12 C-1.09539062 11.38511719 -1.19078125 10.77023438 -1.2890625 10.13671875 C-1.39992188 9.32847656 -1.51078125 8.52023438 -1.625 7.6875 C-1.74101563 6.88699219 -1.85703125 6.08648437 -1.9765625 5.26171875 C-2 3 -2 3 0 0 Z " fill="#BEBEBE" transform="translate(88,131)"/>
<path d="M0 0 C2.62349813 0.97444216 4.91463522 1.94309015 7.25 3.5 C10.48193544 5.26287388 13.17295936 5.70958052 16.8125 6.1875 C17.97394531 6.34605469 19.13539063 6.50460938 20.33203125 6.66796875 C21.21246094 6.77753906 22.09289062 6.88710938 23 7 C21.35 10.3 19.7 13.6 18 17 C17.34 17 16.68 17 16 17 C15.505 16.319375 15.01 15.63875 14.5 14.9375 C11.49503367 11.40666456 8.14563902 9.29933374 4.2421875 6.84375 C1.69043726 4.74544666 0.95174565 3.12258122 0 0 Z " fill="#555555" transform="translate(160,47)"/>
<path d="M0 0 C0.66 0.66 1.32 1.32 2 2 C-0.94066505 3.47033252 -3.74474326 3 -7 3 C-10.05017986 3.65738921 -10.05017986 3.65738921 -11.0625 5.75 C-11.371875 6.4925 -11.68125 7.235 -12 8 C-12.34289062 8.75796875 -12.68578125 9.5159375 -13.0390625 10.296875 C-14.9702693 15.72937542 -14.78287125 21.69743749 -12.9375 27.125 C-10.07472875 29.89542379 -7.9238758 30 -4 30 C1.07586619 28.1113056 2.6523007 24.60844678 5 20 C5.33 20.99 5.66 21.98 6 23 C4.92578125 24.97265625 4.92578125 24.97265625 3.3125 27.0625 C2.79300781 27.75472656 2.27351563 28.44695312 1.73828125 29.16015625 C-0.1040324 31.11011069 -1.49871529 32.06080165 -4 33 C-7.37542146 33 -9.88041883 32.95636857 -12.52734375 30.6953125 C-16.40668131 26.1750409 -17.41922031 22.32035377 -17.34375 16.546875 C-16.51669508 10.41914988 -13.62261862 5.44999962 -9.0625 1.375 C-5.70871607 -0.13078054 -3.63171249 -0.49523352 0 0 Z " fill="#1F1F1F" transform="translate(97,62)"/>
<path d="M0 0 C2.64 0 5.28 0 8 0 C6.76811932 2.56641809 5.42660185 4.93828789 3.9375 7.375 C2.10169181 10.53477395 1.35776288 13.33293044 1 17 C-2.56205815 15.6807192 -4.14081382 13.59291811 -6.4296875 10.65625 C-8.97126847 7.97557753 -12.06507236 6.20357762 -15.20703125 4.296875 C-15.79871094 3.86890625 -16.39039063 3.4409375 -17 3 C-17 2.34 -17 1.68 -17 1 C-13.37759303 1.6134053 -11.18326869 3.12583577 -8.3125 5.375 C-7.52488281 5.98085938 -6.73726562 6.58671875 -5.92578125 7.2109375 C-4 9 -4 9 -3 12 C-2.34 12 -1.68 12 -1 12 C-0.896875 11.2575 -0.79375 10.515 -0.6875 9.75 C0.04253504 6.82985982 1.06789398 5.26812446 3 3 C2.01 2.67 1.02 2.34 0 2 C0 1.34 0 0.68 0 0 Z " fill="#040404" transform="translate(179,52)"/>
<path d="M0 0 C3 1 3 1 4.6875 3.9375 C6.53314171 8.24399732 6.00951528 11.41835375 5 16 C2.5625 18.9375 2.5625 18.9375 0 21 C-0.66 21 -1.32 21 -2 21 C-2.625 18.1875 -2.625 18.1875 -3 15 C-2.34 14.01 -1.68 13.02 -1 12 C-0.34 12 0.32 12 1 12 C0.79375 11.071875 0.5875 10.14375 0.375 9.1875 C0 6 0 6 2 3 C1.34 3 0.68 3 0 3 C0 2.01 0 1.02 0 0 Z " fill="#DDDDDD" transform="translate(57,113)"/>
<path d="M0 0 C-1 3 -1 3 -2 5 C-1.7525 6.1446875 -1.7525 6.1446875 -1.5 7.3125 C-0.95935156 10.21848539 -1.27033934 12.16243077 -2 15 C-1.34 15.33 -0.68 15.66 0 16 C-0.99 18.475 -0.99 18.475 -2 21 C-2.99 21 -3.98 21 -5 21 C-6.32 18.36 -7.64 15.72 -9 13 C-8.34 13 -7.68 13 -7 13 C-5.99782936 9.41672247 -5.99782936 9.41672247 -7 6 C-6.67 5.01 -6.34 4.02 -6 3 C-6.66 2.67 -7.32 2.34 -8 2 C-5.09399739 0.74335022 -3.20395416 0 0 0 Z " fill="#BFBFBF" transform="translate(150,35)"/>
<path d="M0 0 C1.17369141 0.28617188 1.17369141 0.28617188 2.37109375 0.578125 C3.15613281 0.75859375 3.94117188 0.9390625 4.75 1.125 C6.80859375 1.828125 6.80859375 1.828125 8.80859375 3.828125 C7.48859375 6.468125 6.16859375 9.108125 4.80859375 11.828125 C4.30070312 11.42980469 3.7928125 11.03148437 3.26953125 10.62109375 C-0.73044123 7.54246325 -4.56019768 4.91216886 -9.19140625 2.828125 C-8.59328125 2.704375 -7.99515625 2.580625 -7.37890625 2.453125 C-4.49007145 1.62774363 -3.07119536 -0.24087807 0 0 Z " fill="#555555" transform="translate(43.19140625,189.171875)"/>
<path d="M0 0 C-0.99 0.495 -0.99 0.495 -2 1 C-2.2165625 2.3303125 -2.2165625 2.3303125 -2.4375 3.6875 C-3.04409384 7.25966371 -4.26891595 9.83889 -6 13 C-6.66 13 -7.32 13 -8 13 C-7.67 13.99 -7.34 14.98 -7 16 C-7.99 16.33 -8.98 16.66 -10 17 C-10.08076963 14.54101345 -10.14037143 12.08466258 -10.1875 9.625 C-10.21263672 8.92632812 -10.23777344 8.22765625 -10.26367188 7.5078125 C-10.29296875 5.4765625 -10.29296875 5.4765625 -10 2 C-6.3558226 -0.4294516 -4.28758728 -0.16179575 0 0 Z " fill="#747474" transform="translate(143,181)"/>
<path d="M0 0 C1.89149657 1.89149657 2.71622398 3.19823028 3.875 5.5546875 C4.22046875 6.25207031 4.5659375 6.94945312 4.921875 7.66796875 C5.27765625 8.39628906 5.6334375 9.12460937 6 9.875 C6.35578125 10.59558594 6.7115625 11.31617188 7.078125 12.05859375 C7.74402476 13.40778617 8.40827428 14.75779528 9.0703125 16.10888672 C10.03792178 18.07713816 11.01720149 20.03929523 12 22 C7.25 25 7.25 25 5 25 C4.35204138 21.95878212 3.70701844 18.91694864 3.0625 15.875 C2.88009766 15.0190625 2.69769531 14.163125 2.50976562 13.28125 C1.57579657 8.86612354 0.694702 4.46071808 0 0 Z " fill="#545454" transform="translate(160,52)"/>
<path d="M0 0 C2.19411153 1.01869464 3.97174479 1.97564206 5.8125 3.5625 C8.77525287 5.50945189 11.5150317 5.66490689 15 6 C15 8.64 15 11.28 15 14 C12.35261084 15.4606285 11.10551666 16 8 16 C8.875 10.25 8.875 10.25 10 8 C9.34 8 8.68 8 8 8 C7.34 10.64 6.68 13.28 6 16 C5.67 16 5.34 16 5 16 C5.33 12.37 5.66 8.74 6 5 C4.68 4.34 3.36 3.68 2 3 C1.34 2.01 0.68 1.02 0 0 Z " fill="#7A7A7A" transform="translate(158,186)"/>
<path d="M0 0 C0.66 0 1.32 0 2 0 C2.93016247 1.3596961 3.79419404 2.76491884 4.625 4.1875 C8.13656746 9.6797299 12.29967384 12.14983692 18 15 C20.61518725 15.09868631 23.19784734 15.13896965 25.8125 15.125 C26.88081055 15.13080078 26.88081055 15.13080078 27.97070312 15.13671875 C31.77280929 15.12968433 35.30487007 14.914708 39 14 C36.55394743 16.961011 34.74138994 17.43215784 31 18 C21.65203085 18.66225395 15.18044863 17.79816565 7.8125 11.6875 C4.56566494 8.71175991 2.14543594 5.84390606 0 2 C0 1.34 0 0.68 0 0 Z " fill="#2C2C2C" transform="translate(83,120)"/>
<path d="M0 0 C4 4.75 4 4.75 4 7 C4.66 7 5.32 7 6 7 C4.64978174 11.41889613 2.73884332 13.34345343 -1 16 C-3 14 -3 14 -3.046875 11.7578125 C-2.94890625 10.88898438 -2.8509375 10.02015625 -2.75 9.125 C-2.66234375 8.26132813 -2.5746875 7.39765625 -2.484375 6.5078125 C-2.00349575 4.01809898 -1.2453726 2.194714 0 0 Z " fill="#9C9C9C" transform="translate(137,94)"/>
<path d="M0 0 C2 1 2 1 3 2 C3 2.66 3 3.32 3 4 C4.32 3.67 5.64 3.34 7 3 C6.25 8.75 6.25 8.75 4 11 C0.5 10.875 0.5 10.875 -3 10 C-4.375 8.0625 -4.375 8.0625 -5 6 C-5.33 5.34 -5.66 4.68 -6 4 C-4.02 2.68 -2.04 1.36 0 0 Z " fill="#9D9D9D" transform="translate(73,92)"/>
<path d="M0 0 C0.66 0 1.32 0 2 0 C2.103125 0.639375 2.20625 1.27875 2.3125 1.9375 C2.539375 2.618125 2.76625 3.29875 3 4 C3.99 4.33 4.98 4.66 6 5 C5.979375 6.2375 5.95875 7.475 5.9375 8.75 C5.92924988 11.09303507 5.99236914 12.96947656 6.5625 15.25 C7.11110164 17.44440658 6.68325879 18.87430598 6 21 C5.34 20.67 4.68 20.34 4 20 C3.39190981 15.68026501 3.25388752 11.35840246 3 7 C2.67 14.92 2.34 22.84 2 31 C1.67 31 1.34 31 1 31 C0.67 20.77 0.34 10.54 0 0 Z " fill="#7F7F7F" transform="translate(156,111)"/>
<path d="M0 0 C4.2026393 2.63886654 7.56638098 5.36440339 11 9 C9.68 9.33 8.36 9.66 7 10 C6.34 8.68 5.68 7.36 5 6 C2.84758697 8.76454766 2.84758697 8.76454766 2.625 11.5625 C2 14 2 14 -0.0625 15.3125 C-0.701875 15.539375 -1.34125 15.76625 -2 16 C-3.04449911 12.86650268 -2.93423645 12.01031744 -2 9 C-1.34 9 -0.68 9 0 9 C-0.185625 8.071875 -0.37125 7.14375 -0.5625 6.1875 C-1 3 -1 3 0 0 Z " fill="#DBDBDB" transform="translate(84,126)"/>
<path d="M0 0 C0.66 0.33 1.32 0.66 2 1 C0.8125 2.9375 0.8125 2.9375 -1 5 C-2.65729891 5.37715939 -4.32591709 5.70617129 -6 6 C-7.39864933 6.49206783 -8.79438029 6.99248827 -10.1875 7.5 C-15.22164731 9.04603919 -20.14692029 9.49447374 -25.375 9.8125 C-26.16028076 9.86535156 -26.94556152 9.91820313 -27.75463867 9.97265625 C-34.96837005 10.32041818 -34.96837005 10.32041818 -38 8 C-39.75 5.875 -39.75 5.875 -41 4 C-39.89205078 4.32484375 -39.89205078 4.32484375 -38.76171875 4.65625 C-25.35747908 8.33517728 -15.67467688 7.12578845 -3 2 C-2.01 1.34 -1.02 0.68 0 0 Z " fill="#1B1B1B" transform="translate(132,112)"/>
<path d="M0 0 C0.33 0 0.66 0 1 0 C1.797837 6.69613196 2.12910853 13.25766581 2 20 C0 20 0 20 -2.625 17.5 C-3.40875 16.675 -4.1925 15.85 -5 15 C-4.34 13.02 -3.68 11.04 -3 9 C-3.66 9 -4.32 9 -5 9 C-4.67 7.35 -4.34 5.7 -4 4 C-3.67 5.32 -3.34 6.64 -3 8 C-2.01 8 -1.02 8 0 8 C0 5.36 0 2.72 0 0 Z " fill="#8C8C8C" transform="translate(164,100)"/>
<path d="M0 0 C0.639375 0.165 1.27875 0.33 1.9375 0.5 C4.54277538 0.92535108 6.75491338 1.03583024 9.375 1 C15.81958184 0.94647357 20.48003724 1.53030912 26 5 C26.66 4.67 27.32 4.34 28 4 C28.33 5.98 28.66 7.96 29 10 C28.18917969 9.566875 27.37835938 9.13375 26.54296875 8.6875 C17.75235726 4.26661041 10.62062033 2.31155875 1 5 C0.67 3.35 0.34 1.7 0 0 Z " fill="#808080" transform="translate(134,174)"/>
<path d="M0 0 C0.33 0 0.66 0 1 0 C0.62113823 4.77565225 0.20724266 9.46490585 -0.9375 14.125 C-2.58367627 20.96962766 -3.19462665 28.01724174 -4 35 C-4.99 34.67 -5.98 34.34 -7 34 C-6.17980215 27.92884481 -5.14242782 21.90493155 -4.0625 15.875 C-3.89298828 14.89917969 -3.72347656 13.92335937 -3.54882812 12.91796875 C-3.29456055 11.50064453 -3.29456055 11.50064453 -3.03515625 10.0546875 C-2.8844165 9.20374512 -2.73367676 8.35280273 -2.57836914 7.47607422 C-1.9643213 4.8472548 -1.06140299 2.47854638 0 0 Z " fill="#2E2E2E" transform="translate(63,134)"/>
<path d="M0 0 C-0.1875 1.8125 -0.1875 1.8125 -1 4 C-6.39195386 8.0439654 -11.4399765 8.12862791 -18 8 C-18 7.01 -18 6.02 -18 5 C-15.56427941 4.16112944 -13.12666783 3.32873471 -10.6875 2.5 C-9.65206055 2.14228516 -9.65206055 2.14228516 -8.59570312 1.77734375 C-5.61068511 0.76791737 -3.17341086 0 0 0 Z " fill="#A2A2A2" transform="translate(131,116)"/>
<path d="M0 0 C1 3 1 3 -0.125 5.875 C-2.13994316 9.23323859 -3.92365067 11.56753774 -7 14 C-10.1875 14.4375 -10.1875 14.4375 -13 14 C-13.66 13.34 -14.32 12.68 -15 12 C-14.01 11.67 -13.02 11.34 -12 11 C-11.67 10.01 -11.34 9.02 -11 8 C-10.67 8.66 -10.34 9.32 -10 10 C-7.52372901 9.36078035 -7.52372901 9.36078035 -5 8 C-3.83046584 5.57616923 -3.83046584 5.57616923 -3 3 C-1.375 1.1875 -1.375 1.1875 0 0 Z " fill="#DEDEDE" transform="translate(121,150)"/>
<path d="M0 0 C0.88300781 0.00902344 1.76601563 0.01804688 2.67578125 0.02734375 C3.67158203 0.04474609 3.67158203 0.04474609 4.6875 0.0625 C3.6975 0.3925 2.7075 0.7225 1.6875 1.0625 C1.6875 1.7225 1.6875 2.3825 1.6875 3.0625 C0.93726562 3.08828125 0.18703125 3.1140625 -0.5859375 3.140625 C-7.70752293 3.53527205 -14.0072665 4.5595925 -20.3125 8.0625 C-20.6425 8.7225 -20.9725 9.3825 -21.3125 10.0625 C-22.9625 9.7325 -24.6125 9.4025 -26.3125 9.0625 C-23.19930357 6.50923099 -20.09222103 4.96563878 -16.375 3.4375 C-15.35535156 3.01210937 -14.33570313 2.58671875 -13.28515625 2.1484375 C-8.75989943 0.49532134 -4.80471499 -0.06406287 0 0 Z " fill="#1C1C1C" transform="translate(31.3125,180.9375)"/>
<path d="M0 0 C1.77697266 0.47566406 1.77697266 0.47566406 3.58984375 0.9609375 C10.18760937 2.42710764 16.82930528 2.45968371 23.5625 2.625 C24.85736328 2.66367187 26.15222656 2.70234375 27.48632812 2.7421875 C30.65741576 2.83579894 33.82850755 2.92153403 37 3 C37 3.33 37 3.66 37 4 C30.4 4 23.8 4 17 4 C17 4.66 17 5.32 17 6 C14.74888027 5.71710528 12.49912314 5.42335307 10.25 5.125 C8.37054688 4.88136719 8.37054688 4.88136719 6.453125 4.6328125 C3.51383592 4.0941645 1.52892853 3.51991159 -1 2 C-0.67 1.34 -0.34 0.68 0 0 Z " fill="#191919" transform="translate(79,37)"/>
<path d="M0 0 C0.66 0 1.32 0 2 0 C2.12375 1.134375 2.2475 2.26875 2.375 3.4375 C2.684375 5.2009375 2.684375 5.2009375 3 7 C5.0745356 8.2236068 5.0745356 8.2236068 8 8 C8.33 10.31 8.66 12.62 9 15 C8.154375 14.525625 7.30875 14.05125 6.4375 13.5625 C2.87412671 11.94278487 -0.12561425 11.38743857 -4 11 C-2.68 10.67 -1.36 10.34 0 10 C0 6.7 0 3.4 0 0 Z " fill="#888888" transform="translate(152,165)"/>
<path d="M0 0 C3.04540996 3.04540996 2.61096882 6.7658215 2.9375 10.875 C3.62961407 18.51932042 4.7931366 25.62907625 7 33 C6.01 33 5.02 33 4 33 C0.94350157 22.30225548 -0.47093714 11.11934918 0 0 Z " fill="#141414" transform="translate(156,142)"/>
<path d="M0 0 C2 2 2 2 2.23046875 3.875 C2.21628906 4.57625 2.20210937 5.2775 2.1875 6 C2.18105469 6.70125 2.17460937 7.4025 2.16796875 8.125 C2 10 2 10 1 12 C1.99 13.485 1.99 13.485 3 15 C3.66 14.34 4.32 13.68 5 13 C5 16 5 16 3.375 18.1875 C0.37948178 20.47355338 -1.32340669 20.14605645 -5 20 C-4.72285156 19.2265625 -4.44570312 18.453125 -4.16015625 17.65625 C-2.09610345 11.72118003 -0.48233374 6.27033868 0 0 Z " fill="#B7B7B7" transform="translate(142,70)"/>
<path d="M0 0 C0.66 0.33 1.32 0.66 2 1 C2 1.66 2 2.32 2 3 C-0.35171843 3.82022612 -2.7059851 4.6312654 -5.0625 5.4375 C-5.71927734 5.66759766 -6.37605469 5.89769531 -7.05273438 6.13476562 C-11.37626855 7.60434128 -15.46079726 8.48646211 -20 9 C-20 8.34 -20 7.68 -20 7 C-20.66 6.67 -21.32 6.34 -22 6 C-20.83082031 5.73445313 -19.66164063 5.46890625 -18.45703125 5.1953125 C-16.90880583 4.83875149 -15.36063141 4.48196898 -13.8125 4.125 C-13.04357422 3.95097656 -12.27464844 3.77695312 -11.48242188 3.59765625 C-8.21640031 2.84072421 -5.18548563 2.07577918 -2.07421875 0.8046875 C-1.38972656 0.53914063 -0.70523438 0.27359375 0 0 Z " fill="#0E0E0E" transform="translate(145,33)"/>
<path d="M0 0 C2.475 0.99 2.475 0.99 5 2 C4.5541145 5.27265661 4.09115745 8.54267439 3.625 11.8125 C3.49867187 12.74126953 3.37234375 13.67003906 3.2421875 14.62695312 C3.11328125 15.51962891 2.984375 16.41230469 2.8515625 17.33203125 C2.73635254 18.15421143 2.62114258 18.9763916 2.50244141 19.82348633 C2 22 2 22 0 25 C-0.38133299 23.0085944 -0.71325582 21.00720923 -1 19 C-0.67 18.67 -0.34 18.34 0 18 C0.39569108 15.98688551 0.74252191 13.96402792 1.0625 11.9375 C1.32740234 10.28041016 1.32740234 10.28041016 1.59765625 8.58984375 C1.73042969 7.73519531 1.86320312 6.88054687 2 6 C0.02 6.99 0.02 6.99 -2 8 C-1.125 2.25 -1.125 2.25 0 0 Z " fill="#C6C6C6" transform="translate(54,150)"/>
<path d="M0 0 C0 3 0 3 -1.4765625 4.71484375 C-3.91906211 8.37859316 -3.40104598 12.29867042 -3.3515625 16.59960938 C-3.3984375 18.56640625 -3.3984375 18.56640625 -4 22 C-6.5390625 23.96484375 -6.5390625 23.96484375 -9 25 C-7.28571429 7.28571429 -7.28571429 7.28571429 0 0 Z " fill="#D1D1D1" transform="translate(137,90)"/>
<path d="M0 0 C1.98 0 3.96 0 6 0 C6 0.66 6 1.32 6 2 C10.62 1.67 15.24 1.34 20 1 C17.62015099 3.37984901 15.9832469 3.95270406 12.63989258 4.11352539 C11.73392334 4.10828857 10.8279541 4.10305176 9.89453125 4.09765625 C8.91162109 4.09443359 7.92871094 4.09121094 6.91601562 4.08789062 C5.89185547 4.07951172 4.86769531 4.07113281 3.8125 4.0625 C2.77673828 4.05798828 1.74097656 4.05347656 0.67382812 4.04882812 C-1.88417266 4.0370401 -4.44205733 4.02058515 -7 4 C-7 3.67 -7 3.34 -7 3 C-4.69 3 -2.38 3 0 3 C0 2.01 0 1.02 0 0 Z " fill="#747474" transform="translate(198,195)"/>
<path d="M0 0 C0.33 0.66 0.66 1.32 1 2 C0.00390625 3.9453125 0.00390625 3.9453125 -1.4375 6.125 C-1.91058594 6.84945312 -2.38367188 7.57390625 -2.87109375 8.3203125 C-3.24363281 8.87460938 -3.61617187 9.42890625 -4 10 C-3.34 9.67 -2.68 9.34 -2 9 C-2.33 9.99 -2.66 10.98 -3 12 C-4.98 12 -6.96 12 -9 12 C-9.66 10.68 -10.32 9.36 -11 8 C-10.34 8 -9.68 8 -9 8 C-8.731875 7.21625 -8.46375 6.4325 -8.1875 5.625 C-7 3 -7 3 -4 1 C-4.33 2.32 -4.66 3.64 -5 5 C-3.35 3.35 -1.7 1.7 0 0 Z " fill="#D1D1D1" transform="translate(150,89)"/>
<path d="M0 0 C0.59425781 0.37511719 1.18851563 0.75023437 1.80078125 1.13671875 C13.64085656 8.56733488 13.64085656 8.56733488 27 12 C27 12.33 27 12.66 27 13 C25.10448978 13.05441656 23.2085208 13.09298035 21.3125 13.125 C20.25675781 13.14820313 19.20101562 13.17140625 18.11328125 13.1953125 C14.97748141 12.99858729 12.82354627 12.33057654 10 11 C10.33 10.34 10.66 9.68 11 9 C10.37351563 8.68546875 9.74703125 8.3709375 9.1015625 8.046875 C8.28429687 7.61890625 7.46703125 7.1909375 6.625 6.75 C5.81289062 6.33234375 5.00078125 5.9146875 4.1640625 5.484375 C1.79198795 3.85732025 1.02905196 2.64613361 0 0 Z " fill="#4C4C4C" transform="translate(194,180)"/>
<path d="M0 0 C2.64 0.66 5.28 1.32 8 2 C7.67 4.64 7.34 7.28 7 10 C6.01 9.67 5.02 9.34 4 9 C3.01 9.66 2.02 10.32 1 11 C-0.20272819 8.59454362 -0.10071472 7.05003047 -0.0625 4.375 C-0.05347656 3.55773437 -0.04445312 2.74046875 -0.03515625 1.8984375 C-0.02355469 1.27195312 -0.01195312 0.64546875 0 0 Z " fill="#DDDDDD" transform="translate(131,76)"/>
<path d="M0 0 C0 3.74161103 -0.51338171 7.28953557 -1 11 C-1.66 11 -2.32 11 -3 11 C-3.99 16.28 -4.98 21.56 -6 27 C-6.33 27 -6.66 27 -7 27 C-7.51159238 18.26503387 -6.37940495 9.72246217 -2 2 C-1.34 1.34 -0.68 0.68 0 0 Z " fill="#AAAAAA" transform="translate(134,120)"/>
<path d="M0 0 C0.66 0.33 1.32 0.66 2 1 C1.01 3.97 0.02 6.94 -1 10 C-1.66 10 -2.32 10 -3 10 C-2.98839844 10.73605469 -2.97679688 11.47210938 -2.96484375 12.23046875 C-2.95582031 13.20628906 -2.94679688 14.18210938 -2.9375 15.1875 C-2.92589844 16.15042969 -2.91429688 17.11335938 -2.90234375 18.10546875 C-2.99513378 20.85576513 -3.37888315 23.32479591 -4 26 C-4.66 25.67 -5.32 25.34 -6 25 C-5.91621094 24.32453125 -5.83242187 23.6490625 -5.74609375 22.953125 C-5.64425781 22.06109375 -5.54242188 21.1690625 -5.4375 20.25 C-5.33308594 19.36828125 -5.22867188 18.4865625 -5.12109375 17.578125 C-4.86694504 15.04430871 -4.86694504 15.04430871 -5.59765625 12.859375 C-5.73042969 12.24578125 -5.86320312 11.6321875 -6 11 C-5.34 10.01 -4.68 9.02 -4 8 C-3.67 6.989375 -3.34 5.97875 -3 4.9375 C-2 2 -2 2 0 0 Z " fill="#C7C7C7" transform="translate(129,127)"/>
<path d="M0 0 C2.31 0 4.62 0 7 0 C7 1.32 7 2.64 7 4 C5.68 4 4.36 4 3 4 C2.67 5.32 2.34 6.64 2 8 C-0.64 8 -3.28 8 -6 8 C-3.74259377 5.66475218 -1.7194239 3.81294927 1 2 C0.67 1.34 0.34 0.68 0 0 Z " fill="#5A5A5A" transform="translate(186,191)"/>
<path d="M0 0 C-0.59765625 1.91796875 -0.59765625 1.91796875 -2 4 C-4.93359375 4.86328125 -4.93359375 4.86328125 -8.4375 5.3125 C-9.59121094 5.47363281 -10.74492187 5.63476562 -11.93359375 5.80078125 C-15 6 -15 6 -18 5 C-16.13103445 4.15321949 -14.25449819 3.32313789 -12.375 2.5 C-10.80878906 1.80390625 -10.80878906 1.80390625 -9.2109375 1.09375 C-5.91875709 -0.02767398 -3.44884777 -0.207138 0 0 Z " fill="#595959" transform="translate(27,184)"/>
<path d="M0 0 C0.66 0.33 1.32 0.66 2 1 C1.34 2.32 0.68 3.64 0 5 C-0.66 5 -1.32 5 -2 5 C-1.67 6.32 -1.34 7.64 -1 9 C-1.99 9.33 -2.98 9.66 -4 10 C-4 10.66 -4 11.32 -4 12 C-4.66 12 -5.32 12 -6 12 C-5.67 10.68 -5.34 9.36 -5 8 C-5.66 8 -6.32 8 -7 8 C-7.33 9.65 -7.66 11.3 -8 13 C-8.66 12.67 -9.32 12.34 -10 12 C-8.75 8.5625 -8.75 8.5625 -7 5 C-5 4.3125 -5 4.3125 -3 4 C-1.24577228 2.02329393 -1.24577228 2.02329393 0 0 Z " fill="#858585" transform="translate(58,188)"/>
<path d="M0 0 C2.51182589 5.02365177 3.12587258 8.47996514 3.0625 14.125 C3.05798828 14.87910156 3.05347656 15.63320312 3.04882812 16.41015625 C3.03703499 18.27347127 3.01909942 20.13674555 3 22 C0.75517949 19.08729901 -0.99080489 16.5780554 -2 13 C-1.34 12.01 -0.68 11.02 0 10 C0.24150773 7.48415109 0.24150773 7.48415109 0.125 4.8125 C0.10695312 3.91144531 0.08890625 3.01039062 0.0703125 2.08203125 C0.04710937 1.39496094 0.02390625 0.70789063 0 0 Z " fill="#A5A5A5" transform="translate(160,71)"/>
<path d="M0 0 C2 1 2 1 4 3 C3.625 6.125 3.625 6.125 3 9 C-1.875 10 -1.875 10 -3 10 C-3.36923077 4.58461538 -3.36923077 4.58461538 -1.5 1.625 C-1.005 1.08875 -0.51 0.5525 0 0 Z " fill="#646464" transform="translate(97,68)"/>
<path d="M0 0 C0.4125 0.38671875 0.825 0.7734375 1.25 1.171875 C9.1460175 8.29239078 14.66013853 10.48354105 25.4375 10.140625 C26.283125 10.09421875 27.12875 10.0478125 28 10 C28.33 10.66 28.66 11.32 29 12 C11.11047139 12.98776538 11.11047139 12.98776538 4 7 C0 2.80487805 0 2.80487805 0 0 Z " fill="#C3C3C3" transform="translate(88,124)"/>
<path d="M0 0 C0.33 0 0.66 0 1 0 C1.0270043 1.45823212 1.04639787 2.91660675 1.0625 4.375 C1.07410156 5.18710938 1.08570312 5.99921875 1.09765625 6.8359375 C1 9 1 9 0 11 C-3.96 11 -7.92 11 -12 11 C-12 10.67 -12 10.34 -12 10 C-8.535 9.505 -8.535 9.505 -5 9 C-4.34 7.02 -3.68 5.04 -3 3 C-2.34 3 -1.68 3 -1 3 C-0.67 2.01 -0.34 1.02 0 0 Z " fill="#AFAFAF" transform="translate(84,166)"/>
<path d="M0 0 C0.33 0 0.66 0 1 0 C1.144375 0.9075 1.28875 1.815 1.4375 2.75 C1.86409473 5.21476956 2.35074221 7.58847107 3 10 C2.01 10.33 1.02 10.66 0 11 C-0.103125 11.7425 -0.20625 12.485 -0.3125 13.25 C-1.04253504 16.17014018 -2.06789398 17.73187554 -4 20 C-3.39077674 15.53236278 -2.71196847 11.07745952 -2 6.625 C-1.835 5.58601562 -1.67 4.54703125 -1.5 3.4765625 C-1 1 -1 1 0 0 Z " fill="#A0A0A0" transform="translate(130,134)"/>
<path d="M0 0 C0.78375 0.04125 1.5675 0.0825 2.375 0.125 C2.375 2.765 2.375 5.405 2.375 8.125 C1.715 7.465 1.055 6.805 0.375 6.125 C-3.22179066 6.44826553 -3.22179066 6.44826553 -6.625 7.125 C-4.07142857 0.19387755 -4.07142857 0.19387755 0 0 Z " fill="#CCCCCC" transform="translate(87.625,142.875)"/>
<path d="M0 0 C3.48539917 0.64544429 6.02819057 2.10134397 9 4 C9.33 3.34 9.66 2.68 10 2 C10 2.99 10 3.98 10 5 C7.10765685 5.82638376 5.11257569 6 2 6 C2.33 6.598125 2.66 7.19625 3 7.8125 C4 10 4 10 4 13 C3.34 13 2.68 13 2 13 C1.46605821 11.5882217 0.94834896 10.17029756 0.4375 8.75 C0.14746094 7.96109375 -0.14257812 7.1721875 -0.44140625 6.359375 C-1.04522837 3.80896548 -0.8473932 2.44677771 0 0 Z " fill="#D2D2D2" transform="translate(139,56)"/>
<path d="M0 0 C2.50816459 2.50816459 3.61410019 3.90837736 5 7 C4.34 7 3.68 7 3 7 C2.67 10.63 2.34 14.26 2 18 C1.01 17.67 0.02 17.34 -1 17 C-0.67 11.39 -0.34 5.78 0 0 Z " fill="#626262" transform="translate(129,178)"/>
<path d="M0 0 C0.33 0.99 0.66 1.98 1 3 C-2.73965964 5.49310643 -4.29070641 5.0603261 -8.6875 4.625 C-9.86699219 4.51414063 -11.04648438 4.40328125 -12.26171875 4.2890625 C-13.61716797 4.14597656 -13.61716797 4.14597656 -15 4 C-14.34 3.01 -13.68 2.02 -13 1 C-9.9609375 0.48828125 -9.9609375 0.48828125 -6.375 0.3125 C-5.18648437 0.24675781 -3.99796875 0.18101562 -2.7734375 0.11328125 C-1.85820313 0.07589844 -0.94296875 0.03851563 0 0 Z " fill="#070707" transform="translate(85,176)"/>
<path d="M0 0 C0.1799928 5.21979128 -0.02905192 9.07262981 -2 14 C-3.27208622 13.37755401 -4.54261882 12.75193233 -5.8125 12.125 C-6.52019531 11.77695313 -7.22789063 11.42890625 -7.95703125 11.0703125 C-10 10 -10 10 -13 8 C-11.35 7.67 -9.7 7.34 -8 7 C-8 7.66 -8 8.32 -8 9 C-6.68 9 -5.36 9 -4 9 C-3.34 9 -2.68 9 -2 9 C-1.91773332 5.95613276 -2.02391783 3.92824652 -3 1 C-1 0 -1 0 0 0 Z " fill="#B0B0B0" transform="translate(54,175)"/>
<path d="M0 0 C0 3.3 0 6.6 0 10 C-3.69418201 10 -5.77836178 8.71820705 -9 7 C-8.360625 6.731875 -7.72125 6.46375 -7.0625 6.1875 C-4.66868314 5.11332248 -4.66868314 5.11332248 -4 2 C-1 0 -1 0 0 0 Z " fill="#7B7B7B" transform="translate(130,161)"/>
<path d="M0 0 C1.32 0 2.64 0 4 0 C3.67 0.556875 3.34 1.11375 3 1.6875 C1.8690399 4.30284522 1.84337026 6.1806646 2 9 C0.35 9.66 -1.3 10.32 -3 11 C-4 9 -4 9 -3.1875 6.0625 C-2 3 -2 3 0 0 Z " fill="#ADADAD" transform="translate(145,112)"/>
<path d="M0 0 C-1 3 -1 3 -3.36328125 4.421875 C-4.33652344 4.86015625 -5.30976562 5.2984375 -6.3125 5.75 C-7.76076172 6.42289063 -7.76076172 6.42289063 -9.23828125 7.109375 C-12.08944404 8.02884475 -13.25840627 8.06798426 -16 7 C-5.23282443 0 -5.23282443 0 0 0 Z " fill="#1E1E1E" transform="translate(92,53)"/>
<path d="M0 0 C0.66 0 1.32 0 2 0 C2.1953125 2.05078125 2.390625 4.1015625 2.5859375 6.15234375 C2.72257812 6.76207031 2.85921875 7.37179688 3 8 C3.66 8.33 4.32 8.66 5 9 C3.68 10.32 2.36 11.64 1 13 C-0.32 12.34 -1.64 11.68 -3 11 C-3 10.34 -3 9.68 -3 9 C-2.34 9 -1.68 9 -1 9 C-0.67 6.03 -0.34 3.06 0 0 Z " fill="#111111" transform="translate(86,182)"/>
<path d="M0 0 C1.98 0 3.96 0 6 0 C5.34 0.66 4.68 1.32 4 2 C3.01 2 2.02 2 1 2 C0.34 3.65 -0.32 5.3 -1 7 C1.31 7 3.62 7 6 7 C6 7.33 6 7.66 6 8 C4.37828761 8.38897161 2.75245075 8.76078298 1.125 9.125 C0.22007813 9.33382812 -0.68484375 9.54265625 -1.6171875 9.7578125 C-2.40351562 9.83773437 -3.18984375 9.91765625 -4 10 C-4.66 9.34 -5.32 8.68 -6 8 C-4.7260411 5.96166576 -3.38938077 3.96147874 -2 2 C-1.34 2 -0.68 2 0 2 C0 1.34 0 0.68 0 0 Z " fill="#5F5F5F" transform="translate(72,180)"/>
<path d="M0 0 C2.76223278 2.76223278 2.57856291 5.20706617 3 9 C2.360625 9.165 1.72125 9.33 1.0625 9.5 C-1.16119241 10.781786 -1.16119241 10.781786 -1.48828125 12.9140625 C-1.7275978 14.93575155 -1.86893028 16.96841939 -2 19 C-2.33 19 -2.66 19 -3 19 C-3.33 15.7 -3.66 12.4 -4 9 C-3.34 9 -2.68 9 -2 9 C-1.7834375 7.0509375 -1.7834375 7.0509375 -1.5625 5.0625 C-1.125 1.125 -1.125 1.125 0 0 Z " fill="#6D6D6D" transform="translate(161,133)"/>
<path d="M0 0 C0 0.99 0 1.98 0 3 C-5.45461169 4.38529821 -10.36718401 5.2396943 -16 5 C-13.51196416 1.99748896 -11.16518552 1.22287132 -7.4375 0.25 C-6.46683594 -0.01296875 -5.49617187 -0.2759375 -4.49609375 -0.546875 C-2 -1 -2 -1 0 0 Z " fill="#161616" transform="translate(141,23)"/>
<path d="M0 0 C0.99 0.66 1.98 1.32 3 2 C2.67 3.32 2.34 4.64 2 6 C4.97 6.495 4.97 6.495 8 7 C8 7.33 8 7.66 8 8 C3.38 8.33 -1.24 8.66 -6 9 C-5.67 8.01 -5.34 7.02 -5 6 C-4.34 6 -3.68 6 -3 6 C-2.87625 5.38125 -2.7525 4.7625 -2.625 4.125 C-2 2 -2 2 0 0 Z " fill="#515151" transform="translate(141,189)"/>
<path d="M0 0 C0.66 0.33 1.32 0.66 2 1 C2 1.99 2 2.98 2 4 C1.12988281 4.23783203 1.12988281 4.23783203 0.2421875 4.48046875 C-5.27558687 6.12851687 -8.82153753 8.03581766 -13 12 C-13.66 11.67 -14.32 11.34 -15 11 C-12.42182537 5.84365074 -5.13302989 2.07765496 0 0 Z " fill="#0F0F0F" transform="translate(70,177)"/>
<path d="M0 0 C0.33 0 0.66 0 1 0 C1.02698189 1.62490954 1.04638757 3.24994633 1.0625 4.875 C1.07410156 5.77992187 1.08570313 6.68484375 1.09765625 7.6171875 C1 10 1 10 0 12 C-0.66 12 -1.32 12 -2 12 C-2 12.66 -2 13.32 -2 14 C-2.66 14 -3.32 14 -4 14 C-4.1953125 7.9453125 -4.1953125 7.9453125 -4 6 C-3.34 5.34 -2.68 4.68 -2 4 C-1.67 4.33 -1.34 4.66 -1 5 C-0.67 3.35 -0.34 1.7 0 0 Z " fill="#939393" transform="translate(163,87)"/>
<path d="M0 0 C0.33 0 0.66 0 1 0 C2.23076923 6.4 2.23076923 6.4 1.0625 9.4375 C0.711875 9.953125 0.36125 10.46875 0 11 C-0.33 10.67 -0.66 10.34 -1 10 C-1.66 10.66 -2.32 11.32 -3 12 C-3.59732819 9.23735711 -4 6.83967231 -4 4 C-2.68 3.67 -1.36 3.34 0 3 C0 2.01 0 1.02 0 0 Z " fill="#C2C2C2" transform="translate(88,146)"/>
<path d="M0 0 C1.32 0 2.64 0 4 0 C4.25 2.8125 4.25 2.8125 4 6 C2.125 7.875 2.125 7.875 0 9 C-0.66 9 -1.32 9 -2 9 C-2.25 3.375 -2.25 3.375 0 0 Z " fill="#8F8F8F" transform="translate(152,142)"/>
<path d="M0 0 C4.703153 1.3832803 8.10193812 4.08612262 11 8 C11 8.99 11 9.98 11 11 C7.84164893 9.60249952 5.67727175 7.94801766 3.25 5.5 C2.63640625 4.8915625 2.0228125 4.283125 1.390625 3.65625 C0 2 0 2 0 0 Z " fill="#171717" transform="translate(136,49)"/>
<path d="M0 0 C3 1 3 1 4.25 3.3125 C5.0275526 6.09873015 4.98726527 7.33438378 4 10 C4 9.34 4 8.68 4 8 C3.34 8 2.68 8 2 8 C1.67 9.32 1.34 10.64 1 12 C-1.45 2.9 -1.45 2.9 0 0 Z " fill="#AEAEAE" transform="translate(148,36)"/>
<path d="M0 0 C2.42604752 2.42604752 2.75843519 4.14192776 3.625 7.4375 C3.88539063 8.40558594 4.14578125 9.37367188 4.4140625 10.37109375 C5 13 5 13 5 16 C4.34 16 3.68 16 3 16 C2.29695778 14.27709395 1.61316509 12.54632534 0.9375 10.8125 C0.55464844 9.84957031 0.17179688 8.88664063 -0.22265625 7.89453125 C-1.05622133 4.79065325 -0.88679818 3.05080883 0 0 Z " fill="#5B5B5B" transform="translate(162,165)"/>
<path d="M0 0 C0.99 0.33 1.98 0.66 3 1 C3.33 4.63 3.66 8.26 4 12 C1 11 1 11 -0.16796875 9.15234375 C-0.50441406 8.42144531 -0.84085938 7.69054688 -1.1875 6.9375 C-1.53167969 6.20402344 -1.87585938 5.47054687 -2.23046875 4.71484375 C-2.48441406 4.14894531 -2.73835937 3.58304688 -3 3 C-2.34 3 -1.68 3 -1 3 C-0.67 2.01 -0.34 1.02 0 0 Z " fill="#C9C9C9" transform="translate(144,45)"/>
<path d="M0 0 C0.33 0 0.66 0 1 0 C2.13764351 4.26616316 3 7.56486311 3 12 C3.15120815 14.08451233 3.31894502 16.16786776 3.5 18.25 C3.5928125 19.32765625 3.685625 20.4053125 3.78125 21.515625 C3.8534375 22.33546875 3.925625 23.1553125 4 24 C3.34 24 2.68 24 2 24 C0.18655665 15.92046224 -0.23658921 8.26747851 0 0 Z " fill="#767676" transform="translate(162,144)"/>
<path d="M0 0 C1.32 1.65 2.64 3.3 4 5 C3.01 5.495 3.01 5.495 2 6 C1.67 6.99 1.34 7.98 1 9 C0.34 9 -0.32 9 -1 9 C-1.66 10.32 -2.32 11.64 -3 13 C-2.88490339 11.58249437 -2.75746342 10.16598831 -2.625 8.75 C-2.55539063 7.96109375 -2.48578125 7.1721875 -2.4140625 6.359375 C-1.98492887 3.914123 -1.21399362 2.15163097 0 0 Z " fill="#A8A8A8" transform="translate(137,94)"/>
<path d="M0 0 C2 2 2 2 2.3125 4.875 C1.9674117 8.32588302 1.47442688 9.61394551 -1 12 C-3.1875 12.75 -3.1875 12.75 -5 13 C-5 12.34 -5 11.68 -5 11 C-4.34 10.67 -3.68 10.34 -3 10 C-2.349461 7.91388442 -2.349461 7.91388442 -1.9375 5.5 C-1.09393346 1.09393346 -1.09393346 1.09393346 0 0 Z " fill="#E7E7E7" transform="translate(128,104)"/>
<path d="M0 0 C0.33 0 0.66 0 1 0 C1.40060526 3.50529602 1.15413141 4.7739406 -0.875 7.75 C-3.64434742 10.68225021 -4.36780026 10.95402184 -8.4375 11.25 C-12 11 -12 11 -13.9375 9.5 C-14.288125 9.005 -14.63875 8.51 -15 8 C-14.67 7.34 -14.34 6.68 -14 6 C-13.4121875 6.7425 -13.4121875 6.7425 -12.8125 7.5 C-11.06817563 9.16898287 -11.06817563 9.16898287 -8.625 9.5625 C-4.61769126 8.70379098 -3.29736418 6.25459925 -1 3 C-0.67 2.01 -0.34 1.02 0 0 Z " fill="#161616" transform="translate(138,83)"/>
<path d="M0 0 C0.33 0 0.66 0 1 0 C1.33 2.97 1.66 5.94 2 9 C0.35 9.66 -1.3 10.32 -3 11 C-2.25 3.375 -2.25 3.375 0 0 Z " fill="#929292" transform="translate(91,180)"/>
<path d="M0 0 C2.31 0 4.62 0 7 0 C6.67 2.64 6.34 5.28 6 8 C6.66 8.33 7.32 8.66 8 9 C6.35 8.67 4.7 8.34 3 8 C3.33 5.69 3.66 3.38 4 1 C2.68 0.67 1.36 0.34 0 0 Z " fill="#636363" transform="translate(169,191)"/>
<path d="M0 0 C0.66 0 1.32 0 2 0 C2.33 2.31 2.66 4.62 3 7 C2.34 7 1.68 7 1 7 C1.33 7.99 1.66 8.98 2 10 C1.01 10.33 0.02 10.66 -1 11 C-1.02688151 9.35425434 -1.04634123 7.70838587 -1.0625 6.0625 C-1.07410156 5.14597656 -1.08570313 4.22945312 -1.09765625 3.28515625 C-1 1 -1 1 0 0 Z " fill="#7C7C7C" transform="translate(134,187)"/>
<path d="M0 0 C1.65 0 3.3 0 5 0 C4.67 0.66 4.34 1.32 4 2 C3.34 2 2.68 2 2 2 C2 2.99 2 3.98 2 5 C3.32 5.33 4.64 5.66 6 6 C4.741875 6.04125 3.48375 6.0825 2.1875 6.125 C1.47980469 6.14820313 0.77210937 6.17140625 0.04296875 6.1953125 C-2 6 -2 6 -5 4 C-4.360625 3.71125 -3.72125 3.4225 -3.0625 3.125 C-0.84793921 2.17176549 -0.84793921 2.17176549 0 0 Z " fill="#686868" transform="translate(27,184)"/>
<path d="M0 0 C0.66 0.66 1.32 1.32 2 2 C1.40832031 2.04898438 0.81664063 2.09796875 0.20703125 2.1484375 C-4.19104472 2.56456867 -7.96928897 3.04965595 -12 5 C-12.33 4.34 -12.66 3.68 -13 3 C-11.5903653 2.29819469 -10.17192359 1.61406042 -8.75 0.9375 C-7.96109375 0.55464844 -7.1721875 0.17179688 -6.359375 -0.22265625 C-3.69674402 -1.09991381 -2.56890056 -1.04841882 0 0 Z " fill="#252525" transform="translate(105,166)"/>
<path d="M0 0 C1.32 0.66 2.64 1.32 4 2 C3.67 4.64 3.34 7.28 3 10 C2.01 10.33 1.02 10.66 0 11 C-0.19491452 9.54263913 -0.38069358 8.08405407 -0.5625 6.625 C-0.66691406 5.81289062 -0.77132812 5.00078125 -0.87890625 4.1640625 C-1 2 -1 2 0 0 Z " fill="#8D8D8D" transform="translate(131,131)"/>
<path d="M0 0 C0.33 0.33 0.66 0.66 1 1 C0.67 1.66 0.34 2.32 0 3 C-3.47325181 4.1577506 -6.36067448 4.06866652 -10 4 C-10 3.01 -10 2.02 -10 1 C-3.375 -1.125 -3.375 -1.125 0 0 Z " fill="#C3C3C3" transform="translate(123,120)"/>
<path d="M0 0 C5.28 0.33 10.56 0.66 16 1 C15.67 1.66 15.34 2.32 15 3 C10.38 3 5.76 3 1 3 C0.67 2.01 0.34 1.02 0 0 Z " fill="#666666" transform="translate(203,194)"/>
<path d="M0 0 C4.2026393 2.63886654 7.56638098 5.36440339 11 9 C9.68 9.33 8.36 9.66 7 10 C6.731875 9.38125 6.46375 8.7625 6.1875 8.125 C5.04443152 5.7004767 5.04443152 5.7004767 2 4 C1.01 4.66 0.02 5.32 -1 6 C-0.67 4.02 -0.34 2.04 0 0 Z " fill="#E4E4E4" transform="translate(84,126)"/>
<path d="M0 0 C2 1 2 1 3 2 C3 2.66 3 3.32 3 4 C0.69 5.32 -1.62 6.64 -4 8 C-4.66666667 6.66666667 -5.33333333 5.33333333 -6 4 C-4.02 2.68 -2.04 1.36 0 0 Z " fill="#4F4F4F" transform="translate(73,92)"/>
<path d="M0 0 C0.66 0.66 1.32 1.32 2 2 C-0.94066505 3.47033252 -3.74474326 3 -7 3 C-7.99 3.33 -8.98 3.66 -10 4 C-10.33 4.99 -10.66 5.98 -11 7 C-11.66 6.34 -12.32 5.68 -13 5 C-8.32051024 1.18252151 -6.13981394 -0.38373837 0 0 Z " fill="#2A2A2A" transform="translate(97,62)"/>
<path d="M0 0 C-0.33 3.3 -0.66 6.6 -1 10 C-2.32 9.67 -3.64 9.34 -5 9 C-4.71848913 7.68528432 -4.42446661 6.37324233 -4.125 5.0625 C-3.96257812 4.33160156 -3.80015625 3.60070312 -3.6328125 2.84765625 C-2.93449973 0.80875539 -2.29775298 0 0 0 Z " fill="#5B5B5B" transform="translate(85,180)"/>
<path d="M0 0 C1.65 0 3.3 0 5 0 C4.67 2.64 4.34 5.28 4 8 C3.34 6.68 2.68 5.36 2 4 C1.01 5.32 0.02 6.64 -1 8 C-1.33 6.02 -1.66 4.04 -2 2 C-1.34 2 -0.68 2 0 2 C0 1.34 0 0.68 0 0 Z " fill="#7A7A7A" transform="translate(89,178)"/>
<path d="M0 0 C0.66 0.66 1.32 1.32 2 2 C-2.18461538 6.92307692 -2.18461538 6.92307692 -6.3125 7.3125 C-7.199375 7.209375 -8.08625 7.10625 -9 7 C-8.01 6.67 -7.02 6.34 -6 6 C-5.67 5.01 -5.34 4.02 -5 3 C-4.34 3 -3.68 3 -3 3 C-2.67 2.34 -2.34 1.68 -2 1 C-1.67 1.33 -1.34 1.66 -1 2 C-0.67 1.34 -0.34 0.68 0 0 Z " fill="#A9A9A9" transform="translate(146,83)"/>
<path d="M0 0 C1.32 0 2.64 0 4 0 C4.625 1.8125 4.625 1.8125 5 4 C4.01 5.485 4.01 5.485 3 7 C2.01 6.67 1.02 6.34 0 6 C0 4.02 0 2.04 0 0 Z " fill="#C5C5C5" transform="translate(134,79)"/>
<path d="M0 0 C-2.34545328 2.34545328 -3.95985838 2.95508888 -7.26171875 3.09765625 C-8.06222656 3.08605469 -8.86273438 3.07445312 -9.6875 3.0625 C-10.89986328 3.04896484 -10.89986328 3.04896484 -12.13671875 3.03515625 C-13.05904297 3.01775391 -13.05904297 3.01775391 -14 3 C-13.67 2.34 -13.34 1.68 -13 1 C-8.65012229 -0.03568517 -4.45537928 -0.08910759 0 0 Z " fill="#909090" transform="translate(218,196)"/>
<path d="M0 0 C0.94875 0.350625 1.8975 0.70125 2.875 1.0625 C5.87060172 2.35026777 5.87060172 2.35026777 8 1 C8.33 2.98 8.66 4.96 9 7 C5.7 5.35 2.4 3.7 -1 2 C-0.67 1.34 -0.34 0.68 0 0 Z " fill="#606060" transform="translate(154,177)"/>
<path d="M0 0 C3.63195496 1.21065165 4.42896192 2.53691126 6.6875 5.5625 C7.31011719 6.38878906 7.93273437 7.21507812 8.57421875 8.06640625 C9.04472656 8.70449219 9.51523438 9.34257812 10 10 C9.01 10 8.02 10 7 10 C5.62131719 8.37064759 4.28725907 6.70250393 3 5 C2.34 4.67 1.68 4.34 1 4 C0.67 4.66 0.34 5.32 0 6 C0 4.02 0 2.04 0 0 Z " fill="#4F4F4F" transform="translate(180,165)"/>
<path d="M0 0 C0.33 0 0.66 0 1 0 C0.88512252 1.58409994 0.75765492 3.16728963 0.625 4.75 C0.52058594 6.07257813 0.52058594 6.07257813 0.4140625 7.421875 C0.00149945 9.99066382 -0.71160957 11.75841015 -2 14 C-3.81975482 8.87160006 -1.8599099 4.82315618 0 0 Z " fill="#535353" transform="translate(63,134)"/>
<path d="M0 0 C1.98146451 0.44829514 3.96014211 0.90892498 5.9375 1.375 C7.03964844 1.63023438 8.14179687 1.88546875 9.27734375 2.1484375 C10.17582031 2.42945312 11.07429688 2.71046875 12 3 C12.33 3.66 12.66 4.32 13 5 C7.67146283 6.21103118 7.67146283 6.21103118 4.8125 5.3125 C2.72005254 3.79727942 1.50608363 2.08306215 0 0 Z " fill="#313131" transform="translate(91,116)"/>
<path d="M0 0 C1.09570312 0.10183594 2.19140625 0.20367188 3.3203125 0.30859375 C4.16335937 0.39238281 5.00640625 0.47617187 5.875 0.5625 C4.58984375 2.07421875 4.58984375 2.07421875 2.875 3.5625 C-1.23834176 3.3381359 -4.57854279 2.69037433 -8.125 0.5625 C-5.28943413 -0.85528293 -3.1341294 -0.30007622 0 0 Z " fill="#1A1A1A" transform="translate(88.125,25.4375)"/>
<path d="M0 0 C1.65 0.33 3.3 0.66 5 1 C4.67 2.65 4.34 4.3 4 6 C3.67 5.34 3.34 4.68 3 4 C0.36 4 -2.28 4 -5 4 C-5 3.67 -5 3.34 -5 3 C-3.35 2.67 -1.7 2.34 0 2 C0 1.34 0 0.68 0 0 Z " fill="#1A1A1A" transform="translate(220,190)"/>
<path d="M0 0 C0.91007813 0.10183594 1.82015625 0.20367187 2.7578125 0.30859375 C3.45648438 0.39238281 4.15515625 0.47617188 4.875 0.5625 C1.43049263 2.85883824 -1.06312283 3.10266485 -5.125 3.5625 C-5.785 2.5725 -6.445 1.5825 -7.125 0.5625 C-4.50184968 -0.74907516 -2.89466564 -0.33399988 0 0 Z " fill="#515151" transform="translate(201.125,192.4375)"/>
<path d="M0 0 C0.99 0.33 1.98 0.66 3 1 C2.34 1 1.68 1 1 1 C0.67 2.65 0.34 4.3 0 6 C-0.99 6.33 -1.98 6.66 -3 7 C-3.66 6.01 -4.32 5.02 -5 4 C-2.6875 1.9375 -2.6875 1.9375 0 0 Z " fill="#747474" transform="translate(63,183)"/>
<path d="M0 0 C0.99 0.33 1.98 0.66 3 1 C4.28571429 9.57142857 4.28571429 9.57142857 3 13 C2.34 12.67 1.68 12.34 1 12 C0.5859375 9.27734375 0.5859375 9.27734375 0.375 5.9375 C0.30023438 4.83277344 0.22546875 3.72804688 0.1484375 2.58984375 C0.09945312 1.73519531 0.05046875 0.88054687 0 0 Z " fill="#787878" transform="translate(159,119)"/>
<path d="M0 0 C1.65 0 3.3 0 5 0 C4.01 1.98 3.02 3.96 2 6 C1.01 5.67 0.02 5.34 -1 5 C-0.67 3.35 -0.34 1.7 0 0 Z " fill="#E4E4E4" transform="translate(87,85)"/>
<path d="M0 0 C1.875 0.625 1.875 0.625 4 2 C5.25 5.125 5.25 5.125 6 8 C5.01 8.33 4.02 8.66 3 9 C0.19582483 5.7284623 0 4.42777221 0 0 Z " fill="#111111" transform="translate(98,64)"/>
<path d="M0 0 C-1.40271678 4.20815035 -3.33772663 5.55848442 -7 8 C-6.67 6.35 -6.34 4.7 -6 3 C-6.66 2.67 -7.32 2.34 -8 2 C-5.09399739 0.74335022 -3.20395416 0 0 0 Z " fill="#C7C7C7" transform="translate(150,35)"/>
<path d="M0 0 C4.16138263 -0.08159574 7.9472484 0.01751476 12 1 C11.67 1.66 11.34 2.32 11 3 C9.54077307 2.88590407 8.08259402 2.75834456 6.625 2.625 C5.40683594 2.52058594 5.40683594 2.52058594 4.1640625 2.4140625 C2 2 2 2 0 0 Z " fill="#0E0E0E" transform="translate(188,189)"/>
<path d="M0 0 C2.34058637 2.12780579 3.70700306 4.11562221 5 7 C4.01 7 3.02 7 2 7 C1.67 7.66 1.34 8.32 1 9 C0 8 0 8 -0.09765625 6.15234375 C-0.06510417 4.1015625 -0.03255208 2.05078125 0 0 Z " fill="#5C5C5C" transform="translate(129,178)"/>
<path d="M0 0 C0.66 0 1.32 0 2 0 C1.25 2.9375 1.25 2.9375 0 6 C-2.125 6.875 -2.125 6.875 -4 7 C-2.92598892 4.08482708 -2.22189824 2.22189824 0 0 Z " fill="#D7D7D7" transform="translate(85,143)"/>
<path d="M0 0 C0.33 0 0.66 0 1 0 C1.144375 0.9075 1.28875 1.815 1.4375 2.75 C1.86409473 5.21476956 2.35074221 7.58847107 3 10 C1.68 9.67 0.36 9.34 -1 9 C-1.09765625 2.84765625 -1.09765625 2.84765625 -1 1 C-0.67 0.67 -0.34 0.34 0 0 Z " fill="#979797" transform="translate(130,134)"/>
<path d="M0 0 C0.99 0.33 1.98 0.66 3 1 C3.3367697 5.93928888 3.16130459 6.78492722 0 11 C0 7.37 0 3.74 0 0 Z " fill="#646464" transform="translate(158,131)"/>
<path d="M0 0 C3.125 -0.1875 3.125 -0.1875 6 0 C1.25 4.875 1.25 4.875 -1 6 C-1.33 5.01 -1.66 4.02 -2 3 C-1.34 2.01 -0.68 1.02 0 0 Z " fill="#A8A8A8" transform="translate(143,101)"/>
<path d="M0 0 C0 3 0 3 -1.4375 4.8125 C-3.36400645 7.50960903 -3.6299761 9.74378965 -4 13 C-5.4606285 10.35261084 -6 9.10551666 -6 6 C-4 4 -2 2 0 0 Z " fill="#CBCBCB" transform="translate(137,90)"/>
<path d="M0 0 C0.99 0.33 1.98 0.66 3 1 C3 2.65 3 4.3 3 6 C1.02 6.99 1.02 6.99 -1 8 C-0.67 5.36 -0.34 2.72 0 0 Z " fill="#E4E4E4" transform="translate(37,174)"/>
<path d="M0 0 C0.66 0.33 1.32 0.66 2 1 C1.01 3.97 0.02 6.94 -1 10 C-1.66 9.67 -2.32 9.34 -3 9 C-3.36923077 3.46153846 -3.36923077 3.46153846 -1.5 1.125 C-1.005 0.75375 -0.51 0.3825 0 0 Z " fill="#BBBBBB" transform="translate(129,127)"/>
<path d="M0 0 C2.76223278 2.76223278 2.57856291 5.20706617 3 9 C2.01 9.33 1.02 9.66 0 10 C-0.19412181 8.52168779 -0.38012131 7.04230684 -0.5625 5.5625 C-0.66691406 4.73878906 -0.77132812 3.91507813 -0.87890625 3.06640625 C-0.91886719 2.38449219 -0.95882812 1.70257813 -1 1 C-0.67 0.67 -0.34 0.34 0 0 Z " fill="#747474" transform="translate(161,133)"/>
<path d="M0 0 C0.66 0.33 1.32 0.66 2 1 C2.1953125 7.0546875 2.1953125 7.0546875 2 9 C1.34 9.66 0.68 10.32 0 11 C0 9.68 0 8.36 0 7 C-0.66 6.67 -1.32 6.34 -2 6 C-1.34 6 -0.68 6 0 6 C0 4.02 0 2.04 0 0 Z " fill="#909090" transform="translate(166,121)"/>
<path d="M0 0 C1.32 0 2.64 0 4 0 C4 0.66 4 1.32 4 2 C3.01 2.495 3.01 2.495 2 3 C2 3.99 2 4.98 2 6 C0.35 6 -1.3 6 -3 6 C-2.34 5.67 -1.68 5.34 -1 5 C-0.34444881 2.47266765 -0.34444881 2.47266765 0 0 Z " fill="#646464" transform="translate(144,190)"/>
<path d="M0 0 C0 0.66 0 1.32 0 2 C1.98 2.66 3.96 3.32 6 4 C5.67 4.99 5.34 5.98 5 7 C1.59244728 5.07119658 -1.74147635 3.1723491 -5 1 C-2 0 -2 0 0 0 Z " fill="#B6B6B6" transform="translate(46,182)"/>
<path d="M0 0 C0.99 0.33 1.98 0.66 3 1 C3 2.65 3 4.3 3 6 C2.01 6 1.02 6 0 6 C-0.66 5.34 -1.32 4.68 -2 4 C-1.34 4 -0.68 4 0 4 C0 2.68 0 1.36 0 0 Z " fill="#6F6F6F" transform="translate(127,165)"/>
<path d="M0 0 C0.66 0.33 1.32 0.66 2 1 C2 1.66 2 2.32 2 3 C-0.35438733 4.42944945 -1.48032433 5.08661261 -4.25 4.625 C-4.8275 4.41875 -5.405 4.2125 -6 4 C-4.02 2.68 -2.04 1.36 0 0 Z " fill="#252525" transform="translate(82,56)"/>
<path d="M0 0 C0.66 0.33 1.32 0.66 2 1 C2 1.99 2 2.98 2 4 C-0.875 4.625 -0.875 4.625 -4 5 C-4.66 4.34 -5.32 3.68 -6 3 C-4.03533587 1.93224776 -2.03144641 0.93446535 0 0 Z " fill="#232323" transform="translate(70,177)"/>
<path d="M0 0 C1.32 0.33 2.64 0.66 4 1 C3.67 2.98 3.34 4.96 3 7 C2.34 7 1.68 7 1 7 C0.67 4.69 0.34 2.38 0 0 Z " fill="#C3C3C3" transform="translate(134,66)"/>
<path d="M0 0 C2.64 0.66 5.28 1.32 8 2 C8 2.66 8 3.32 8 4 C5.69 3.67 3.38 3.34 1 3 C0.67 2.01 0.34 1.02 0 0 Z " fill="#010101" transform="translate(160,201)"/>
<path d="M0 0 C0 1.98 0 3.96 0 6 C-0.99 6.33 -1.98 6.66 -3 7 C-3.33 5.35 -3.66 3.7 -4 2 C-1 0 -1 0 0 0 Z " fill="#969696" transform="translate(156,142)"/>
<path d="M0 0 C1.98 0.99 1.98 0.99 4 2 C3.34 3.65 2.68 5.3 2 7 C1.34 6.67 0.68 6.34 0 6 C0 4.02 0 2.04 0 0 Z " fill="#8B8B8B" transform="translate(134,146)"/>
<path d="M0 0 C2.00720923 0.28674418 4.0085944 0.61866701 6 1 C6 1.99 6 2.98 6 4 C4.02 4 2.04 4 0 4 C-0.33 3.01 -0.66 2.02 -1 1 C-0.67 0.67 -0.34 0.34 0 0 Z " fill="#767676" transform="translate(111,121)"/>
<path d="M0 0 C-0.33 1.32 -0.66 2.64 -1 4 C-2.65 4.33 -4.3 4.66 -6 5 C-6 3 -6 3 -4.6875 1.375 C-3 0 -3 0 0 0 Z " fill="#969696" transform="translate(131,116)"/>
</svg>
