<?xml version="1.0" encoding="UTF-8"?>
<svg version="1.1" xmlns="http://www.w3.org/2000/svg" width="512" height="512">
<path d="M0 0 C0.03440186 0.62640381 0.06880371 1.25280762 0.10424805 1.89819336 C1.57754554 27.08130171 4.71757732 53.79032873 17.1171875 76.25 C18 78 18 78 18 80 C19.14726562 80.13535156 20.29453125 80.27070312 21.4765625 80.41015625 C75.90726856 87.17406103 130.30555034 99.18963312 176 131 C176.56912109 131.39493652 177.13824219 131.78987305 177.72460938 132.19677734 C194.77702783 144.18643453 213.12393658 159.23867563 223 178 C223 178.99 223 179.98 223 181 C222.46020004 181.07215225 221.92040009 181.1443045 221.36424255 181.21864319 C169.92459878 188.11013501 119.25209578 196.93433137 69 210 C69.14622803 210.91700684 69.29245605 211.83401367 69.44311523 212.77880859 C69.9914624 216.22637011 70.537217 219.67432237 71.08129883 223.12255859 C71.31596044 224.60644349 71.55161306 226.09017207 71.78833008 227.57373047 C72.13111703 229.72321484 72.47017049 231.87326228 72.80859375 234.0234375 C73.01282959 235.31169434 73.21706543 236.59995117 73.42749023 237.92724609 C74.60319194 245.94175095 75.16156881 253.87919812 75.203125 261.9765625 C75.21013931 262.8965654 75.21715363 263.8165683 75.22438049 264.76445007 C75.24178892 267.7180171 75.24823311 270.67138355 75.25 273.625 C75.25067474 274.63476898 75.25134949 275.64453796 75.25204468 276.68490601 C75.23610539 291.68824352 74.7646496 306.21619954 72 321 C71.83371094 321.94891113 71.66742188 322.89782227 71.49609375 323.87548828 C66.36799709 352.77801084 56.78978963 380.18439598 43.375 406.25 C42.8488208 407.27359619 42.3226416 408.29719238 41.78051758 409.35180664 C40.24202689 412.26917169 38.63514482 415.1358849 37 418 C36.49227051 418.96574951 35.98454102 419.93149902 35.46142578 420.92651367 C31.61924955 427.47491334 31.61924955 427.47491334 27.44775391 428.82763672 C24.27959267 429.10773378 21.29876823 429.02160897 18.125 428.8125 C16.36506714 428.75098755 16.36506714 428.75098755 14.56958008 428.68823242 C10.70622985 428.52562627 6.85702038 428.27336579 3 428 C1.66556339 427.91350458 0.33109031 427.82757006 -1.00341797 427.7421875 C-53.95761937 424.24415593 -122.35360638 415.14161644 -160.36328125 374.203125 C-168.23626079 365.0909063 -172.41012855 353.59316965 -171.8359375 341.5625 C-169.14026851 317.46004787 -152.39012163 299.86410768 -134.65356445 284.88818359 C-129.65271323 280.64608664 -125.01702474 276.13640187 -120.42651367 271.45751953 C-117.66189268 268.64521044 -114.87992262 265.93497465 -111.875 263.375 C-103.92462608 256.60121419 -96.74807517 248.95562546 -90 241 C-89.19175781 240.0925 -88.38351563 239.185 -87.55078125 238.25 C-64.29499028 211.90723188 -52.9170718 185.33814424 -55 150 C-57.79053673 118.22673682 -74.47758691 97.57748725 -95.46875 75.390625 C-101.79457643 68.52953633 -107.89304194 61.21422257 -108.2890625 51.51171875 C-107.5534698 45.12001459 -104.26309753 39.85040962 -99.6875 35.4375 C-75.96785316 16.65577221 -30.53653375 0 0 0 Z M-27.5 18.0625 C-28.69931152 18.37469482 -29.89862305 18.68688965 -31.13427734 19.00854492 C-38.72245508 21.02596852 -46.20795823 23.23484396 -53.625 25.8125 C-54.46482422 26.1019751 -55.30464844 26.3914502 -56.16992188 26.68969727 C-60.33213733 27.90005976 -60.33213733 27.90005976 -63 31 C-57.41824089 32.1074247 -51.83553336 33.20989958 -46.25195312 34.30810547 C-44.35879139 34.68114701 -42.46587995 35.05546144 -40.57324219 35.43115234 C-29.73904942 37.58079377 -18.95555583 39.56444441 -8 41 C-8.99 32.42 -9.98 23.84 -11 15 C-16.75514244 15 -21.95179073 16.61552154 -27.5 18.0625 Z M-88.375 42.25 C-89.16648437 42.85328125 -89.95796875 43.4565625 -90.7734375 44.078125 C-92.96628474 45.97089841 -94.59778944 47.4626666 -96 50 C-95.7710527 53.00613836 -95.47501612 54.52615455 -93.31591797 56.67993164 C-87.47295828 60.44742741 -81.83193812 62.67077124 -75.125 64.4375 C-74.18914062 64.70498047 -73.25328125 64.97246094 -72.2890625 65.24804688 C-67.15222055 66.83717804 -67.15222055 66.83717804 -62 66 C-62.67804688 65.22398438 -63.35609375 64.44796875 -64.0546875 63.6484375 C-69.710969 57.10535744 -74.99999698 50.44162526 -79.91357422 43.31982422 C-80.9215578 41.86522892 -81.95783123 40.43030159 -83 39 C-85.03186847 39 -86.85288906 41.07762976 -88.375 42.25 Z M-66 42 C-60.00821342 52.46690218 -51.19181115 61.22634058 -43 70 C-35.33005715 66.52725226 -28.30351078 62.83288469 -21.625 57.6875 C-20.77772339 57.039021 -20.77772339 57.039021 -19.91333008 56.37744141 C-18.56417034 55.30562184 -17.27526873 54.15875747 -16 53 C-16 52.34 -16 51.68 -16 51 C-22.79884107 49.71573241 -29.59820651 48.43427024 -36.39794922 47.15478516 C-38.71252507 46.71891292 -41.02697875 46.28239139 -43.34130859 45.84521484 C-46.66211786 45.21802988 -49.98335518 44.59315833 -53.3046875 43.96875 C-54.34430634 43.77188599 -55.38392517 43.57502197 -56.45504761 43.37219238 C-57.89631516 43.10191223 -57.89631516 43.10191223 -59.36669922 42.82617188 C-60.21497284 42.66628784 -61.06324646 42.50640381 -61.93722534 42.3416748 C-63.98037257 41.94552936 -63.98037257 41.94552936 -66 42 Z M-5 58 C-5.53367188 58.49628906 -6.06734375 58.99257812 -6.6171875 59.50390625 C-12.10874578 64.51091527 -17.82286502 68.87331275 -24 73 C-20.79068405 74.84435792 -18.02219989 75.42293406 -14.359375 75.8515625 C-13.28945312 75.98046875 -12.21953125 76.109375 -11.1171875 76.2421875 C-9.45042969 76.43167969 -9.45042969 76.43167969 -7.75 76.625 C-6.62335938 76.7590625 -5.49671875 76.893125 -4.3359375 77.03125 C-1.55800562 77.36083514 1.22055304 77.68349064 4 78 C2.88663796 74.8499241 1.75738994 71.70578081 0.625 68.5625 C0.30789062 67.66466797 -0.00921875 66.76683594 -0.3359375 65.84179688 C-0.8 64.56079102 -0.8 64.56079102 -1.2734375 63.25390625 C-1.55622559 62.46314697 -1.83901367 61.6723877 -2.13037109 60.85766602 C-2.85223956 58.81535797 -2.85223956 58.81535797 -5 58 Z M-77 76 C-74.60521916 79.95659443 -71.92866545 83.19717716 -68.75 86.5625 C-62.63429979 93.22406437 -57.9171515 100.85075015 -54 109 C-50.61453936 107.52507019 -48.3488501 105.60434215 -45.6875 103.0625 C-39.22877622 97.11698815 -32.13815125 92.09188123 -25 87 C-25.495 86.01 -25.495 86.01 -26 85 C-28.44506374 84.42776325 -30.82053318 83.98136829 -33.296875 83.59765625 C-34.04148987 83.4744249 -34.78610474 83.35119354 -35.55328369 83.22422791 C-37.95090359 82.82858843 -40.35022292 82.44481861 -42.75 82.0625 C-45.87070868 81.55887997 -48.99042205 81.04953574 -52.109375 80.53515625 C-52.86907593 80.41048981 -53.62877686 80.28582336 -54.41149902 80.15737915 C-60.17646319 79.19020088 -65.83105221 77.96159476 -71.50488281 76.54858398 C-74.06255091 75.89263292 -74.06255091 75.89263292 -77 76 Z M6 90 C6.28875 91.258125 6.5775 92.51625 6.875 93.8125 C8.86886462 102.84852476 10.32125786 111.76553456 11 121 C15.07919542 119.54795613 18.35453373 117.54317006 21.9375 115.125 C31.56977997 108.7495525 41.81726965 103.43161941 52 98 C52 97.67 52 97.34 52 97 C46.8959051 96.16087102 41.79132107 95.32480415 36.6862793 94.49145508 C34.9530718 94.20809734 33.21999598 93.92393289 31.48706055 93.63891602 C28.98260936 93.22715626 26.47768411 92.81839122 23.97265625 92.41015625 C23.20977798 92.28407486 22.44689972 92.15799347 21.66090393 92.02809143 C16.45299826 91.18332198 11.24756931 90.54866126 6 90 Z M-8 90 C-17.34118721 95.33241861 -25.86976184 100.89435814 -34 108 C-35.39556324 109.1878174 -36.7913588 110.37536197 -38.1875 111.5625 C-39.115625 112.366875 -40.04375 113.17125 -41 114 C-37.76549488 115.78308104 -34.59150572 116.7400928 -31.01953125 117.65625 C-29.85486328 117.95660156 -28.69019531 118.25695312 -27.49023438 118.56640625 C-26.27658203 118.87449219 -25.06292969 119.18257812 -23.8125 119.5 C-22.61818359 119.80808594 -21.42386719 120.11617187 -20.19335938 120.43359375 C-13.81702174 122.06891204 -7.43588103 123.6174262 -1 125 C-0.17100138 106.3927161 -0.17100138 106.3927161 -8 90 Z M75 102 C74.78907715 102.65895264 74.5781543 103.31790527 74.36083984 103.99682617 C66.97710769 126.93927987 66.97710769 126.93927987 62.03125 136.8046875 C60.85827452 138.89745957 60.85827452 138.89745957 61 141 C66.08675549 139.33857827 71.13407578 137.60283457 76.16015625 135.765625 C90.54648789 130.5137699 104.95723907 125.78239109 119.70605469 121.66015625 C122.4999945 120.85611057 125.25422939 119.95505065 128 119 C118.73510872 112.82340581 106.68432496 109.73655248 96.0625 106.6875 C95.22412598 106.44547852 94.38575195 106.20345703 93.52197266 105.95410156 C87.40795784 104.25182923 81.25772653 103.04580775 75 102 Z M50.0625 111.25 C49.08571289 111.78488037 48.10892578 112.31976074 47.10253906 112.87084961 C40.37478052 116.59526104 33.76530832 120.47799306 27.25 124.5625 C26.44699463 125.06233398 25.64398926 125.56216797 24.81665039 126.07714844 C24.07793701 126.54797852 23.33922363 127.01880859 22.578125 127.50390625 C21.93262695 127.91455322 21.28712891 128.3252002 20.62207031 128.74829102 C18.71367301 130.0829925 18.71367301 130.0829925 17 133 C17.63502441 133.28721924 18.27004883 133.57443848 18.92431641 133.87036133 C21.8250938 135.1831972 24.72505223 136.49783263 27.625 137.8125 C28.62402344 138.26431641 29.62304688 138.71613281 30.65234375 139.18164062 C35.48042082 141.37186102 40.28375181 143.57749026 45 146 C49.2644167 137.77022958 53.34085004 129.51064535 56.875 120.9375 C57.30341187 119.90411499 57.30341187 119.90411499 57.74047852 118.84985352 C59.45266218 114.62304448 60.81989769 110.40533339 62 106 C57.77357198 106 53.68976644 109.26025329 50.0625 111.25 Z M-47 125 C-46.87447754 125.7125293 -46.74895508 126.42505859 -46.61962891 127.15917969 C-45.29980708 134.83429814 -44.26997669 142.5148443 -43.375 150.25 C-43.2409375 151.38824219 -43.106875 152.52648437 -42.96875 153.69921875 C-42.64326333 156.46585546 -42.3203825 159.2327684 -42 162 C-38.65040441 160.40743307 -36.33211741 158.61716882 -33.625 156.0625 C-28.91347074 151.7290132 -23.99602975 147.77344719 -18.91064453 143.89477539 C-15.3315958 141.14130751 -12.12618606 138.26108715 -9 135 C-21.5681163 131.06426421 -34.09742867 127.64907866 -47 125 Z M149 129 C148.46632813 130.05316406 147.93265625 131.10632813 147.3828125 132.19140625 C137.23060643 151.95578288 124.32326639 169.08635564 110 186 C114.30931125 187.29779189 117.89028488 186.45684216 122.20703125 185.55859375 C123.90778174 185.2213625 125.6085474 184.88420774 127.30932617 184.54711914 C128.20638275 184.36601593 129.10343933 184.18491272 130.02767944 183.99832153 C145.85942511 180.8100429 161.71779773 177.96566578 177.6875 175.5625 C178.93075546 175.37504715 178.93075546 175.37504715 180.1991272 175.18380737 C187.46179647 174.09247289 194.72911916 173.03516628 202 172 C199.91700898 167.39773697 196.73769461 164.39475681 193.1875 160.875 C192.51460938 160.20702393 191.84171875 159.53904785 191.1484375 158.85083008 C185.15394581 152.99392383 178.87396628 147.80843857 172 143 C171.37528809 142.56284668 170.75057617 142.12569336 170.10693359 141.67529297 C168.14218307 140.31238424 166.16825548 138.96453037 164.1875 137.625 C163.589375 137.21983154 162.99125 136.81466309 162.375 136.3972168 C158.07481224 133.5523768 153.64505551 131.23821157 149 129 Z M60 154 C63.34733695 157.48757147 66.7691501 160.42502143 70.6875 163.25 C79.50318456 169.77252489 87.35158454 177.15930594 95 185 C109.92488131 170.18040886 121.89452408 153.80972634 133 136 C133.89525391 134.58267578 133.89525391 134.58267578 134.80859375 133.13671875 C136.16233268 131.11660385 136.16233268 131.11660385 136 129 C111.98148562 129 81.79167348 144.64064845 60 154 Z M8 142 C7.76925781 142.85980469 7.53851563 143.71960938 7.30078125 144.60546875 C5.23507187 152.09264465 2.87037638 159.24786556 -0.046875 166.453125 C-1.11683123 168.85895861 -1.11683123 168.85895861 -1 171 C2.90881122 169.51437998 6.57816785 167.73760576 10.2890625 165.8125 C10.87416595 165.50932861 11.45926941 165.20615723 12.06210327 164.89379883 C13.29133698 164.25617372 14.5199762 163.61740133 15.74804688 162.97753906 C17.6247084 162.00015187 19.50360344 161.02716592 21.3828125 160.0546875 C27.82313823 156.7560247 27.82313823 156.7560247 34 153 C30.60862954 151.34485354 27.21119183 149.7025534 23.8125 148.0625 C22.85279297 147.59392578 21.89308594 147.12535156 20.90429688 146.64257812 C19.97294922 146.19462891 19.04160156 145.74667969 18.08203125 145.28515625 C17.22843018 144.87144775 16.3748291 144.45773926 15.49536133 144.03149414 C12.99485157 142.99787182 10.66417239 142.43603135 8 142 Z M-14.1875 154.75 C-14.89841797 155.32967529 -15.60933594 155.90935059 -16.34179688 156.5065918 C-23.32584917 162.22412618 -30.18131378 168.08692054 -37 174 C-34.35719359 176.64280641 -31.27123173 177.71943083 -27.875 179.125 C-27.21628906 179.40214844 -26.55757812 179.67929688 -25.87890625 179.96484375 C-24.25443173 180.64759391 -22.62745052 181.32437433 -21 182 C-16.64811588 176.36233194 -13.58194561 170.28174323 -10.6875 163.8125 C-10.33816406 163.0405127 -9.98882812 162.26852539 -9.62890625 161.47314453 C-7.80866108 157.31578338 -6.50149724 153.55708364 -6 149 C-8.62167534 149 -12.11123805 153.05000073 -14.1875 154.75 Z M49 162 C48.33355469 163.11375 47.66710937 164.2275 46.98046875 165.375 C38.6028441 179.28449698 29.70474696 192.69331136 19.77734375 205.546875 C18.24390226 207.66336128 17.12726532 209.65816126 16 212 C22.28556015 210.65357245 28.46699762 209.10164953 34.65234375 207.35546875 C35.55134903 207.10380447 36.45035431 206.8521402 37.37660217 206.59284973 C40.23087257 205.7933205 43.08420739 204.99051087 45.9375 204.1875 C47.81569183 203.66058132 49.69394661 203.13388698 51.57226562 202.60742188 C54.34945058 201.8289238 57.12657198 201.05020538 59.90341187 200.27047729 C68.59741463 197.82944224 77.29778472 195.41157059 86 193 C85.04254597 191.88026901 84.08470823 190.76086612 83.12670898 189.64160156 C82.59335434 189.01819885 82.05999969 188.39479614 81.51048279 187.75250244 C72.36675168 177.14370158 61.23392981 168.74595873 49 162 Z M30 168 C16.423937 174.95091546 3.04186241 182.08735327 -10 190 C-9.61328125 190.50789063 -9.2265625 191.01578125 -8.828125 191.5390625 C-0.08296943 203.09825328 -0.08296943 203.09825328 2 209 C5.968255 205.21899479 9.29683568 201.20883796 12.5625 196.8125 C13.07264648 196.12994141 13.58279297 195.44738281 14.10839844 194.74414062 C20.05020652 186.70799946 25.54562967 178.37155232 31 170 C30.505 169.01 30.505 169.01 30 168 Z M-44 185 C-45.65 190.28 -47.3 195.56 -49 201 C-44.66528344 199.26611337 -41.50529049 197.47613198 -37.6875 194.875 C-36.08455078 193.78832031 -36.08455078 193.78832031 -34.44921875 192.6796875 C-33.64097656 192.12539062 -32.83273438 191.57109375 -32 191 C-34.31881505 188.32098068 -36.31814468 187.33795597 -39.6875 186.3125 C-41.110625 185.879375 -42.53375 185.44625 -44 185 Z M-19 200 C-20.37632305 201.67881163 -21.67441182 203.42191742 -22.9375 205.1875 C-30.31995888 215.31614235 -38.61109155 224.69768604 -47 234 C-44.93953406 235.32120634 -44.93953406 235.32120634 -42.34545898 234.15136719 C-40.68752319 233.48089355 -40.68752319 233.48089355 -38.99609375 232.796875 C-37.17174805 232.06791016 -37.17174805 232.06791016 -35.31054688 231.32421875 C-34.01935892 230.79990334 -32.72834438 230.27516071 -31.4375 229.75 C-23.68887921 226.62275394 -15.97036854 223.52697895 -8 221 C-7.27115973 214.29466947 -9.53175499 209.68159795 -13 204 C-14.97652666 201.42790821 -14.97652666 201.42790821 -17 200 C-17.66 200 -18.32 200 -19 200 Z M47.58203125 214.75 C45.70161133 215.29140625 45.70161133 215.29140625 43.78320312 215.84375 C42.4596105 216.22908109 41.13604311 216.61449887 39.8125 217 C38.47731853 217.38578022 37.1420332 217.77120117 35.80664062 218.15625 C32.53671978 219.10063147 29.26791087 220.048691 26 221 C28.64886006 224.21024769 32.04685111 225.55246586 35.78515625 227.13671875 C36.44204941 227.42102249 37.09894257 227.70532623 37.77574158 227.99824524 C39.16031101 228.59573694 40.54638259 229.18975821 41.93383789 229.78051758 C44.0617715 230.6871896 46.18445395 231.60535898 48.30664062 232.52539062 C49.65335248 233.10484891 51.00034823 233.68364795 52.34765625 234.26171875 C52.98413589 234.53666672 53.62061554 234.81161469 54.27638245 235.09489441 C57.5235975 236.53597282 57.5235975 236.53597282 61 237 C60.4533512 228.81911794 58.82876132 220.98214061 57 213 C53.54384488 213 50.9044023 213.7878654 47.58203125 214.75 Z M-54.3125 219.6875 C-54.88162109 220.12255859 -55.45074219 220.55761719 -56.03710938 221.00585938 C-61.82695833 225.49282613 -66.45863792 230.39904554 -70.8125 236.3125 C-71.42254883 237.13717773 -71.42254883 237.13717773 -72.04492188 237.97851562 C-73.03368611 239.31625547 -74.01738585 240.65773623 -75 242 C-71.49777689 242 -71.20549711 241.60141984 -68.77734375 239.2890625 C-68.16068848 238.70809814 -67.5440332 238.12713379 -66.90869141 237.52856445 C-66.25819824 236.90038818 -65.60770508 236.27221191 -64.9375 235.625 C-64.27153809 234.99102295 -63.60557617 234.3570459 -62.91943359 233.70385742 C-60.93795973 231.81101712 -58.96787334 229.90696418 -57 228 C-56.17701416 227.20988525 -56.17701416 227.20988525 -55.33740234 226.40380859 C-49.6478563 221.38924505 -49.6478563 221.38924505 -46 215 C-49.39972856 215 -51.72699183 217.66443312 -54.3125 219.6875 Z M13 230 C11.41683115 237.77654309 9.94348383 245.57143892 8.5 253.375 C8.28730469 254.51710938 8.07460937 255.65921875 7.85546875 256.8359375 C6.48933542 264.21138127 5.20608817 271.5967074 4 279 C21.54448129 269.85746099 38.33718236 259.65603605 55 249 C52.30933219 245.71230152 48.75873023 244.3489123 44.953125 242.71484375 C44.26369812 242.41308731 43.57427124 242.11133087 42.86395264 241.8004303 C41.40622054 241.16426033 39.94697035 240.53155919 38.48632812 239.90209961 C36.26824394 238.94536919 34.05574789 237.97656567 31.84375 237.00585938 C30.42219198 236.38729186 29.0003264 235.76943057 27.578125 235.15234375 C26.92370422 234.86584457 26.26928345 234.5793454 25.59503174 234.28416443 C21.44539417 232.50402016 17.35262565 231.15487139 13 230 Z M-6.5234375 231.8984375 C-7.626875 232.29546875 -8.7303125 232.6925 -9.8671875 233.1015625 C-11.02476562 233.52179688 -12.18234375 233.94203125 -13.375 234.375 C-15.09976563 234.99375 -15.09976563 234.99375 -16.859375 235.625 C-23.55997897 238.0077833 -23.55997897 238.0077833 -30 241 C-26.18610815 253.9248557 -19.24857364 266.02142251 -9 275 C-8.34 275 -7.68 275 -7 275 C-6.01330687 270.36096637 -5.03509011 265.72024951 -4.06420898 261.07788086 C-3.73377064 259.50351499 -3.40114311 257.92960676 -3.06616211 256.35620117 C-1.20136552 247.58970601 0.52958405 238.97720671 1 230 C-1.77512105 230 -3.91131531 230.95754085 -6.5234375 231.8984375 Z M-43 246 C-44.50152345 250.48659998 -45.99294737 254.97517101 -47.4375 259.48046875 C-53.04352318 276.57748096 -60.79428694 292.66500044 -70.63671875 307.734375 C-72.17186053 309.84491984 -72.17186053 309.84491984 -72 312 C-65.40160573 310.09400966 -58.92180158 307.99866196 -52.5 305.5625 C-51.62432373 305.23048584 -50.74864746 304.89847168 -49.84643555 304.55639648 C-37.31170666 299.69336268 -25.02488425 294.01244212 -13 288 C-14.47705495 284.51446293 -16.43374256 282.44390969 -19.1875 279.875 C-27.37338521 271.80680324 -32.36665911 262.69054327 -37.30078125 252.44140625 C-38.91121973 248.99341901 -38.91121973 248.99341901 -41 246 C-41.66 246 -42.32 246 -43 246 Z M-73.95849609 260.97021484 C-75.74097722 261.86934249 -77.55031025 262.71483527 -79.36328125 263.55078125 C-85.22854641 266.36833082 -88.2060343 268.62098788 -90.4140625 274.8515625 C-90.60742188 275.56054688 -90.80078125 276.26953125 -91 277 C-91.17217041 277.62374512 -91.34434082 278.24749023 -91.52172852 278.89013672 C-93.93156287 289.52096289 -92.32053745 301.16306206 -88 311 C-84.48284378 309.82761459 -84.20016566 309.16805887 -82.36328125 306.08984375 C-81.87230957 305.27273926 -81.38133789 304.45563477 -80.87548828 303.61376953 C-80.35970215 302.73060059 -79.84391602 301.84743164 -79.3125 300.9375 C-78.77866699 300.03370605 -78.24483398 299.12991211 -77.69482422 298.19873047 C-65.01495713 277.16786766 -65.01495713 277.16786766 -58 254 C-63.189173 254 -69.35311897 258.59951 -73.95849609 260.97021484 Z M53.75 262.6875 C46.81571954 267.25127323 39.77528087 271.59540093 32.625 275.8125 C31.73522461 276.3386792 30.84544922 276.8648584 29.92871094 277.40698242 C23.68969073 281.0706468 17.36958616 284.56886933 11 288 C23.7300579 296.48670527 42.26768274 300.23294738 57.4375 300.0625 C58.48808594 300.05347656 59.53867187 300.04445313 60.62109375 300.03515625 C61.79865234 300.01775391 61.79865234 300.01775391 63 300 C63.84398023 291.3039894 64.10847378 282.66954228 64.125 273.9375 C64.12951172 272.938396 64.13402344 271.93929199 64.13867188 270.90991211 C64.13673828 269.95866455 64.13480469 269.00741699 64.1328125 268.02734375 C64.13112061 266.75491821 64.13112061 266.75491821 64.12939453 265.45678711 C63.9941515 262.88895579 63.56369348 260.50583303 63 258 C59.44984993 258 56.63192285 260.75955457 53.75 262.6875 Z M-140.41699219 306.33789062 C-143.19693826 309.25674825 -145.74742152 312.34224003 -148.25 315.5 C-148.71615723 316.08749023 -149.18231445 316.67498047 -149.66259766 317.28027344 C-151.86351896 320.15987459 -153.27316219 322.46310419 -154 326 C-141.87426215 326.43740137 -130.19549075 326.05024494 -118.1875 324.1875 C-116.57125732 323.9395166 -116.57125732 323.9395166 -114.92236328 323.68652344 C-108.68945003 322.6537018 -102.93591834 321.16471839 -97 319 C-97.34933594 317.98679687 -97.69867188 316.97359375 -98.05859375 315.9296875 C-98.51847229 314.57820771 -98.97809409 313.22664053 -99.4375 311.875 C-99.66759766 311.20984375 -99.89769531 310.5446875 -100.13476562 309.859375 C-102.67070319 302.36182045 -103.13552479 295.50044303 -103.0625 287.625 C-103.05798828 286.69816406 -103.05347656 285.77132813 -103.04882812 284.81640625 C-103.03711574 282.54420291 -103.02071372 280.27213612 -103 278 C-113.43070201 278 -133.07225422 299.03398196 -140.41699219 306.33789062 Z M-1 295 C-1.25579834 295.68288086 -1.51159668 296.36576172 -1.77514648 297.06933594 C-7.88943391 313.33233257 -14.2054437 329.4564917 -22 345 C-15.32002307 342.98933054 -9.20742224 340.31819104 -2.98828125 337.17578125 C-2.05759323 336.71068649 -1.12690521 336.24559174 -0.16801453 335.7664032 C1.79234885 334.78505723 3.75124737 333.80078006 5.70874023 332.8137207 C8.65822967 331.32725152 11.61283884 329.8513876 14.56835938 328.37695312 C24.89196361 323.20683788 35.06941888 317.89491896 45 312 C45 311.34 45 310.68 45 310 C43.741875 309.78085937 42.48375 309.56171875 41.1875 309.3359375 C25.97039927 306.56471014 12.77016417 302.0419971 -1 295 Z M-22.7265625 304.65234375 C-23.49935547 305.01239502 -24.27214844 305.37244629 -25.06835938 305.7434082 C-25.91205078 306.1374585 -26.75574219 306.53150879 -27.625 306.9375 C-35.47554504 310.53903127 -43.40730526 313.7947878 -51.5 316.8125 C-52.94753662 317.3528186 -52.94753662 317.3528186 -54.42431641 317.90405273 C-60.46206225 320.12938155 -66.53640662 322.16718059 -72.68164062 324.0769043 C-75.16024691 324.76587351 -75.16024691 324.76587351 -76 327 C-64.49408828 336.21780428 -52.01897134 344.1809786 -38 349 C-33.12750289 340.90185537 -28.75227101 332.65680848 -24.6875 324.125 C-24.26742676 323.24626221 -23.84735352 322.36752441 -23.41455078 321.4621582 C-18.85794179 312.57655951 -18.85794179 312.57655951 -17 303 C-19.37566767 303 -20.58233022 303.63604832 -22.7265625 304.65234375 Z M54.0234375 319.640625 C52.44671265 320.49539429 52.44671265 320.49539429 50.83813477 321.36743164 C49.69530029 321.9886792 48.55246582 322.60992676 47.375 323.25 C44.97632696 324.54755208 42.57622291 325.84244196 40.17578125 327.13671875 C39.26369148 327.62856911 39.26369148 327.62856911 38.33317566 328.13035583 C20.12665484 337.94097934 1.6806809 347.13546989 -17 356 C-16.16531997 358.25115997 -16.16531997 358.25115997 -13.63354492 358.82202148 C-12.59302979 359.08571533 -11.55251465 359.34940918 -10.48046875 359.62109375 C-8.74349731 360.06267822 -8.74349731 360.06267822 -6.97143555 360.51318359 C-5.09838745 360.97072021 -5.09838745 360.97072021 -3.1875 361.4375 C-1.91753174 361.75025879 -0.64756348 362.06301758 0.66088867 362.38525391 C16.01184432 366.07846938 31.23279818 368.30719871 47 369 C51.1368826 357.47058164 54.68502594 345.9430808 57.4375 334 C57.69611816 332.88512207 57.95473633 331.77024414 58.22119141 330.62158203 C59.25910738 325.98261693 60.14727062 321.7730787 60 317 C57.91761477 317 55.78167687 318.68400258 54.0234375 319.640625 Z M-87 333 C-88.49339732 334.67776736 -89.94284205 336.39466405 -91.375 338.125 C-91.81908203 338.6605249 -92.26316406 339.1960498 -92.72070312 339.74780273 C-96.05731414 343.79431858 -99.28651215 347.91803908 -102.5 352.0625 C-106.66364879 357.43145434 -111.03448742 362.4678287 -115.7109375 367.40234375 C-118.40311346 370.45745811 -120.67774044 373.65611035 -123 377 C-98.91279959 374.16621172 -72.85211925 368.92605962 -51 358 C-51 357.34 -51 356.68 -51 356 C-51.73150269 355.60844727 -51.73150269 355.60844727 -52.4777832 355.20898438 C-64.56134686 348.70825198 -75.48513925 341.85461958 -86 333 C-86.33 333 -86.66 333 -87 333 Z M-110.9765625 333.62109375 C-111.73066406 333.75193359 -112.48476562 333.88277344 -113.26171875 334.01757812 C-114.81384659 334.29336944 -116.36593133 334.56940345 -117.91796875 334.84570312 C-127.79367565 336.55849493 -137.61604527 337.19157276 -147.625 337.5625 C-149.27435547 337.62727539 -149.27435547 337.62727539 -150.95703125 337.69335938 C-153.63792882 337.79826406 -156.31890001 337.90042726 -159 338 C-161.66434251 343.32868501 -159.87266646 350.03905335 -158.09765625 355.421875 C-154.4258399 364.04606999 -148.17119037 370.17848945 -141 376 C-132.39587064 372.35751961 -126.1178795 363.12233666 -120.4375 356.01171875 C-117.07209162 351.85349781 -113.57496032 347.8136338 -110.07275391 343.77050781 C-105.21490151 338.94739969 -105.21490151 338.94739969 -103 333 C-105.90587058 333 -108.17874782 333.12246998 -110.9765625 333.62109375 Z M-33 364 C-33.7734375 365.03898437 -34.546875 366.07796875 -35.34375 367.1484375 C-43.52464929 378.11468804 -51.79404186 388.86365247 -61 399 C-57.67908481 400.10697173 -56.31625056 399.89422439 -52.92578125 399.28515625 C-51.36005371 399.00418091 -51.36005371 399.00418091 -49.76269531 398.7175293 C-48.62413086 398.50136963 -47.48556641 398.28520996 -46.3125 398.0625 C-45.12366211 397.83796143 -43.93482422 397.61342285 -42.70996094 397.38208008 C-19.96771597 392.9547384 2.30901182 387.21668371 24 379 C24 378.67 24 378.34 24 378 C23.32235596 377.87995605 22.64471191 377.75991211 21.9465332 377.63623047 C6.67096672 374.89819368 -8.1674805 371.55587667 -23 367 C-24.86419143 366.4388007 -26.72877112 365.87888939 -28.59375 365.3203125 C-29.85735352 364.94156982 -29.85735352 364.94156982 -31.14648438 364.55517578 C-31.75814453 364.37196777 -32.36980469 364.18875977 -33 364 Z M-61.62890625 373.5390625 C-72.54112203 377.37568795 -83.4042573 380.79507819 -94.6875 383.375 C-95.72398682 383.61299316 -96.76047363 383.85098633 -97.82836914 384.09619141 C-105.17421555 385.72286802 -112.55350945 386.93373796 -120 388 C-112.07376966 393.28415356 -102.40460687 396.34255246 -93.4375 399.4375 C-92.67622803 399.70852539 -91.91495605 399.97955078 -91.13061523 400.25878906 C-85.60072422 402.13792082 -85.60072422 402.13792082 -80 401 C-70.74835171 394.08476217 -58.50721976 382.79081438 -54 372 C-57.05289737 372 -58.78546484 372.51463429 -61.62890625 373.5390625 Z M32.99609375 386.94140625 C7.51563086 397.14229659 -18.86653574 404.62403811 -46 409 C-43.30687694 411.69312306 -41.42309921 411.55084571 -37.6640625 412.03515625 C-36.37113281 412.20466797 -35.07820312 412.37417969 -33.74609375 412.54882812 C-33.06788574 412.63334229 -32.38967773 412.71785645 -31.69091797 412.80493164 C-29.6664328 413.05733436 -27.64376182 413.32135861 -25.62109375 413.58789062 C-13.10234465 415.20062188 -0.87453145 416.15532744 11.75 416.0625 C12.9359375 416.05798828 14.121875 416.05347656 15.34375 416.04882812 C18.22922228 416.03719316 21.11458213 416.0208484 24 416 C25.92780985 412.71474361 27.84009673 409.42069355 29.75 406.125 C30.28882813 405.2071875 30.82765625 404.289375 31.3828125 403.34375 C34.81700332 397.39673662 37.64627766 391.45256667 40 385 C37.32497919 385 35.47815623 385.93096872 32.99609375 386.94140625 Z " fill="#B71C1C" transform="translate(235,31)"/>
<path d="M0 0 C2.09545224 7.31179078 3.50507688 14.61022469 4.625 22.125 C4.74786377 22.94709961 4.87072754 23.76919922 4.99731445 24.61621094 C6.31420988 33.73918324 7.15580365 42.75583673 7.203125 51.9765625 C7.21013931 52.8965654 7.21715363 53.8165683 7.22438049 54.76445007 C7.24178892 57.7180171 7.24823311 60.67138355 7.25 63.625 C7.25067474 64.63476898 7.25134949 65.64453796 7.25204468 66.68490601 C7.23610539 81.68824352 6.7646496 96.21619954 4 111 C3.83371094 111.94891113 3.66742188 112.89782227 3.49609375 113.87548828 C-1.63200291 142.77801084 -11.21021037 170.18439598 -24.625 196.25 C-25.1511792 197.27359619 -25.6773584 198.29719238 -26.21948242 199.35180664 C-27.75797311 202.26917169 -29.36485518 205.1358849 -31 208 C-31.50772949 208.96574951 -32.01545898 209.93149902 -32.53857422 210.92651367 C-36.38075045 217.47491334 -36.38075045 217.47491334 -40.55224609 218.82763672 C-43.72040733 219.10773378 -46.70123177 219.02160897 -49.875 218.8125 C-51.63493286 218.75098755 -51.63493286 218.75098755 -53.43041992 218.68823242 C-57.29377015 218.52562627 -61.14297962 218.27336579 -65 218 C-66.33443661 217.91350458 -67.66890969 217.82757006 -69.00341797 217.7421875 C-121.95761937 214.24415593 -190.35360638 205.14161644 -228.36328125 164.203125 C-236.23626079 155.0909063 -240.41012855 143.59316965 -239.8359375 131.5625 C-238.26853685 117.54809422 -232.35675078 107.01831867 -224 96 C-223.21753906 94.95585937 -222.43507813 93.91171875 -221.62890625 92.8359375 C-218.71491518 89.69246422 -216.31261537 88.30356632 -212.4375 86.5 C-211.01900068 85.82272471 -209.60107988 85.14423703 -208.18359375 84.46484375 C-207.37905762 84.08440918 -206.57452148 83.70397461 -205.74560547 83.31201172 C-200.75037294 80.92499593 -195.79698456 78.45296589 -190.84301758 75.98175049 C-189.61524997 75.3693711 -188.38705991 74.75783798 -187.15844727 74.14715576 C-179.1453289 70.16168373 -171.22140565 66.0697391 -163.52929688 61.48852539 C-160.76475941 59.86267298 -159.27538697 59 -156 59 C-156.2165625 59.65742188 -156.433125 60.31484375 -156.65625 60.9921875 C-160.52993578 74.2272806 -160.31684452 87.89529341 -156 101 C-151.83921671 97.38361826 -149.43534012 92.9835766 -146.75 88.25 C-146.26764893 87.40598633 -145.78529785 86.56197266 -145.28833008 85.69238281 C-137.79564665 72.46429815 -130.67671378 58.81920775 -126.14453125 44.25 C-124.63040626 41.27342664 -123.06275787 40.57528448 -120.0625 39.1875 C-119.18722656 38.76855469 -118.31195313 38.34960938 -117.41015625 37.91796875 C-115 37 -115 37 -112 37 C-112.56582424 43.05845957 -113.85065334 48.39472788 -115.875 54.125 C-116.32866943 55.41120239 -116.32866943 55.41120239 -116.79150391 56.72338867 C-122.63897611 72.68926678 -130.94643682 87.64842577 -140 102 C-125.03528306 96.44023732 -110.34072143 90.54259709 -95.8112793 83.93652344 C-94.74433838 83.4521582 -93.67739746 82.96779297 -92.578125 82.46875 C-91.64387695 82.04013672 -90.70962891 81.61152344 -89.74707031 81.16992188 C-86.87361507 79.9461752 -83.9744177 78.94874612 -81 78 C-81.97810582 76.87407755 -82.95758435 75.74934767 -83.9375 74.625 C-84.57816406 73.88507813 -85.21882812 73.14515625 -85.87890625 72.3828125 C-87.26692184 70.82353164 -88.6908699 69.29533778 -90.15234375 67.8046875 C-98.96387302 58.66795241 -105.70465784 47.30261072 -109 35 C-107.73308493 34.32591692 -106.46129251 33.66099503 -105.1875 33 C-104.47980469 32.62875 -103.77210938 32.2575 -103.04296875 31.875 C-101 31 -101 31 -98 31 C-97.30777344 32.61455078 -97.30777344 32.61455078 -96.6015625 34.26171875 C-91.39577648 46.04822517 -85.55034523 57.11066546 -75 65 C-74.88527344 63.76894531 -74.77054688 62.53789062 -74.65234375 61.26953125 C-73.99192309 55.3327093 -72.77809002 49.53154646 -71.5625 43.6875 C-71.1243204 41.56681474 -70.68811646 39.4457203 -70.25390625 37.32421875 C-70.03822998 36.28628174 -69.82255371 35.24834473 -69.6003418 34.17895508 C-68.80242489 29.95379196 -68.26986767 25.70053523 -67.78076172 21.42919922 C-67 19 -67 19 -64.88037109 17.43115234 C-62.28284124 16.31761258 -59.75036165 15.64625984 -57 15 C-56.05640625 14.69578125 -55.1128125 14.3915625 -54.140625 14.078125 C-45.55717337 11.37504907 -39.50406335 12.44675971 -31.31640625 16.16015625 C-30.61603745 16.46948593 -29.91566864 16.77881561 -29.19407654 17.09751892 C-26.97982815 18.07770562 -24.77118749 19.06985583 -22.5625 20.0625 C-21.05309006 20.73322289 -19.54332748 21.4031528 -18.03320312 22.07226562 C-14.35132839 23.7057042 -10.67442998 25.34988672 -7 27 C-7.12117187 26.42032471 -7.24234375 25.84064941 -7.3671875 25.2434082 C-7.91657407 22.60080599 -8.45835103 19.95669854 -9 17.3125 C-9.19078125 16.40048828 -9.3815625 15.48847656 -9.578125 14.54882812 C-9.75859375 13.66259766 -9.9390625 12.77636719 -10.125 11.86328125 C-10.29257812 11.05157471 -10.46015625 10.23986816 -10.6328125 9.40356445 C-11.0153713 6.89938135 -11.06298509 4.52924498 -11 2 C-7.14213034 0.18453193 -4.23294004 -0.09380477 0 0 Z M-55 20 C-56.58316885 27.77654309 -58.05651617 35.57143892 -59.5 43.375 C-59.71269531 44.51710938 -59.92539063 45.65921875 -60.14453125 46.8359375 C-61.51066458 54.21138127 -62.79391183 61.5967074 -64 69 C-46.45551871 59.85746099 -29.66281764 49.65603605 -13 39 C-15.69066781 35.71230152 -19.24126977 34.3489123 -23.046875 32.71484375 C-23.73630188 32.41308731 -24.42572876 32.11133087 -25.13604736 31.8004303 C-26.59377946 31.16426033 -28.05302965 30.53155919 -29.51367188 29.90209961 C-31.73175606 28.94536919 -33.94425211 27.97656567 -36.15625 27.00585938 C-37.57780802 26.38729186 -38.9996736 25.76943057 -40.421875 25.15234375 C-41.07629578 24.86584457 -41.73071655 24.5793454 -42.40496826 24.28416443 C-46.55460583 22.50402016 -50.64737435 21.15487139 -55 20 Z M-14.25 52.6875 C-21.18428046 57.25127323 -28.22471913 61.59540093 -35.375 65.8125 C-36.26477539 66.3386792 -37.15455078 66.8648584 -38.07128906 67.40698242 C-44.31030927 71.0706468 -50.63041384 74.56886933 -57 78 C-44.2699421 86.48670527 -25.73231726 90.23294738 -10.5625 90.0625 C-9.51191406 90.05347656 -8.46132813 90.04445313 -7.37890625 90.03515625 C-6.20134766 90.01775391 -6.20134766 90.01775391 -5 90 C-4.15601977 81.3039894 -3.89152622 72.66954228 -3.875 63.9375 C-3.87048828 62.938396 -3.86597656 61.93929199 -3.86132812 60.90991211 C-3.86326172 59.95866455 -3.86519531 59.00741699 -3.8671875 58.02734375 C-3.86887939 56.75491821 -3.86887939 56.75491821 -3.87060547 55.45678711 C-4.0058485 52.88895579 -4.43630652 50.50583303 -5 48 C-8.55015007 48 -11.36807715 50.75955457 -14.25 52.6875 Z M-208.41699219 96.33789062 C-211.19693826 99.25674825 -213.74742152 102.34224003 -216.25 105.5 C-216.71615723 106.08749023 -217.18231445 106.67498047 -217.66259766 107.28027344 C-219.86351896 110.15987459 -221.27316219 112.46310419 -222 116 C-209.87426215 116.43740137 -198.19549075 116.05024494 -186.1875 114.1875 C-184.57125732 113.9395166 -184.57125732 113.9395166 -182.92236328 113.68652344 C-176.68945003 112.6537018 -170.93591834 111.16471839 -165 109 C-165.34933594 107.98679687 -165.69867188 106.97359375 -166.05859375 105.9296875 C-166.51847229 104.57820771 -166.97809409 103.22664053 -167.4375 101.875 C-167.66759766 101.20984375 -167.89769531 100.5446875 -168.13476562 99.859375 C-170.67070319 92.36182045 -171.13552479 85.50044303 -171.0625 77.625 C-171.05798828 76.69816406 -171.05347656 75.77132812 -171.04882812 74.81640625 C-171.03711574 72.54420291 -171.02071372 70.27213612 -171 68 C-181.43070201 68 -201.07225422 89.03398196 -208.41699219 96.33789062 Z M-69 85 C-69.25579834 85.68288086 -69.51159668 86.36576172 -69.77514648 87.06933594 C-75.88943391 103.33233257 -82.2054437 119.4564917 -90 135 C-83.32002307 132.98933054 -77.20742224 130.31819104 -70.98828125 127.17578125 C-70.05759323 126.71068649 -69.12690521 126.24559174 -68.16801453 125.7664032 C-66.20765115 124.78505723 -64.24875263 123.80078006 -62.29125977 122.8137207 C-59.34177033 121.32725152 -56.38716116 119.8513876 -53.43164062 118.37695312 C-43.10803639 113.20683788 -32.93058112 107.89491896 -23 102 C-23 101.34 -23 100.68 -23 100 C-24.258125 99.78085937 -25.51625 99.56171875 -26.8125 99.3359375 C-42.02960073 96.56471014 -55.22983583 92.0419971 -69 85 Z M-90.7265625 94.65234375 C-91.49935547 95.01239502 -92.27214844 95.37244629 -93.06835938 95.7434082 C-93.91205078 96.1374585 -94.75574219 96.53150879 -95.625 96.9375 C-103.47554504 100.53903127 -111.40730526 103.7947878 -119.5 106.8125 C-120.94753662 107.3528186 -120.94753662 107.3528186 -122.42431641 107.90405273 C-128.46206225 110.12938155 -134.53640662 112.16718059 -140.68164062 114.0769043 C-143.16024691 114.76587351 -143.16024691 114.76587351 -144 117 C-132.49408828 126.21780428 -120.01897134 134.1809786 -106 139 C-101.12750289 130.90185537 -96.75227101 122.65680848 -92.6875 114.125 C-92.26742676 113.24626221 -91.84735352 112.36752441 -91.41455078 111.4621582 C-86.85794179 102.57655951 -86.85794179 102.57655951 -85 93 C-87.37566767 93 -88.58233022 93.63604832 -90.7265625 94.65234375 Z M-13.9765625 109.640625 C-15.55328735 110.49539429 -15.55328735 110.49539429 -17.16186523 111.36743164 C-18.30469971 111.9886792 -19.44753418 112.60992676 -20.625 113.25 C-23.02367304 114.54755208 -25.42377709 115.84244196 -27.82421875 117.13671875 C-28.73630852 117.62856911 -28.73630852 117.62856911 -29.66682434 118.13035583 C-47.87334516 127.94097934 -66.3193191 137.13546989 -85 146 C-84.16531997 148.25115997 -84.16531997 148.25115997 -81.63354492 148.82202148 C-80.59302979 149.08571533 -79.55251465 149.34940918 -78.48046875 149.62109375 C-76.74349731 150.06267822 -76.74349731 150.06267822 -74.97143555 150.51318359 C-73.09838745 150.97072021 -73.09838745 150.97072021 -71.1875 151.4375 C-69.91753174 151.75025879 -68.64756348 152.06301758 -67.33911133 152.38525391 C-51.98815568 156.07846938 -36.76720182 158.30719871 -21 159 C-16.8631174 147.47058164 -13.31497406 135.9430808 -10.5625 124 C-10.30388184 122.88512207 -10.04526367 121.77024414 -9.77880859 120.62158203 C-8.74089262 115.98261693 -7.85272938 111.7730787 -8 107 C-10.08238523 107 -12.21832313 108.68400258 -13.9765625 109.640625 Z M-155 123 C-156.49339732 124.67776736 -157.94284205 126.39466405 -159.375 128.125 C-159.81908203 128.6605249 -160.26316406 129.1960498 -160.72070312 129.74780273 C-164.05731414 133.79431858 -167.28651215 137.91803908 -170.5 142.0625 C-174.66364879 147.43145434 -179.03448742 152.4678287 -183.7109375 157.40234375 C-186.40311346 160.45745811 -188.67774044 163.65611035 -191 167 C-166.91279959 164.16621172 -140.85211925 158.92605962 -119 148 C-119 147.34 -119 146.68 -119 146 C-119.73150269 145.60844727 -119.73150269 145.60844727 -120.4777832 145.20898438 C-132.56134686 138.70825198 -143.48513925 131.85461958 -154 123 C-154.33 123 -154.66 123 -155 123 Z M-178.9765625 123.62109375 C-179.73066406 123.75193359 -180.48476562 123.88277344 -181.26171875 124.01757812 C-182.81384659 124.29336944 -184.36593133 124.56940345 -185.91796875 124.84570312 C-195.79367565 126.55849493 -205.61604527 127.19157276 -215.625 127.5625 C-217.27435547 127.62727539 -217.27435547 127.62727539 -218.95703125 127.69335938 C-221.63792882 127.79826406 -224.31890001 127.90042726 -227 128 C-229.66434251 133.32868501 -227.87266646 140.03905335 -226.09765625 145.421875 C-222.4258399 154.04606999 -216.17119037 160.17848945 -209 166 C-200.39587064 162.35751961 -194.1178795 153.12233666 -188.4375 146.01171875 C-185.07209162 141.85349781 -181.57496032 137.8136338 -178.07275391 133.77050781 C-173.21490151 128.94739969 -173.21490151 128.94739969 -171 123 C-173.90587058 123 -176.17874782 123.12246998 -178.9765625 123.62109375 Z M-101 154 C-101.7734375 155.03898438 -102.546875 156.07796875 -103.34375 157.1484375 C-111.52464929 168.11468804 -119.79404186 178.86365247 -129 189 C-125.67908481 190.10697173 -124.31625056 189.89422439 -120.92578125 189.28515625 C-119.36005371 189.00418091 -119.36005371 189.00418091 -117.76269531 188.7175293 C-116.62413086 188.50136963 -115.48556641 188.28520996 -114.3125 188.0625 C-113.12366211 187.83796143 -111.93482422 187.61342285 -110.70996094 187.38208008 C-87.96771597 182.9547384 -65.69098818 177.21668371 -44 169 C-44 168.67 -44 168.34 -44 168 C-44.67764404 167.87995605 -45.35528809 167.75991211 -46.0534668 167.63623047 C-61.32903328 164.89819368 -76.1674805 161.55587667 -91 157 C-92.86419143 156.4388007 -94.72877112 155.87888939 -96.59375 155.3203125 C-97.85735352 154.94156982 -97.85735352 154.94156982 -99.14648438 154.55517578 C-99.75814453 154.37196777 -100.36980469 154.18875977 -101 154 Z M-129.62890625 163.5390625 C-140.54112203 167.37568795 -151.4042573 170.79507819 -162.6875 173.375 C-163.72398682 173.61299316 -164.76047363 173.85098633 -165.82836914 174.09619141 C-173.17421555 175.72286802 -180.55350945 176.93373796 -188 178 C-180.07376966 183.28415356 -170.40460687 186.34255246 -161.4375 189.4375 C-160.67622803 189.70852539 -159.91495605 189.97955078 -159.13061523 190.25878906 C-153.60072422 192.13792082 -153.60072422 192.13792082 -148 191 C-138.74835171 184.08476217 -126.50721976 172.79081438 -122 162 C-125.05289737 162 -126.78546484 162.51463429 -129.62890625 163.5390625 Z M-35.00390625 176.94140625 C-60.48436914 187.14229659 -86.86653574 194.62403811 -114 199 C-111.30687694 201.69312306 -109.42309921 201.55084571 -105.6640625 202.03515625 C-104.37113281 202.20466797 -103.07820312 202.37417969 -101.74609375 202.54882812 C-101.06788574 202.63334229 -100.38967773 202.71785645 -99.69091797 202.80493164 C-97.6664328 203.05733436 -95.64376182 203.32135861 -93.62109375 203.58789062 C-81.10234465 205.20062188 -68.87453145 206.15532744 -56.25 206.0625 C-55.0640625 206.05798828 -53.878125 206.05347656 -52.65625 206.04882812 C-49.77077772 206.03719316 -46.88541787 206.0208484 -44 206 C-42.07219015 202.71474361 -40.15990327 199.42069355 -38.25 196.125 C-37.71117187 195.2071875 -37.17234375 194.289375 -36.6171875 193.34375 C-33.18299668 187.39673662 -30.35372234 181.45256667 -28 175 C-30.67502081 175 -32.52184377 175.93096872 -35.00390625 176.94140625 Z " fill="#CFD7DB" transform="translate(303,241)"/>
<path d="M0 0 C0.03440186 0.62640381 0.06880371 1.25280762 0.10424805 1.89819336 C1.57754554 27.08130171 4.71757732 53.79032873 17.1171875 76.25 C18 78 18 78 18 80 C8.28108108 80.33513514 8.28108108 80.33513514 4 78 C0.00781304 72.54214999 -1.81512614 65.32218819 -4 59 C-4.65742188 59.49306641 -4.65742188 59.49306641 -5.328125 59.99609375 C-6.70651885 61.02988914 -8.09590675 62.04908763 -9.4921875 63.05859375 C-12.08911514 64.99742589 -12.08911514 64.99742589 -14.5703125 67.47265625 C-18.77571414 71.26220341 -22.34342755 74.28206174 -28.17578125 74.234375 C-32.0559937 73.92650938 -35.84250252 73.23935257 -39.65234375 72.45703125 C-41.99316454 72.0013307 -44.32175751 71.67220383 -46.6875 71.375 C-48.18773691 71.16837959 -49.68774753 70.96010785 -51.1875 70.75 C-51.86965576 70.66588867 -52.55181152 70.58177734 -53.25463867 70.49511719 C-62.50144266 68.98235697 -67.43703791 61.5878124 -72.6875 54.5 C-73.24244141 53.76652344 -73.79738281 53.03304687 -74.36914062 52.27734375 C-77.38489956 48.26828491 -80.26512436 44.20545354 -83 40 C-84.44319692 40.90767102 -85.87934106 41.82656106 -87.3125 42.75 C-88.51326172 43.51570313 -88.51326172 43.51570313 -89.73828125 44.296875 C-92.04814159 46.03625169 -93.52588921 47.51728709 -95 50 C-94.77426109 53.19235272 -94.77426109 53.19235272 -94 56 C-97.66786393 54.49650623 -99.68910393 52.36271208 -102.25 49.375 C-102.95640625 48.55773437 -103.6628125 47.74046875 -104.390625 46.8984375 C-104.92171875 46.27195313 -105.4528125 45.64546875 -106 45 C-100.34828518 32.66898584 -87.73395749 27.3061646 -76 22 C-74.8965625 21.49855469 -73.793125 20.99710938 -72.65625 20.48046875 C-52.28909168 11.84346119 -22.69824691 0 0 0 Z M-27.5 18.0625 C-28.69931152 18.37469482 -29.89862305 18.68688965 -31.13427734 19.00854492 C-38.72245508 21.02596852 -46.20795823 23.23484396 -53.625 25.8125 C-54.46482422 26.1019751 -55.30464844 26.3914502 -56.16992188 26.68969727 C-60.33213733 27.90005976 -60.33213733 27.90005976 -63 31 C-57.41824089 32.1074247 -51.83553336 33.20989958 -46.25195312 34.30810547 C-44.35879139 34.68114701 -42.46587995 35.05546144 -40.57324219 35.43115234 C-29.73904942 37.58079377 -18.95555583 39.56444441 -8 41 C-8.99 32.42 -9.98 23.84 -11 15 C-16.75514244 15 -21.95179073 16.61552154 -27.5 18.0625 Z M-66 42 C-60.00821342 52.46690218 -51.19181115 61.22634058 -43 70 C-35.33005715 66.52725226 -28.30351078 62.83288469 -21.625 57.6875 C-20.77772339 57.039021 -20.77772339 57.039021 -19.91333008 56.37744141 C-18.56417034 55.30562184 -17.27526873 54.15875747 -16 53 C-16 52.34 -16 51.68 -16 51 C-22.79884107 49.71573241 -29.59820651 48.43427024 -36.39794922 47.15478516 C-38.71252507 46.71891292 -41.02697875 46.28239139 -43.34130859 45.84521484 C-46.66211786 45.21802988 -49.98335518 44.59315833 -53.3046875 43.96875 C-54.34430634 43.77188599 -55.38392517 43.57502197 -56.45504761 43.37219238 C-57.89631516 43.10191223 -57.89631516 43.10191223 -59.36669922 42.82617188 C-60.21497284 42.66628784 -61.06324646 42.50640381 -61.93722534 42.3416748 C-63.98037257 41.94552936 -63.98037257 41.94552936 -66 42 Z " fill="#CED7DB" transform="translate(235,31)"/>
<path d="M0 0 C0 4.59318135 -2.92336726 6.80212065 -6 10 C-8.66674962 12.35301437 -10.57732615 13.21889186 -14 14 C-9.72706118 8.76564995 -5.18419194 4.32893185 0 0 Z " fill="#BC3636" transform="translate(99,317)"/>
</svg>
